<?xml version="1.0" standalone="no"?>
<!DOCTYPE svg PUBLIC "-//W3C//DTD SVG 1.1//EN" "http://www.w3.org/Graphics/SVG/1.1/DTD/svg11.dtd" >
<svg>
<metadata>
Created by FontForge 20090914 at Tue Oct 15 22:49:50 2013
 By www-data
Traveling_Typewriter&#194;&#169; Created by Carl Krull. mail@carlkrull - www.carlkrull.dk
</metadata>
<defs>
<font id="TravelingTypewriter" horiz-adv-x="442" >
  <font-face 
    font-family="Traveling _Typewriter"
    font-weight="400"
    font-stretch="normal"
    units-per-em="1000"
    panose-1="2 0 5 6 0 0 0 2 0 4"
    ascent="800"
    descent="-200"
    x-height="454"
    cap-height="583"
    bbox="3.00098 -285.002 1207.01 975.992"
    underline-thickness="50"
    underline-position="-50"
    unicode-range="U+0020-U+FB02"
  />
<missing-glyph 
 />
    <glyph glyph-name=".notdef" 
 />
    <glyph glyph-name="space" unicode=" " 
 />
    <glyph glyph-name="exclam" unicode="!" horiz-adv-x="199" 
d="M159 620c0 -13.333 -1.00098 -26.835 -3.00098 -40.502l-6 -42.5l-6 -45.5c-2 -15.667 -3 -32.5 -3 -50.5c-4.66699 -13.333 -7.5 -26.666 -8.5 -39.999l-3 -38.5c-1 -12.333 -3.16699 -24 -6.5 -35s-9.33301 -20.833 -18 -29.5c-8.66699 0 -14.667 2.83301 -18 8.5
s-5.5 12.5 -6.5 20.5l-3 24c-1 8 -3.5 14.333 -7.5 19c-4.66699 22 -7.5 43.333 -8.5 64l-3 61c-1 20 -3.16699 40.167 -6.5 60.5s-9.33301 41.833 -18 64.5c9.33301 8.66699 18.333 14.334 27 17.001s17.334 8.66699 26.001 18c4.66699 0 10.167 -0.166992 16.5 -0.5
s12.833 -1.66602 19.5 -3.99902s13.167 -5.83301 19.5 -10.5s11.833 -11.334 16.5 -20.001zM158.999 190.998c4.66699 -9.33301 7.16699 -18.332 7.5 -26.999s-0.666992 -16.834 -3 -24.501s-5.5 -14.667 -9.5 -21s-8.33301 -11.833 -13 -16.5
c-9.33301 -9.33301 -21.333 -14 -36 -14s-26.334 4.66699 -35.001 14c-18 18 -30 35.833 -36 53.5s0 35.5 18 53.5c8.66699 4.66699 18.334 7.16699 29.001 7.5s21 -0.666992 31 -3s19.167 -5.5 27.5 -9.5s14.833 -8.33301 19.5 -13z" />
    <glyph glyph-name="quotedbl" unicode="&#x22;" horiz-adv-x="388" 
d="M361 673c-4 -17.333 -7.16699 -36.332 -9.5 -56.999s-4.5 -41.5 -6.5 -62.5s-4.33301 -41.833 -7 -62.5s-6 -39.334 -10 -56.001c0 -8 -3.5 -12.667 -10.5 -14s-14.833 -2 -23.5 -2v152c4 0 6.33301 1 7 3s0.5 4.5 -0.5 7.5s-2.33301 6.5 -4 10.5s-2.5 8 -2.5 12
c-8.66699 4.66699 -15.334 10 -20.001 16s-8 12.833 -10 20.5s-3.16699 15.667 -3.5 24s-0.5 16.833 -0.5 25.5c8.66699 8 17.834 15.5 27.501 22.5s23.167 10.5 40.5 10.5c4 0 8 -1.83301 12 -5.5s7.5 -8 10.5 -13s5.5 -10.5 7.5 -16.5s3 -11 3 -15zM142 690.001
c-8.66699 -21.333 -15.3311 -43.501 -19.998 -66.501s-8.66699 -46.167 -12 -69.5s-6.33301 -46.5 -9 -69.5s-6.33398 -44.833 -11.001 -65.5h-16c-4 16.667 -6.5 33.5 -7.5 50.5s-1.5 34 -1.5 51s-0.333008 34 -1 51s-3 33.833 -7 50.5
c-8.66699 8 -15.834 19.833 -21.501 35.5s-4.16699 31.834 4.5 48.501c8.66699 12.667 18 19.667 28 21s19.833 0 29.5 -4s18.5 -9.5 26.5 -16.5s14 -12.5 18 -16.5zM277.003 571v17c4 0 6.33301 -0.166992 7 -0.5s0.5 -1 -0.5 -2s-2.33301 -2.66699 -4 -5
s-2.5 -5.5 -2.5 -9.5z" />
    <glyph glyph-name="numbersign" unicode="#" horiz-adv-x="482" 
d="M473 339c-2 0 -3.33398 -1.01465 -4.00098 -3.01465v-5c-0.666992 -0.666992 -2 -1 -4 -1v-6c-6.66699 0 -13.667 -3.33301 -21 -10c-9.33301 -6 -17.666 -8 -24.999 -6v1c-1.33301 0.666992 -3.66602 1.16699 -6.99902 1.5s-8 0.5 -14 0.5c-9.33301 0 -15 2 -17 6
c-4 -0.666992 -6.33301 1 -7 5c0 2 -0.666992 3 -2 3c-2.66699 -2 -7.83398 -4 -15.501 -6s-17.167 -7.66699 -28.5 -17c-0.666992 -0.666992 -1 -6.33398 -1 -17.001h-2l-3 -27c-2.66699 1.33301 -4.16699 0.333008 -4.5 -3s-0.833008 -5.33301 -1.5 -6
c3.33301 -3.33301 6.66602 -7.16602 9.99902 -11.499s8.33301 -5.83301 15 -4.5c2 -1.33301 4.16699 -3 6.5 -5s5.16602 -2.33301 8.49902 -1c0 -0.666992 0.333008 -1.33398 1 -2.00098c2.66699 1.33301 6.16699 2.5 10.5 3.5l15.5 3.5h15c-1.33301 -2 -0.333008 -3 3 -3
l6 -4c2 -1.33301 4.66699 -3 8 -5c0 -3.33301 1 -6.83301 3 -10.5s3.33301 -6.16699 4 -7.5c-1.33301 0 -3.33301 -1 -6 -3v-3c-3.33301 0 -6.33301 -0.833008 -9 -2.5s-3.33398 -3.5 -2.00098 -5.5c-4 -6 -12 -9 -24 -9h-19c-8.66699 0 -14.667 -1.33301 -18 -4
c-5.33301 -1.33301 -10.5 -2.33301 -15.5 -3s-10.167 -1.66699 -15.5 -3c-12.667 -2.66699 -20 -8.66699 -22 -18c-0.666992 -1.33301 -1 -4 -1 -8c0 -3.33301 0.666992 -7.16602 2 -11.499s2 -7.83301 2 -10.5c0 -3.33301 -1.5 -6.83301 -4.5 -10.5
s-3.83301 -8.16699 -2.5 -13.5c-3.33301 -0.666992 -5.33301 -4.16699 -6 -10.5s-2.66699 -9.5 -6 -9.5c0 -0.666992 -1 -2.5 -3 -5.5s-2.66699 -5.5 -2 -7.5h-3c-0.666992 -2.66699 -1.16699 -6 -1.5 -10s-1.16602 -8.66699 -2.49902 -14c-4.66699 -2.66699 -7 -8 -7 -16
c0.666992 -12 0.666992 -18.333 0 -19c-2.66699 -1.33301 -5 -5.16602 -7 -11.499s-4.66699 -10.5 -8 -12.5v-5c-0.666992 -1.33301 -2 -3.5 -4 -6.5s-2.33301 -6.16699 -1 -9.5c-3.33301 -0.666992 -5.66602 -3.66699 -6.99902 -9s-3.66602 -8 -6.99902 -8h-1
c-1.33301 0 -2.33301 0.333008 -3 1v-5c-1.33301 0 -2.66602 -1.83301 -3.99902 -5.5s-5.66602 -6.16699 -12.999 -7.5c-1.33301 -0.666992 -3 -1 -5 -1c-3.33301 0 -6.66602 2 -9.99902 6s-6 6.66699 -8 8v10h-3v10h3v11c0 4 0.666992 8.66699 2 14
c2.66699 0 4 1.33301 4 4v8c0.666992 4 4.66699 9 12 15c1.33301 4.66699 0.333008 9.66699 -3 15c2 0 3 3.33301 3 10c0.666992 0.666992 1.66699 1.5 3 2.5l7 5.5c4 3.33301 5.66699 7.66602 5 12.999c2.66699 -0.666992 4 1.33301 4 6c0 5.33301 -2 10 -6 14
c0.666992 5.33301 5 14.666 13 27.999c2 1.33301 2.83301 4.5 2.5 9.5s0.166992 8.16699 1.5 9.5c2 -1.33301 3.5 -0.5 4.5 2.5s1.83301 4.83301 2.5 5.5v4c5.33301 10.667 7 17.334 5 20.001c-0.666992 0.666992 -1.16699 2.16699 -1.5 4.5
s-1.16602 5.16602 -2.49902 8.49902c-0.666992 4.66699 -3.33398 7.66699 -8.00098 9c0 2 -2 3 -6 3l-3 1c0 1.33301 -2 2 -6 2h-3c-1.33301 1.33301 -3 2 -5 2h-5l-7 4.5c-2.66699 1.66699 -5.66699 4.16699 -9 7.5c-1.33301 -1.33301 -2 -3 -2 -5
c-1.33301 0.666992 -3.33301 1 -6 1c-4.66699 0 -9 -2 -13 -6c-2 -1.33301 -3.5 -2.66602 -4.5 -3.99902s-2.16699 -2.33301 -3.5 -3l-2 -2c-0.666992 -3.33301 -3 -7.16602 -7 -11.499s-6 -8.5 -6 -12.5c0 -2.66699 0.333008 -4.66699 1 -6
c-2.66699 0 -4.33398 -1 -5.00098 -3c1.33301 -3.33301 0 -6 -4 -8s-6 -3.66699 -6 -5s1.66699 -3 5 -5c-0.666992 -2.66699 -0.166992 -5.66699 1.5 -9s2.5 -5.66602 2.5 -6.99902s-0.666992 -2.66602 -2 -3.99902c1.33301 -1.33301 2.33301 -3 3 -5v-5
c-4 -1.33301 -6 -5 -6 -11h-2l-3 -46c-1.33301 0 -2.66602 -0.666992 -3.99902 -2v-4c-4.66699 -2.66699 -7.16699 -7 -7.5 -13s-0.833008 -11.667 -1.5 -17c-2 -3.33301 -4 -6.5 -6 -9.5s-2.33301 -6.16699 -1 -9.5c-6 -6 -10 -13.667 -12 -23
c0.666992 -1.33301 2.16699 -3.16602 4.5 -5.49902s2.83301 -5.16602 1.5 -8.49902c-5.33301 -2 -11.333 -7.66699 -18 -17c-7.33301 -10.667 -14.666 -16 -21.999 -16c-2 0 -4.33301 0.666992 -7 2v-4c1.33301 2.66699 -0.166992 5 -4.5 7s-5.83301 4.66699 -4.5 8h-3v14
c0.666992 5.33301 -1 8.66602 -5 9.99902v18h3l6 30l11 13c5.33301 6.66699 7 13.334 5 20.001c2.66699 0 4 1.66699 4 5v7c0 -0.666992 0.666992 -1 2 -1h1c1.33301 0 2.33301 1.33301 3 4s1.66699 4 3 4v6c2.66699 1.33301 3.66699 4.33301 3 9
s-0.333984 7.66699 0.999023 9c3.33301 0 5 0.666992 5 2c0 3.33301 -0.333008 5 -1 5h-3c2.66699 1.33301 5.33398 4.5 8.00098 9.5s4.66699 8.16699 6 9.5l-4 3h2c0.666992 4.66699 1.66699 12.667 3 24c2 10 3 17.667 3 23c0 7.33301 -1.66699 15 -5 23
c-3.33301 1.33301 -6.5 2.83301 -9.5 4.5s-4.5 4.16699 -4.5 7.5c-0.666992 -0.666992 -1 -1.33398 -1 -2.00098c-28 6 -46.667 5 -56 -3c0 4.66699 -0.166992 10.334 -0.5 17.001s-0.833008 14.667 -1.5 24c20.667 7.33301 43.334 10 68.001 8c0 -2 1 -3 3 -3
c8 2 16 6.33301 24 13c4 0 9.33301 2.66699 16 8c-0.666992 0 1.66602 0.666992 6.99902 2v8h1c1.33301 1.33301 2 6.33301 2 15c6.66699 7.33301 10 12.333 10 15c2 2 0.666992 5 -4 9s-8.66699 8 -12 12h-29c-10 0.666992 -18 4 -24 10
c-0.666992 1.33301 -1.33398 3.33301 -2.00098 6c-0.666992 2 -1.5 4.33301 -2.5 7s-2.16699 6 -3.5 10c0.666992 1.33301 2.66699 3.5 6 6.5s5 5.5 5 7.5c6 5.33301 20.333 9 43 11v1c4.66699 -3.33301 9.33398 -4.66602 14.001 -3.99902
c5.33301 1.33301 10.5 2.83301 15.5 4.5s8.16699 3.16699 9.5 4.5c3.33301 3.33301 5.66602 7.33301 6.99902 12c2.66699 0 6 6.33301 10 19c2 -1.33301 3.83301 -0.666016 5.5 2.00098s2.83398 4.33398 3.50098 5.00098c0 1.33301 -0.666992 3.66602 -2 6.99902
s-2 5.66602 -2 6.99902c0 4 1.33301 6 4 6v12h1l2 1c-3.33301 2.66699 -4.33301 8.66699 -3 18c0 9.33301 -1.33301 15.333 -4 18c0 8.66699 -0.666992 13 -2 13h-2v15c6 2 9 8 9 18v26c1.33301 4.66699 5 8.5 11 11.5s8 6.16699 6 9.5c0 3.33301 -0.666992 7 -2 11
s-2 6.66699 -2 8c0 2.66699 1.66699 5 5 7c4 8.66699 11.333 17.667 22 27l2 6l49 -4c-0.666992 -3.33301 -0.333984 -5.66602 0.999023 -6.99902c-5.33301 -6 -7.33301 -15 -6 -27c1.33301 -16 1 -26 -1 -30c-3.33301 -2 -5.66602 -6.66699 -6.99902 -14
s-3.66602 -11.666 -6.99902 -12.999c-1.33301 -1.33301 -2 -4.66602 -2 -9.99902l-2 -4v-6c-1.33301 -2 -3 -4 -5 -6s-2.33301 -4.66699 -1 -8c-0.666992 -1.33301 -2.83398 -3.66602 -6.50098 -6.99902s-4.83398 -7.33301 -3.50098 -12c-2.66699 0 -4 -1.33301 -4 -4v-4
c-2.66699 -2.66699 -4 -6.66699 -4 -12c-6 -4 -10.667 -10.667 -14 -20c-3.33301 0 -7.33301 1 -12 3l-2 -10c6.66699 -6 9.66699 -14.667 9 -26c-0.666992 0 -1.66699 -1.33301 -3 -4v-4c-2 -1.33301 -3 -3 -3 -5v-7c-2 0 -3 -1.33301 -3 -4v-5
c-0.666992 0 -1 -0.166992 -1 -0.5s-0.666992 -0.5 -2 -0.5c3.33301 -3.33301 6.33301 -6.66602 9 -9.99902s6.33398 -4.66602 11.001 -3.99902v-1c1.33301 -0.666992 7.33301 -1 18 -1c0 -2 0.333008 -3.33301 1 -4c10.667 4 17 6 19 6v-2c1.33301 0 3 -0.166992 5 -0.5
s5 -0.5 9 -0.5c0.666992 -2 1.66699 -3 3 -3l2 2c1.33301 1.33301 2.66602 2 3.99902 2c2 3.33301 5.66699 6.83301 11 10.5s9.33301 7.16699 12 10.5c2 2.66699 4.16699 6.33398 6.5 11.001s5.16602 10.667 8.49902 18c3.33301 3.33301 5 8.66602 5 15.999
c-1.33301 10.667 -1.33301 16.667 0 18c2 0 3 0.333008 3 1l1 5c3.33301 2.66699 4.66602 12 3.99902 28c-2 0 -4 2.33301 -6 7c-2 10 0.333008 16 7 18l2 30c2.66699 -1.33301 4 0.333984 4 5.00098v3l2 3c0 0.666992 -0.166992 1.16699 -0.5 1.5s-0.5 0.833008 -0.5 1.5v1
c-1.33301 4 -2 7 -2 9c0 8.66699 4.33301 13.334 13 14.001c0 1.33301 1.16699 3.33301 3.5 6s3.5 5 3.5 7s-0.333008 3.33301 -1 4c0.666992 2 3.33398 4.16699 8.00098 6.5s6.66699 5.83301 6 10.5c3.33301 -1.33301 5.33301 -1 6 1s1.66699 3.66699 3 5v2
c2 0 3.66699 0.666992 5 2v4c4.66699 0 7 0.333008 7 1v2h11c0 -2.66699 0.333008 -4 1 -4l5 4v-11c-2.66699 0 -4 -1.66699 -4 -5c1.33301 -3.33301 4 -7.16602 8 -11.499s6 -8.5 6 -12.5c0 -2 -0.666992 -4.33301 -2 -7h-1c-0.666992 -0.666992 -1 -6.66699 -1 -18
c-1.33301 0 -4 -1.16699 -8 -3.5s-5.66699 -5.16602 -5 -8.49902c-1.33301 -2 -3.16602 -4 -5.49902 -6s-2.83301 -4.66699 -1.5 -8c-2 -1.33301 -2.66699 -3.33301 -2 -6v-8c1.33301 -0.666992 2 -3.66699 2 -9v-12
c-2.66699 -0.666992 -4.33398 -3.83398 -5.00098 -9.50098s-2.66699 -9.16699 -6 -10.5c1.33301 -5.33301 -1 -10 -7 -14c-5.33301 -3.33301 -7 -7.66602 -5 -12.999v-4c-2.66699 0 -4.33398 -1 -5.00098 -3v-4c0 -1.33301 -0.166992 -2.33301 -0.5 -3
s-0.5 -1.33398 -0.5 -2.00098v-4l-4 -2v-5h-2l-4 -26c-2.66699 0.666992 -4.66699 0 -6 -2l-2 -4c0 -8 3.5 -14.667 10.5 -20s14.167 -10 21.5 -14l2 -2c5.33301 1.33301 10.666 3 15.999 5s11 2.33301 17 1v-1l10 -2c4.66699 -0.666992 14 -2.66699 28 -6
c0 -2.66699 2 -4 6 -4c2 0.666992 4 -0.5 6 -3.5s4 -4.83301 6 -5.5v-6zM287.999 284.985c1.33301 3.33301 0.665039 7.99902 -2.00195 13.999c0.666992 3.33301 -0.666016 6.83301 -3.99902 10.5s-5.66602 7.16699 -6.99902 10.5c-0.666992 -1.33301 -1 -2.33301 -1 -3
s-0.333008 -1.66699 -1 -3c-2.66699 0 -6 -1 -10 -3s-7 -3 -9 -3c-2.66699 0 -4.66699 1 -6 3c-7.33301 1.33301 -13 3 -17 5s-7 7.33301 -9 16h-16c0 -4 -1 -6 -3 -6c-2 -4 -5.33301 -7.33301 -10 -10c-8.66699 -4.66699 -13.667 -7.33398 -15 -8.00098
c0 -5.33301 -1.33301 -11.666 -4 -18.999c-0.666992 -5.33301 0 -13 2 -23c0.666992 -2.66699 -0.333008 -6.66699 -3 -12c-1.33301 -6.66699 -0.833008 -14 1.5 -22s3.5 -14.667 3.5 -20c1.33301 -1.33301 4.5 -1.83301 9.5 -1.5s7.83301 -1.16699 8.5 -4.5h4l2 -2
c1.33301 -0.666992 2.83301 -1 4.5 -1s3.16699 -0.333008 4.5 -1c5.33301 0 8.66602 1.33301 9.99902 4c2 5.33301 8.33301 13 19 23c2.66699 0.666992 7.33398 4.33398 14.001 11.001c3.33301 1.33301 6.33301 4.33301 9 9s5.66699 7.66699 9 9
c0 5.33301 2.33301 10.333 7 15s7.66699 8.66699 9 12z" />
    <glyph glyph-name="dollar" unicode="$" horiz-adv-x="528" 
d="M300 706c6.66699 -8 11.167 -15.8457 13.5 -23.5127s3.33301 -15.167 3 -22.5s-1.16602 -14.5 -2.49902 -21.5s-2 -14.167 -2 -21.5c9.33301 -2 18.666 -3.5 27.999 -4.5s18.333 -3 27 -6s16.5 -7.83301 23.5 -14.5s12.833 -16 17.5 -28
c4.66699 5.33301 8.5 11.666 11.5 18.999l8.5 20.5c2.66699 6.33301 5.5 11.833 8.5 16.5s7.16699 7 12.5 7c10 -5.33301 16.667 -10.666 20 -15.999s5 -10.666 5 -15.999s-0.833008 -10.5 -2.5 -15.5s-2.5 -10.167 -2.5 -15.5c-10 -20.667 -15.833 -42 -17.5 -64
s-2.5 -48.333 -2.5 -79h-41c-10.667 10 -16.834 20 -18.501 30s-2.5 19.5 -2.5 28.5s-0.833008 17.167 -2.5 24.5s-7.83398 13.666 -18.501 18.999c0 4 -1.66699 9 -5 15s-7.5 11.833 -12.5 17.5s-10.333 10.834 -16 15.501s-11.167 8.33398 -16.5 11.001
c-7.33301 -40 -12.833 -81.333 -16.5 -124s-6.16699 -83.667 -7.5 -123c29.333 -2.66699 57.666 -8 84.999 -16s51.333 -22 72 -42c20 -20.667 34.333 -45.334 43 -74.001s7.66699 -58.667 -3 -90c0 -21.333 -8.33301 -41.333 -25 -60s-35.334 -33 -56.001 -43
c-16 -10 -34 -17.5 -54 -22.5s-40.333 -7.5 -61 -7.5c0 -11.333 1.33301 -21.333 4 -30c-3.33301 -2 -7 -4.66699 -11 -8l-12 -10c-4 -3.33301 -8 -6 -12 -8s-8.33301 -2.33301 -13 -1c-3.33301 -2 -7 -2.33301 -11 -1s-7.66699 3.5 -11 6.5s-6 6.66699 -8 11
s-2.33301 8.83301 -1 13.5c5.33301 3.33301 9 8.5 11 15.5s1.66699 13.833 -1 20.5c-18 5.33301 -33.333 12.333 -46 21l-83 61c-10 -5.33301 -17 -13.5 -21 -24.5s-7.33301 -21.5 -10 -31.5s-6 -18.167 -10 -24.5s-11 -6.83301 -21 -1.5c-10 0 -15.833 0.833008 -17.5 2.5
s-2.5 7.83398 -2.5 18.501c10 15.333 16.833 32.833 20.5 52.5s6.16699 39.834 7.5 60.501s2.5 40.834 3.5 60.501s4.16699 37.167 9.5 52.5c10 0 16.833 -3.33301 20.5 -10s6.16699 -14.5 7.5 -23.5s2.5 -18 3.5 -27s4.16699 -16.167 9.5 -21.5
c20.667 -31.333 41.334 -57.166 62.001 -77.499s41.334 -35.833 62.001 -46.5h6c2 7.33301 3.66699 14.333 5 21s0.333008 13.334 -3 20.001l11 36c-5.33301 9.33301 -8.5 17.833 -9.5 25.5s-1.5 15 -1.5 22v20c0 6.33301 -1.66699 12.5 -5 18.5
c6 3.33301 9.66699 6.33301 11 9s1.83301 4.83398 1.5 6.50098s-0.5 3.33398 -0.5 5.00098s1.33301 3.16699 4 4.5l-11 25c4.66699 2 8.66699 1.66699 12 -1c2 -1.33301 3.33301 -2.66602 4 -3.99902c3.33301 1.33301 5 2.5 5 3.5s-0.333008 2.16699 -1 3.5
s-1.16699 2.83301 -1.5 4.5s0.5 3.5 2.5 5.5l-11 -7c-2.66699 6 -2.5 11.333 0.5 16s2.83301 10 -0.5 16c2.66699 4.66699 4.66699 10.334 6 17.001c-18.667 4 -36.667 8.83301 -54 14.5s-33.5 13.334 -48.5 23.001s-28.167 21.5 -39.5 35.5s-20.333 31 -27 51
c0 20.667 1.5 41 4.5 61s8.5 39 16.5 57s18.667 34.5 32 49.5s30.333 27.833 51 38.5c6 0 13.5 1.16699 22.5 3.5s19.167 3.83301 30.5 4.5c-2 2 -4 3.83301 -6 5.5s-3.66699 3.83398 -5 6.50098c2 4.66699 3 9 3 13s0.333008 8 1 12s1.83398 8.5 3.50098 13.5
s4.5 10.833 8.5 17.5c4.66699 -1.33301 9.33398 -1.16602 14.001 0.500977l14 5c4.66699 1.66699 9.66699 2.66699 15 3s11 -1.5 17 -5.5zM386 50.9873c42 40.667 63.001 81.998 63.001 123.998c-10.667 20 -21.834 39.333 -33.501 58s-28.167 33.334 -49.5 44.001l-37 6
l-39 6c-1.33301 -10.667 -3 -21.5 -5 -32.5s-2.33301 -21.167 -1 -30.5c-1.33301 -12 -1.33301 -23.667 0 -35l4 -33.5c1.33301 -11 2 -22.333 2 -34s-2 -24.167 -6 -37.5c4.66699 -8.66699 7.5 -18.167 8.5 -28.5s1.16699 -21.166 0.5 -32.499
c17.333 -1.33301 34 -0.5 50 2.5s30.333 10.833 43 23.5zM182.001 563.985c-10.667 -5.33301 -18.835 -11.667 -24.502 -19s-10.5 -15.5 -14.5 -24.5s-7.66699 -18.5 -11 -28.5s-7.66602 -20 -12.999 -30c0 -20.667 6 -41.167 18 -61.5s33.667 -41.166 65 -62.499h41
c-0.666992 4 -1.16699 7.83301 -1.5 11.5s0.166992 7.16699 1.5 10.5c-3.33301 5.33301 -5.5 9 -6.5 11s-3.16699 6 -6.5 12c6.66699 8 10 15.667 10 23s-0.833008 14.333 -2.5 21s-2.66699 13.667 -3 21s2.83398 15 9.50098 23c-3.33301 6 -4.5 13.167 -3.5 21.5
s-0.166992 15.5 -3.5 21.5c-1.33301 11.333 -1 23.5 1 36.5s3.66699 26.167 5 39.5c-10 -2.66699 -20.167 -6.33398 -30.5 -11.001s-20.5 -9.66699 -30.5 -15z" />
    <glyph glyph-name="ampersand" unicode="&#x26;" horiz-adv-x="554" 
d="M322 541c4.66699 -9.33301 7.17188 -20.4971 7.50488 -33.4971s-0.666992 -26.5 -3 -40.5s-5.66602 -27.667 -9.99902 -41s-8.83301 -24.333 -13.5 -33l-55 -28.5l-56 -28.5c4.66699 -14 10.334 -25.833 17.001 -35.5s13.5 -18.5 20.5 -26.5l20.5 -23.5
c6.66699 -7.66699 12.334 -16.167 17.001 -25.5c8.66699 -4.66699 15.834 -11.167 21.501 -19.5l17 -24.5c5.66699 -8 12.667 -15 21 -21s19.5 -9 33.5 -9c4.66699 14 9.33398 28.833 14.001 44.5s9.83398 31 15.501 46s12.167 29.333 19.5 43s15.666 25.167 24.999 34.5
c14 4 25.833 5.16699 35.5 3.5s18.5 -4.66699 26.5 -9s15.833 -9.66602 23.5 -15.999s16.167 -11.833 25.5 -16.5c-4.66699 -4.66699 -7.5 -10.334 -8.5 -17.001l-3 -20.5c-1 -7 -3.16699 -13.667 -6.5 -20s-9.66602 -11.833 -18.999 -16.5
c-4.66699 0 -10.334 -0.833008 -17.001 -2.5s-13.334 -2.5 -20.001 -2.5s-13.334 1.5 -20.001 4.5s-12.334 9.16699 -17.001 18.5c-4.66699 -4.66699 -7.5 -9.33398 -8.5 -14.001s-1.5 -9.33398 -1.5 -14.001s-0.333008 -9.33398 -1 -14.001
s-3.33398 -9.33398 -8.00098 -14.001c-9.33301 -9.33301 -17.666 -18.5 -24.999 -27.5s-11 -18.167 -11 -27.5c8.66699 -18.667 18.667 -31.334 30 -38.001s22.666 -11.167 33.999 -13.5s22.666 -4.5 33.999 -6.5s21.666 -7.66699 30.999 -17
c0 -18 -3.83301 -31.667 -11.5 -41s-16.167 -14 -25.5 -14c-28 9.33301 -51.833 22.333 -71.5 39s-39.167 34.667 -58.5 54c0 -9.33301 -0.833008 -15.666 -2.5 -18.999s-7.16699 -9.66602 -16.5 -18.999c-9.33301 0 -17.5 -1.83301 -24.5 -5.5s-13.333 -7.16699 -19 -10.5
s-11 -5.66602 -16 -6.99902s-9.83301 0 -14.5 4c-14 -14 -27.833 -21.667 -41.5 -23s-26.834 0.333984 -39.501 5.00098s-24.834 10.834 -36.501 18.501s-22.167 13.834 -31.5 18.501c-18.667 9.33301 -33 20.833 -43 34.5s-17.333 28.667 -22 45
s-7.33398 33.5 -8.00098 51.5s-1 36.333 -1 55c19.333 18.667 38 38 56 58s36.667 44 56 72c-4.66699 9.33301 -12 17.833 -22 25.5s-19.667 15.5 -29 23.5s-16.666 17 -21.999 27s-5.66602 22 -0.999023 36c0 9.33301 0.166992 19.666 0.5 30.999
s1.66602 22.666 3.99902 33.999s5.83301 22.666 10.5 33.999s11.667 21.666 21 30.999c9.33301 0 17.666 2 24.999 6s14.5 8.33301 21.5 13s14.167 9 21.5 13s15.666 6 24.999 6c14 0 27.833 -2.33301 41.5 -7s26.167 -11 37.5 -19s21.5 -17.833 30.5 -29.5
s15.833 -24.5 20.5 -38.5zM267.005 523.003c-4.66699 9.33301 -10.3311 16.499 -16.998 21.499s-13.5 9.33301 -20.5 13s-13.833 6.83398 -20.5 9.50098s-12.334 6.33398 -17.001 11.001c-18.667 -9.33301 -33.334 -18.5 -44.001 -27.5s-20.667 -18.167 -30 -27.5
c-4.66699 -14 -6.16699 -27 -4.5 -39s4.83398 -23.833 9.50098 -35.5s10 -23.5 16 -35.5s11.333 -25 16 -39c18.667 0 36.5 4.66699 53.5 14s30.167 23 39.5 41c4.66699 9.33301 9.16699 17.666 13.5 24.999s7.66602 14.5 9.99902 21.5s3.33301 14.333 3 22
s-2.83301 16.167 -7.5 25.5zM248.008 169.002c-9.33301 9.33301 -17.667 19.6641 -25 30.9971l-21.5 34.5l-21.5 34.5c-7.33301 11.333 -15.666 21.666 -24.999 30.999c0 -9.33301 -3.83301 -15.666 -11.5 -18.999s-16.167 -9.66602 -25.5 -18.999
s-15.666 -22.333 -18.999 -39s-9.66602 -34.667 -18.999 -54c0 -9.33301 1.16699 -19.333 3.5 -30s5.83301 -20.667 10.5 -30s10.667 -17 18 -23s15.666 -9 24.999 -9c4.66699 4.66699 8.33398 6.16699 11.001 4.5s5.16699 -4.16699 7.5 -7.5l7.5 -10.5
c2.66699 -3.66699 6.33398 -5.5 11.001 -5.5h18c9.33301 -4.66699 18.666 -6.16699 27.999 -4.5s18.666 4.83398 27.999 9.50098s18.5 10 27.5 16s18.167 11.333 27.5 16c4.66699 4.66699 6.16699 10.334 4.5 17.001s-5.33398 13.5 -11.001 20.5s-12.834 13.667 -21.501 20
s-17.667 11.833 -27 16.5z" />
    <glyph glyph-name="quotesingle" unicode="'" horiz-adv-x="138" 
d="M91 623l14.001 -0.998047l-13 -119v-6c-7.33301 -6 -16.833 -8.5 -28.5 -7.5s-20.5 1.5 -26.5 1.5c-1.33301 17.333 -1.5 34.166 -0.5 50.499l3 48c1 15.667 1.16699 31.334 0.5 47.001s-3.33398 32.167 -8.00098 49.5c7.33301 3.33301 17 5.16602 29 5.49902
s25.333 0.5 40 0.5c6.66699 0 11 -0.666992 13 -2s3 -3 3 -5s-0.666992 -4 -2 -6s-2 -3.66699 -2 -5c-4 -3.33301 -5.83301 -7 -5.5 -11s0.5 -8.16699 0.5 -12.5s-0.833008 -8.83301 -2.5 -13.5s-6.5 -9.33398 -14.5 -14.001z" />
    <glyph glyph-name="parenleft" unicode="(" horiz-adv-x="265" 
d="M232 679c7.33301 0 11.001 -3.32812 11.001 -9.99512s-3.66699 -13.667 -11 -21c-16 -8 -29.333 -18.5 -40 -31.5s-23.667 -23.167 -39 -30.5c-23.333 -24 -41 -52 -53 -84s-19.5 -65.5 -22.5 -100.5s-1.83301 -70.333 3.5 -106s13.666 -68.834 24.999 -99.501
c4 -12 9.16699 -25.333 15.5 -40s14.333 -28.834 24 -42.501s21.5 -25.834 35.5 -36.501s31 -18 51 -22v-31c0 -15.333 -6.66699 -23.666 -20 -24.999s-28 2 -44 10c-8 11.333 -17.333 23 -28 35l-32 36.5c-10.667 12.333 -20.334 25.5 -29.001 39.5s-15 28.667 -19 44
c-12 16 -20.333 32.667 -25 50s-8 34.666 -10 51.999s-3.5 34.666 -4.5 51.999s-3.5 33.666 -7.5 48.999c0 30.667 4.5 61.5 13.5 92.5s21.333 60.667 37 89s33.834 54.833 54.501 79.5s42.667 46.667 66 66c8 4 14.167 6.16699 18.5 6.5s8 -0.5 11 -2.5
s5.83301 -4.66699 8.5 -8s6 -7 10 -11z" />
    <glyph glyph-name="parenright" unicode=")" horiz-adv-x="247" 
d="M173 573c0 -12 1.66699 -22.1699 5 -30.5029s7 -16.5 11 -24.5s7.66699 -16.167 11 -24.5s5 -18.166 5 -29.499c30 -78 30 -155.667 0 -233l15 -16c-15.333 -7.33301 -24.333 -18.166 -27 -32.499s-4 -29.166 -4 -44.499c-12 -12 -21.5 -24.5 -28.5 -37.5l-20.5 -38.5
c-6.66699 -12.667 -14.334 -24.5 -23.001 -35.5s-20.667 -20.5 -36 -28.5c-8 0 -14.167 0.833008 -18.5 2.5s-8 4 -11 7s-5.66699 6.33301 -8 10s-5.5 7.5 -9.5 11.5c0 8 2.66699 15 8 21s11.833 11.333 19.5 16s16 9 25 13s17.167 8 24.5 12
c15.333 23.333 28.333 49.833 39 79.5s23.667 60.167 39 91.5c-8 8 -12 18.5 -12 31.5s4 23.167 12 30.5c0 39.333 -6.5 80.833 -19.5 124.5s-27.5 85.167 -43.5 124.5c-15.333 7.33301 -30.666 17.5 -45.999 30.5s-30.666 23.167 -45.999 30.5c-8 8 -12 15.333 -12 22
s4 10 12 10c0 7.33301 0.666992 12.333 2 15s5.66602 8 12.999 16c11.333 -4 22 -10.5 32 -19.5s19.833 -19.333 29.5 -31l29.5 -36.5c10 -12.667 21 -25 33 -37z" />
    <glyph glyph-name="asterisk" unicode="*" horiz-adv-x="289" 
d="M270 288l-3 -20l-12 -5l-10 -7l-10 -1l-15 -1l-14 -2l-8 -4l-7 -4l3 -4l9 -6l8 -8l12 -8l11 -10l7 -18l5 -13l3 -12l-2 -6l-5 -10l-7 -8l-10 -4l-9 -1h-11l-12 3l-9 2l-9 16l-8 8l-9 12l-8 9l-3 4l-3 -4l-6 -9l-8 -10l-7 -12l-10 -12l-15 -8l-12 -6l-11 -3l-6 2l-8 7
l-8 6l-3 11l-1 10v12l1 13l3 11l15 10l7 8l11 9l9 10l2 9h-8l-10 6l-12 2l-10 3l-14 12l-16 10l-4 12l-2 12l-2 15l16 24l15 13l11 -5l11 -2l10 -6l11 -8l12 -10v6l1 11l-2 14l-1 10l5 18l4 20l9 8l9 7l14 6l11 -3l13 -4l16 -10l1 -14l2 -12l-2 -12l-4 -14l-4 -17l1 -8l6 -2
l11 6l8 5l17 1l18 3l11 -6l9 -7l10 -12l1 -12z" />
    <glyph glyph-name="plus" unicode="+" horiz-adv-x="363" 
d="M205 460l0.00390625 -92.999c4 -4 5.5 -8 4.5 -12s-2.5 -7.83301 -4.5 -11.5s-3.5 -7.33398 -4.5 -11.001s0.5 -7.5 4.5 -11.5c23.333 0 46.5 0.666992 69.5 2s46.167 5.66602 69.5 12.999c7.33301 -7.33301 11.666 -15 12.999 -23s2 -15.667 2 -23
c-8 -8 -17.5 -12.5 -28.5 -13.5s-22.333 -1 -34 0s-22.834 1.83301 -33.501 2.5s-20 -1 -28 -5c-4 4 -7.66699 6.33301 -11 7s-6.66602 0.333984 -9.99902 -0.999023s-6.33301 -3.33301 -9 -6v-93c2.66699 -2.66699 4.66699 -5.66699 6 -9
c2.66699 -7.33301 0.666992 -14.333 -6 -21c0 -8 -3.33301 -14.5 -10 -19.5s-13.667 -3.83301 -21 3.5c-8 8 -12.5 17.5 -13.5 28.5s-1 22.667 0 35s1.83301 25 2.5 38s-1 25.5 -5 37.5c-12 4 -23.833 6.16699 -35.5 6.5s-23.834 0 -36.501 -1s-25.667 -2.16699 -39 -3.5
s-27.666 -2 -42.999 -2v47c8 7.33301 16.667 10.833 26 10.5s18.666 -2 27.999 -5s18.666 -5.66699 27.999 -8s17.666 -1.5 24.999 2.5c4 0 8 -0.833008 12 -2.5s8 -3 12 -4s7.83301 -1.16699 11.5 -0.5s7.5 3 11.5 7l16 15l-16 124c0 7.33301 2.5 12.833 7.5 16.5
s10.333 5.5 16 5.5s11 -1.83301 16 -5.5s7.5 -9.16699 7.5 -16.5z" />
    <glyph glyph-name="comma" unicode="," horiz-adv-x="169" 
d="M139 76c4 -15.333 5.16895 -31.332 3.50195 -47.999s-4.83398 -33.5 -9.50098 -50.5s-10.5 -33.833 -17.5 -50.5s-14.167 -32.667 -21.5 -48c-4 -4 -7.83301 -6.83301 -11.5 -8.5s-7.16699 -3.16699 -10.5 -4.5s-6.33301 -2 -9 -2
c-7.33301 7.33301 -9.83301 14.833 -7.5 22.5s6.33301 15.167 12 22.5l17.5 22.5c6 7.66699 9 15.167 9 22.5c0 4 0.666992 8.66699 2 14s2.5 10.833 3.5 16.5s1.16699 11.167 0.5 16.5s-2.66699 10 -6 14c-4 -4 -8 -6.33301 -12 -7s-7.83301 -1 -11.5 -1
s-7.33398 -0.166992 -11.001 -0.5s-7.5 -2.5 -11.5 -6.5c-7.33301 4 -13 8.66699 -17 14s-7 11.333 -9 18s-3.16699 13.667 -3.5 21s-0.5 15 -0.5 23l22.5 22l22.5 22c8 -4 15.667 -6.33301 23 -7s14.333 -2 21 -4s12.667 -5.33301 18 -10s10 -12.334 14 -23.001z" />
    <glyph glyph-name="hyphen" unicode="-" horiz-adv-x="355" 
d="M136 310l-0.00292969 11.998h190c4.66699 -3.33301 7.83398 -7 9.50098 -11s2.5 -8.33301 2.5 -13s-0.333008 -9 -1 -13s-1 -7.33301 -1 -10c-26 -3.33301 -51.167 -5.16602 -75.5 -5.49902s-48.333 -1 -72 -2s-47.667 -2.5 -72 -4.5s-49.5 -6 -75.5 -12
c-5.33301 6 -8.33301 14.333 -9 25s-1 22 -1 34c0 6 1 10 3 12s4.5 3 7.5 3s6.16699 -0.5 9.5 -1.5s6.33301 -1.5 9 -1.5c4.66699 -3.33301 9.83398 -4.66602 15.501 -3.99902s11.834 1.5 18.501 2.5s13.5 1 20.5 0s14.167 -4.5 21.5 -10.5z" />
    <glyph glyph-name="period" unicode="." horiz-adv-x="188" 
d="M170 69c0 -19.333 -4.16797 -34.833 -12.501 -46.5s-17.5 -22.5 -27.5 -32.5c-10 0 -18.667 -0.833008 -26 -2.5s-14.166 -2.5 -20.499 -2.5s-12.166 1.66699 -17.499 5s-10.333 10 -15 20c-10 10 -18.333 20 -25 30s-5 19.667 5 29c0 10 2.33301 17.833 7 23.5
s10.667 10.334 18 14.001s15.666 7 24.999 10s19 7.16699 29 12.5c4.66699 -5.33301 9.5 -9.5 14.5 -12.5s10 -6.33301 15 -10s10 -8.33398 15 -14.001s10.167 -13.5 15.5 -23.5z" />
    <glyph glyph-name="slash" unicode="/" 
d="M426 633c3.33301 -12.667 3.16895 -23.335 -0.498047 -32.002s-8.16699 -16.667 -13.5 -24l-16 -21.5c-5.33301 -7 -8 -15.5 -8 -25.5c-26 -32 -51.333 -66 -76 -102s-46.667 -70.333 -66 -103c-6 -13.333 -14.333 -26.166 -25 -38.499s-19.334 -25.166 -26.001 -38.499
c-6.66699 -9.33301 -12 -18.833 -16 -28.5l-12 -29c-4 -9.66699 -8.66699 -19.334 -14 -29.001s-12.666 -19.167 -21.999 -28.5c0 -10 -2.16699 -19.833 -6.5 -29.5s-9.16602 -19.167 -14.499 -28.5l-17 -28.5c-6 -9.66699 -10.333 -19.5 -13 -29.5
c-3.33301 0 -7.33301 -0.5 -12 -1.5l-14 -3c-4.66699 -1 -9.33398 -1.33301 -14.001 -1s-8.33398 2.16602 -11.001 5.49902c-7.33301 0 -13 4.83301 -17 14.5s-3 17.834 3 24.501c7.33301 0 13.5 2.66699 18.5 8s7.5 11.333 7.5 18s2 12.5 6 17.5s8.5 9.83301 13.5 14.5
s9.5 9.5 13.5 14.5s6 10.833 6 17.5l26 25c0 10 1.33301 18.333 4 25s5.5 12.834 8.5 18.501l8.5 16c2.66699 5 4 10.833 4 17.5c6.66699 0 11.167 0.666992 13.5 2s3.83301 3 4.5 5s1.33398 3.66699 2.00098 5s2.66699 2 6 2v25c3.33301 0 5.5 -0.833008 6.5 -2.5
s2.16699 -3.16699 3.5 -4.5l2 -6c3.33301 0 5.33301 0.5 6 1.5s1 2.33301 1 4s0.166992 3.16699 0.5 4.5s1.5 2.33301 3.5 3h-11c0 2.66699 0.666992 5 2 7s3 3.83301 5 5.5s3.66699 3.5 5 5.5s2 4.66699 2 8c6 2.66699 10.833 7 14.5 13s6.66699 12.167 9 18.5
s4.33301 12.333 6 18s4.16699 10.167 7.5 13.5v26c10 3.33301 16.5 7.83301 19.5 13.5s5.33301 11.834 7 18.501s4 13 7 19s9.16699 10.667 18.5 14c0 6 2.16699 12.167 6.5 18.5s6.5 12.833 6.5 19.5c6 12.667 14.333 25.334 25 38.001s19.334 25.667 26.001 39
c3.33301 3.33301 5.16602 6.5 5.49902 9.5s0.166016 6.16699 -0.500977 9.5s-1.66699 6.66602 -3 9.99902s-2 6.66602 -2 9.99902c6.66699 6 11.5 12.167 14.5 18.5s10.833 12.833 23.5 19.5c3.33301 -3.33301 7.33301 -5.33301 12 -6l14.5 -2
c5 -0.666992 9.66699 -2.16699 14 -4.5s8.16602 -6.83301 11.499 -13.5z" />
    <glyph glyph-name="zero" unicode="0" horiz-adv-x="537" 
d="M395 579c24.667 -19.333 44.5029 -43.1709 59.5029 -71.5039s26.833 -59 35.5 -92s14.5 -67.5 17.5 -103.5s4.5 -71 4.5 -105l-33.5 -63.5c-12.333 -23 -26.5 -44.833 -42.5 -65.5s-33.833 -39 -53.5 -55s-41.834 -26.333 -66.501 -31
c-97.333 -20 -175.333 19.333 -234 118c0 9.33301 -2.16699 18 -6.5 26s-9 16.167 -14 24.5s-9.5 17.833 -13.5 28.5s-6 23.334 -6 38.001c-4.66699 29.333 -5.83398 59.5 -3.50098 90.5s7.66602 61.833 15.999 92.5s19.833 60.334 34.5 89.001s31.667 55.334 51 80.001
c10 0 18.833 2 26.5 6s15.167 8.5 22.5 13.5s14.833 9.5 22.5 13.5s16.5 6 26.5 6c30 0 58.667 -1.66699 86 -5s51 -14.666 71 -33.999zM376.003 539.995c-10 10 -22.166 17.5 -36.499 22.5s-29.5 8 -45.5 9s-32.167 0.333008 -48.5 -2s-31.833 -5.83301 -46.5 -10.5
l-32 -33c-11.333 -12 -21.833 -24.667 -31.5 -38s-17.834 -27.166 -24.501 -41.499s-10 -28.833 -10 -43.5c-9.33301 -20 -14.833 -43 -16.5 -69s-2.5 -49 -2.5 -69c0 -14.667 3.16699 -30.334 9.5 -47.001s14.5 -33.5 24.5 -50.5s20.667 -33.833 32 -50.5l32 -47
c19.333 -19.333 42.833 -29.833 70.5 -31.5s56.167 2.16602 85.5 11.499c24.667 14.667 45.667 33.834 63 57.501s31.5 49.5 42.5 77.5s19 57.333 24 88s7.5 60.667 7.5 90c-10 20 -19.833 43 -29.5 69s-19.5 49 -29.5 69z" />
    <glyph glyph-name="one" unicode="1" horiz-adv-x="559" 
d="M284 651c5.33301 5.33301 10.499 8.16895 15.499 8.50195s9.33301 -0.666992 13 -3s6.66699 -6 9 -11s3.5 -9.83301 3.5 -14.5v-537c-5.33301 0 -8.16602 -1.16699 -8.49902 -3.5s0 -5.5 1 -9.5s2.5 -8.5 4.5 -13.5s3 -10.167 3 -15.5h187
c4.66699 0 9.5 -1.16699 14.5 -3.5s8.66699 -5.5 11 -9.5s3.33301 -8.5 3 -13.5s-3.16602 -9.83301 -8.49902 -14.5c-5.33301 -10 -11.5 -16.833 -18.5 -20.5s-14.5 -5.5 -22.5 -5.5s-15.667 0.833008 -23 2.5s-13.666 2.5 -18.999 2.5
c-26 -5.33301 -50.667 -8.16602 -74 -8.49902s-45.833 0 -67.5 1s-43 2.5 -64 4.5s-41.833 3 -62.5 3c-15.333 0 -28.5 -1 -39.5 -3s-21 -3.5 -30 -4.5s-17.667 -1.33301 -26 -1s-17.833 3.16602 -28.5 8.49902c-10 0 -16.833 1.33301 -20.5 4s-5.5 6.5 -5.5 11.5
s0.833008 11.5 2.5 19.5s2.5 17 2.5 27c16 10.667 30.833 15.667 44.5 15s27.5 -3 41.5 -7s29.167 -7.66699 45.5 -11s34.833 -2.33301 55.5 3c0 -5.33301 1 -8.33301 3 -9s4.33301 -0.333984 7 0.999023c2.66699 2 6 4.66699 10 8c10.667 11.333 16.834 22 18.501 32
s2.5 20 2.5 30c-5.33301 30.667 -7.33301 62.667 -6 96s3.16602 66.833 5.49902 100.5s4.16602 67 5.49902 100s-0.333984 65.167 -5.00098 96.5v61c-6.66699 10.667 -17 16.667 -31 18s-29.167 1.16602 -45.5 -0.500977s-33 -3.66699 -50 -6s-32 -2.33301 -45 0
s-23 8.83301 -30 19.5s-8.83301 28 -5.5 52h227z" />
    <glyph glyph-name="two" unicode="2" horiz-adv-x="525" 
d="M470 415c-5.33301 0 -8.16602 -1.17285 -8.49902 -3.50586s0 -5.33301 1 -9s2.5 -8 4.5 -13s3 -9.83301 3 -14.5c-14.667 -24.667 -31.5 -42.834 -50.5 -54.501s-38.167 -20.5 -57.5 -26.5s-38.5 -11 -57.5 -15s-35.833 -11 -50.5 -21c-14 0 -26.167 -2.16699 -36.5 -6.5
s-19.833 -9.5 -28.5 -15.5s-17 -12.5 -25 -19.5s-17 -12.833 -27 -17.5c-4.66699 -10 -9.33398 -20.833 -14.001 -32.5l-14.5 -36l-15 -36c-5 -11.667 -9.83301 -22.167 -14.5 -31.5h254c14.667 0 29.167 -1 43.5 -3s28.333 -3.5 42 -4.5s26.5 -1.33301 38.5 -1
s23 3.16602 33 8.49902c9.33301 -10 14 -16.667 14 -20s-4.66699 -9.66602 -14 -18.999c-5.33301 -10 -11.333 -16.667 -18 -20s-13.834 -5.16602 -21.501 -5.49902s-15 0.333984 -22 2.00098s-12.833 2.5 -17.5 2.5c-34 5.33301 -66.167 7.33301 -96.5 6
s-60.166 -3.16602 -89.499 -5.49902s-59 -4.16602 -89 -5.49902s-62.333 0.333984 -97 5.00098c-9.33301 30 -10.833 59.667 -4.5 89s14.5 58.333 24.5 87c14.667 10 28.5 20.833 41.5 32.5l39.5 34c13.333 11 27.666 21 42.999 30s32.666 16.167 51.999 21.5
c10 4.66699 19.833 10.334 29.5 17.001s19.334 12.5 29.001 17.5s19.334 8.16699 29.001 9.5s19.5 -0.333984 29.5 -5.00098c10 10 19.667 19 29 27s17.833 16.167 25.5 24.5s13.667 17.833 18 28.5s6.5 23.334 6.5 38.001h19c20 0 30.833 -4.16699 32.5 -12.5
s-2.5 -17.166 -12.5 -26.499zM450 550.994c0 -10 2.83301 -18.834 8.5 -26.501s10.334 -15.167 14.001 -22.5s4.5 -14.833 2.5 -22.5s-10.333 -16.167 -25 -25.5c0 9.33301 -0.833008 18 -2.5 26s-7.16699 12 -16.5 12c0 4.66699 -2.16699 9.5 -6.5 14.5s-9.5 10 -15.5 15
s-12.5 10 -19.5 15s-12.833 9.83301 -17.5 14.5c-19.333 19.333 -42.833 33.166 -70.5 41.499s-56.5 7.5 -86.5 -2.5c-10 0 -18.833 -2.83301 -26.5 -8.5s-14.834 -12.334 -21.501 -20.001l-20 -23c-6.66699 -7.66699 -13.334 -13.667 -20.001 -18s-14 -6 -22 -5
s-16.667 6.5 -26 16.5c10 19.333 22.167 35.5 36.5 48.5s30 23.667 47 32s35 15.333 54 21s38.167 10.834 57.5 15.501c38.667 -9.33301 72.834 -20.666 102.501 -33.999s54.167 -34.666 73.5 -63.999z" />
    <glyph glyph-name="three" unicode="3" horiz-adv-x="494" 
d="M223 645c12.667 4 26.332 5.50098 40.999 4.50098s29.5 -2.5 44.5 -4.5s29.833 -3.5 44.5 -4.5s28.667 0.5 42 4.5c8.66699 0 15.334 -1 20.001 -3s8.66699 -5.16699 12 -9.5s6.33301 -9.66602 9 -15.999s6 -13.833 10 -22.5l-100.5 -79.5
c-33 -27 -62.5 -57.833 -88.5 -92.5c9.33301 -8.66699 18.833 -13.667 28.5 -15s23.167 -2 40.5 -2c26 0 51 -8 75 -24s44.667 -36.667 62 -62c4.66699 -8.66699 7.16699 -18.167 7.5 -28.5s0 -21.5 -1 -33.5s-2.33301 -24.333 -4 -37s-2.5 -25.334 -2.5 -38.001
c-12.667 -8.66699 -23.667 -18.167 -33 -28.5s-18.166 -21 -26.499 -32s-17.333 -21.667 -27 -32s-20.834 -19.833 -33.501 -28.5c-4 -8.66699 -9 -13.667 -15 -15s-12.333 -2 -19 -2s-13 -0.666992 -19 -2s-11 -6.33301 -15 -15c-17.333 -8.66699 -35.5 -18.667 -54.5 -30
s-38.833 -21.333 -59.5 -30s-41.667 -14.5 -63 -17.5s-42.666 -0.166992 -63.999 8.5c0 3.33301 -0.666992 7 -2 11c-2 6.66699 -7 14.667 -15 24c8.66699 12.667 20 20.834 34 24.501s29 6 45 7s32.167 2.33301 48.5 4s31.166 6.83398 44.499 15.501
c21.333 4 42.5 11.333 63.5 22s40.5 23.5 58.5 38.5s34.333 32 49 51s26.334 39.167 35.001 60.5c8.66699 4 14.334 9.16699 17.001 15.5s4 13.166 4 20.499s-0.666992 15.333 -2 24s-2 17.334 -2 26.001c-8.66699 8.66699 -16.5 17 -23.5 25s-14.167 15.167 -21.5 21.5
s-15.666 11.5 -24.999 15.5s-20.333 6 -33 6c-11.333 6 -22.333 8.16699 -33 6.5s-20.834 -4.83398 -30.501 -9.50098s-19.167 -9.83398 -28.5 -15.501s-18.5 -9.5 -27.5 -11.5s-17.833 -1 -26.5 3s-17.334 13 -26.001 27c0 4.66699 1.83301 9 5.5 13
s8.33398 7.66699 14.001 11s11.5 6 17.5 8s11 3 15 3l89.5 94.5c25.667 28.333 47.167 59.833 64.5 94.5c-12.667 -4 -25.5 -5.66699 -38.5 -5s-25.833 1.5 -38.5 2.5s-25.5 1 -38.5 0s-25.833 -5.83301 -38.5 -14.5c-8.66699 4 -19.167 4 -31.5 0
s-24.833 -7.66699 -37.5 -11s-25.167 -3.83301 -37.5 -1.5s-22.833 12.166 -31.5 29.499c0 4 0.166992 9 0.5 15s1.66602 12.333 3.99902 19s5.83301 13 10.5 19s11.334 11 20.001 15c17.333 -8.66699 38.166 -13.667 62.499 -15s49.166 -2 74.499 -2z" />
    <glyph glyph-name="four" unicode="4" horiz-adv-x="462" 
d="M174 647c4 -16.667 5.49414 -32.332 4.49414 -46.999s-3 -29.334 -6 -44.001s-6.16699 -29.334 -9.5 -44.001s-5 -30.334 -5 -47.001c-8.66699 -42 -17.667 -80 -27 -114s-22.333 -67.667 -39 -101v-17h198c0 33.333 -0.666992 69.166 -2 107.499s-6 74.166 -14 107.499
c4 0 8.83301 1.66699 14.5 5s11.667 6.5 18 9.5s12.5 5.16699 18.5 6.5s11 0 15 -4v-215c4 -8 9 -12.5 15 -13.5s12 -0.5 18 1.5s12 4.5 18 7.5s11 4.5 15 4.5h33c0 -4 0.833008 -9 2.5 -15s3 -12.167 4 -18.5s1.16699 -12.333 0.5 -18s-3 -10.5 -7 -14.5
c-12 0 -23.167 1.66699 -33.5 5s-19.666 6.5 -27.999 9.5s-15.666 5 -21.999 6s-11.5 -0.5 -15.5 -4.5c0 -16.667 0.666992 -32.334 2 -47.001s2.5 -28.667 3.5 -42s1.33301 -26.333 1 -39s-2.5 -25 -6.5 -37c0 -8 -1.83301 -15.167 -5.5 -21.5s-8 -11 -13 -14
s-10.5 -4.33301 -16.5 -4s-11 2.5 -15 6.5c-8 12 -11.833 23.333 -11.5 34s1.5 21.167 3.5 31.5s3.16699 20.833 3.5 31.5s-3.5 22.334 -11.5 35.001c8 8 12.667 16.833 14 26.5s2 22.834 2 39.501c-8 4 -16.167 6.33301 -24.5 7s-16.666 0.5 -24.999 -0.5
s-16.666 -2.33301 -24.999 -4s-16.5 -2.5 -24.5 -2.5c-25.333 -8 -50.166 -12.667 -74.499 -14s-49.166 -2 -74.499 -2c-8 0 -15.5 3.33301 -22.5 10s-10.5 14.334 -10.5 23.001c0 8 2.66699 15.333 8 22s11 13 17 19s11.667 12.333 17 19s8 14 8 22
c4 12.667 8 24.334 12 35.001s7.5 21.167 10.5 31.5s5.5 20.833 7.5 31.5s3 22.334 3 35.001c8 16.667 13.333 33.167 16 49.5s4 32.833 4 49.5s-0.666992 33.167 -2 49.5s-2 32.833 -2 49.5c-6.66699 0 -8.66699 2.66699 -6 8c1.33301 2.66699 3.33301 5.66699 6 9
c4 4 9 7.83301 15 11.5s12.167 6 18.5 7s12.333 0.166992 18 -2.5s10.5 -8 14.5 -16z" />
    <glyph glyph-name="five" unicode="5" horiz-adv-x="432" 
d="M109 613l280.003 -0.00195312c4 0 7 -1.66699 9 -5s3.5 -7.5 4.5 -12.5s1.5 -10 1.5 -15v-13.5c-15.333 -8 -30.833 -11 -46.5 -9s-31.167 4.83301 -46.5 8.5s-30.833 6.5 -46.5 8.5s-31.167 -0.666992 -46.5 -8c-15.333 0 -30.833 -0.666992 -46.5 -2
s-31.167 -6 -46.5 -14c0 -23.333 0.666992 -46.666 2 -69.999s5.66602 -46.666 12.999 -69.999c31.333 8 62.333 14.667 93 20s61.667 4 93 -4c8 0 14.167 -1.66699 18.5 -5s8 -7 11 -11l8 -11c2.33301 -3.33301 5.5 -5 9.5 -5c31.333 -30 47 -76.333 47 -139
c-12 -31.333 -28.333 -61.166 -49 -89.499s-44.5 -54.166 -71.5 -77.499s-56.833 -43.333 -89.5 -60s-66.334 -29 -101.001 -37c-8 0 -15.833 -1.33301 -23.5 -4s-15.334 -4.5 -23.001 -5.5s-15.334 0 -23.001 3s-15.5 10.167 -23.5 21.5c7.33301 8 12.333 16 15 24
s8 15.667 16 23c12 -4 22.833 -4.66699 32.5 -2s18.834 6 27.501 10s17 7.33301 25 10s15.667 2 23 -2c8 11.333 16.667 18.666 26 21.999s18.333 5.5 27 6.5s16.667 2.16699 24 3.5s13 6 17 14l47.5 47c16.333 16 30.833 32.833 43.5 50.5s22.334 36.334 29.001 56.001
s8 41.167 4 64.5c-4 11.333 -9.66699 20.166 -17 26.499s-15.333 11.5 -24 15.5s-17.5 7.16699 -26.5 9.5s-17.5 5.5 -25.5 9.5c-4 -4 -8.83301 -6.33301 -14.5 -7s-11.334 -1 -17.001 -1s-11.167 -0.166992 -16.5 -0.5s-10 -2.5 -14 -6.5c-8 4 -15 5.33301 -21 4
s-12 -3.33301 -18 -6s-12 -5.5 -18 -8.5s-13 -4.5 -21 -4.5c-7.33301 -8 -15 -12.667 -23 -14s-15.667 -2 -23 -2c-8 8 -11.833 17.5 -11.5 28.5s1.5 22.833 3.5 35.5s3.16699 25.667 3.5 39s-3.5 25.666 -11.5 36.999v108c0 8 1.66699 12.5 5 13.5s6.83301 1 10.5 0
s7.16699 -1.83301 10.5 -2.5s5 1 5 5z" />
    <glyph glyph-name="six" unicode="6" horiz-adv-x="429" 
d="M379 609c-12 -12.667 -24.1699 -20.8389 -36.5029 -24.5059s-24.666 -6 -36.999 -7s-24.666 -2.16699 -36.999 -3.5s-24.5 -6.33301 -36.5 -15c-32.667 -24 -60.5 -50.833 -83.5 -80.5s-38.833 -56.834 -47.5 -81.501l-21.5 -51c-7 -17.333 -10.5 -38.333 -10.5 -63
c8.66699 0 16.834 2.66699 24.501 8s15.834 8 24.501 8c4 8 9.83301 14.333 17.5 19s16.667 8 27 10s21.5 3.16699 33.5 3.5s24 0.5 36 0.5c16 0 32.333 -3.5 49 -10.5s33 -14.5 49 -22.5c24.667 -16.667 43.667 -39.667 57 -69s16 -60.666 8 -93.999
c-8 -24.667 -16.833 -47.667 -26.5 -69s-22.5 -36.333 -38.5 -45c-33.333 -24.667 -66.166 -37.667 -98.499 -39s-64.833 6 -97.5 22c-20.667 8.66699 -37.334 19.834 -50.001 33.501s-23 29.334 -31 47.001s-14.5 36.334 -19.5 56.001s-9.5 39.834 -13.5 60.501
c0 40.667 4.16699 77.834 12.5 111.501s20.5 66.834 36.5 99.501c8.66699 8 14.334 19.5 17.001 34.5s7.66699 30.833 15 47.5c16.667 20 34.167 37.5 52.5 52.5s37.166 28 56.499 39s39.166 21 59.499 30s40.5 17.5 60.5 25.5c4 0 8.83301 -1 14.5 -3s11 -4.5 16 -7.5
s9.33301 -6.5 13 -10.5s5.5 -8 5.5 -12zM329.997 233.995c0 8 -2.67188 15.166 -8.00488 21.499s-12.166 12 -20.499 17s-17.166 9.66699 -26.499 14l-26 12.5c-16.667 4 -32.167 5.16699 -46.5 3.5s-28.166 -5 -41.499 -10s-26.166 -11.167 -38.499 -18.5
s-24.5 -15 -36.5 -23c-12 -8.66699 -19 -18 -21 -28s-2 -20.167 0 -30.5s4.16699 -20.333 6.5 -30s1.5 -18.5 -2.5 -26.5c4 -4 7.83301 -7.33301 11.5 -10s6.5 -5.5 8.5 -8.5s3 -6.83301 3 -11.5s-2 -11 -6 -19c24 -24 48.833 -40.833 74.5 -50.5s55.167 -14.5 88.5 -14.5
c16 8.66699 31.333 20.334 46 35.001s26.334 30 35.001 46c4 8 7.66699 17.167 11 27.5s5.5 21 6.5 32s0.333008 22.667 -2 35s-7.5 24.5 -15.5 36.5z" />
    <glyph glyph-name="seven" unicode="7" horiz-adv-x="457" 
d="M430 663v-16.9932c0 -16.667 0.666992 -34.167 2 -52.5s1.5 -36.333 0.5 -54s-4 -34.5 -9 -50.5s-13.833 -30.333 -26.5 -43v-16c-8.66699 -8.66699 -17 -19.834 -25 -33.501s-16.333 -24.834 -25 -33.501c0 -4 -0.833008 -7.33301 -2.5 -10s-3.66699 -5.66699 -6 -9
s-4.33301 -7.33301 -6 -12s-2.5 -11 -2.5 -19c-8 0 -15.5 -1.33301 -22.5 -4s-10.5 -12.334 -10.5 -29.001c-16.667 -17.333 -30.5 -34.833 -41.5 -52.5l-41.5 -64.5c-4 -12.667 -5.5 -25.167 -4.5 -37.5s2.5 -24.833 4.5 -37.5s3.5 -25.167 4.5 -37.5
s-0.5 -24.833 -4.5 -37.5c-8.66699 -8 -17 -14.833 -25 -20.5s-16.333 -4.16699 -25 4.5c-8 8 -12.5 17.167 -13.5 27.5s-0.5 21.166 1.5 32.499s4.5 23.166 7.5 35.499s4.5 24.833 4.5 37.5c8.66699 42 24.5 82.833 47.5 122.5s51.5 76.5 85.5 110.5
c0 8.66699 0.666992 14.334 2 17.001s6.33301 8 15 16c0 -4 0.833008 -6.16699 2.5 -6.5s3.5 0.5 5.5 2.5s3.83301 5 5.5 9s2.5 8 2.5 12c4 4 5.66699 8.16699 5 12.5s-1.5 8.5 -2.5 12.5s-0.833008 8.16699 0.5 12.5s6 8.5 14 12.5c8 8 13.5 17.167 16.5 27.5
s5 21.166 6 32.499l3 35.5c1 12.333 3.5 24.833 7.5 37.5c-4 4 -9.83301 6.33301 -17.5 7s-15.667 0.5 -24 -0.5s-16.333 -2.33301 -24 -4s-13.5 -2.5 -17.5 -2.5c-16.667 0 -32.5 0.833008 -47.5 2.5s-29.667 3 -44 4s-29 1.16699 -44 0.5s-30.833 -3 -47.5 -7
c-4 -4 -6.5 -9.83301 -7.5 -17.5s-1.5 -15.667 -1.5 -24s-0.333008 -16.333 -1 -24s-3 -13.5 -7 -17.5c0 -8.66699 0.666992 -16.334 2 -23.001s6.33301 -10 15 -10c-4 -4 -8.16699 -8.83301 -12.5 -14.5s-9.16602 -10.667 -14.499 -15s-11.166 -7.16602 -17.499 -8.49902
s-13.833 0 -22.5 4c-8 8.66699 -11.833 17.167 -11.5 25.5s2.16602 16.666 5.49902 24.999s6.16602 16.666 8.49902 24.999s1.5 16.5 -2.5 24.5c4 8 6.5 17 7.5 27l3 31c1 10.667 3 21 6 31s8.83301 19.333 17.5 28c28.667 0 57.667 -0.833008 87 -2.5s58.5 -3 87.5 -4
s58 -1.16699 87 -0.5s58.167 3 87.5 7z" />
    <glyph glyph-name="eight" unicode="8" 
d="M304 647c16.667 -9.33301 31.9922 -21.3311 45.9922 -35.998s21 -30.667 21 -48c7.33301 -34 7 -66.167 -1 -96.5s-24.667 -53.5 -50 -69.5c-8 0 -16.167 -3.5 -24.5 -10.5s-16.5 -14.833 -24.5 -23.5c33.333 -9.33301 61.5 -24.833 84.5 -46.5
s39.167 -45.167 48.5 -70.5c4 -20.667 5.83301 -42.167 5.5 -64.5s-3.66602 -44 -9.99902 -65s-16 -40.667 -29 -59s-29.833 -33.833 -50.5 -46.5c-8 0 -16.833 -2.5 -26.5 -7.5s-23.167 -7.5 -40.5 -7.5c-8 -4 -16.167 -5.66699 -24.5 -5s-16.666 2 -24.999 4
s-16.666 3.66699 -24.999 5s-16.5 0 -24.5 -4c-4 8 -9 14.5 -15 19.5s-12.167 9.5 -18.5 13.5s-12.5 8.5 -18.5 13.5s-11 11.5 -15 19.5h-35c4.66699 4 7.33398 8 8.00098 12s0.333984 7.66699 -0.999023 11s-3.66602 7 -6.99902 11
c-7.33301 16.667 -13.833 33.334 -19.5 50.001s-4.16699 33.334 4.5 50.001c-4 8.66699 -4.66699 16.167 -2 22.5s6 12.166 10 17.499s7.33301 10.166 10 14.499s1.66699 8.5 -3 12.5c9.33301 25.333 25 46 47 62s45.667 28.667 71 38c-8 8.66699 -17.833 17.167 -29.5 25.5
s-22.667 17.166 -33 26.499s-19.166 19.166 -26.499 29.499s-11 21.833 -11 34.5c0 16.667 0.333008 33.167 1 49.5s3.16699 31.833 7.5 46.5s11 28.167 20 40.5s21.833 22.833 38.5 31.5c24.667 16 52.334 24 83.001 24s58.667 -8 84 -24zM303.992 580.002
c0 8.66699 -3.50195 16.3359 -10.502 23.0029s-14.5 10 -22.5 10c-12.667 0 -25.334 0.666992 -38.001 2s-24.667 2 -36 2s-22.166 -1.33301 -32.499 -4s-19.5 -8 -27.5 -16c-9.33301 -17.333 -14.666 -37 -15.999 -59s-2 -41.667 -2 -59
c0 -12.667 2.83301 -23.334 8.5 -32.001s12.667 -16.667 21 -24s17.5 -14.333 27.5 -21s19.333 -14 28 -22c24.667 8.66699 48.167 21 70.5 37s37.5 36.667 45.5 62c8.66699 17.333 12.334 34.166 11.001 50.499s-10.333 33.166 -27 50.499zM353.99 263.004l-28.002 26.501
c-10 9.66699 -20.833 18.667 -32.5 27s-23.667 15.166 -36 20.499s-24.833 8 -37.5 8c-25.333 -7.33301 -49.166 -16.666 -71.499 -27.999s-37.5 -29.333 -45.5 -54c-8 -16.667 -14.833 -36.834 -20.5 -60.501s-4.16699 -48.167 4.5 -73.5c0 -8 2.66699 -14.5 8 -19.5
s11 -9.5 17 -13.5s11.667 -8.5 17 -13.5s8 -11.833 8 -20.5c4 -4 8.83301 -6.33301 14.5 -7s11 -1 16 -1s9.33301 -0.333008 13 -1s5.5 -3 5.5 -7c25.333 0 49.833 1.33301 73.5 4s43.834 12 60.501 28c25.333 25.333 39.5 54 42.5 86s0.166992 65 -8.5 99z" />
    <glyph glyph-name="nine" unicode="9" horiz-adv-x="433" 
d="M384 514c4 -8 7.83398 -16.668 11.501 -26.001s6.5 -19 8.5 -29s2.83301 -19.667 2.5 -29s-2.5 -18 -6.5 -26c0 -56.667 -8.5 -108.667 -25.5 -156s-45.5 -91 -85.5 -131c-8 -16 -17.833 -29.333 -29.5 -40s-24.334 -20.5 -38.001 -29.5s-28.334 -17.833 -44.001 -26.5
s-31.5 -19 -47.5 -31c-16 0 -28.667 3.33301 -38 10s-18 14.334 -26 23.001c8 7.33301 13.333 14.333 16 21s8 10 16 10c12 -4 23.167 -4.5 33.5 -1.5s20.5 7.5 30.5 13.5s20 12.5 30 19.5s21 12.5 33 16.5c12 16 23.833 30.167 35.5 42.5s22.5 24.5 32.5 36.5
s18.833 24.333 26.5 37s13.5 27 17.5 43c8 7.33301 13.333 15 16 23s8 16 16 24c-4 4 -6.33301 8 -7 12s-1 8 -1 12s-0.333008 7.83301 -1 11.5s-3 7.5 -7 11.5c-16 -8 -32 -17.167 -48 -27.5s-32.5 -19.5 -49.5 -27.5s-34.5 -13.333 -52.5 -16s-37 0 -57 8
c0 8 -3.33301 12.667 -10 14s-14 2 -22 2c-16 8 -31.167 19.167 -45.5 33.5s-25.5 29.833 -33.5 46.5c6.66699 0 11.334 2.66699 14.001 8c1.33301 2.66699 2 5.33398 2 8.00098c-8 0 -13.333 2.5 -16 7.5s-4 11 -4 18s0.666992 14 2 21s2 12.5 2 16.5
c0 8 0.166992 16.833 0.5 26.5s1.5 19.5 3.5 29.5s5 19.833 9 29.5s10 18.5 18 26.5c32 23.333 63.833 41.666 95.5 54.999s63.5 16 95.5 8s59.333 -23.167 82 -45.5s37.667 -49.833 45 -82.5zM337.001 529.999c-8 16 -18.667 28.3311 -32 36.998s-28 15 -44 19
s-32.5 6.33301 -49.5 7s-33.5 1 -49.5 1c-20 -8 -35.5 -18.5 -46.5 -31.5s-19 -27 -24 -42s-7.83301 -30 -8.5 -45s-1 -28.5 -1 -40.5c0 -8 1.83301 -16.667 5.5 -26s8.5 -18.5 14.5 -27.5s12.833 -17.167 20.5 -24.5s15.5 -13 23.5 -17c16 -8 34.5 -14.667 55.5 -20
s39.5 -4 55.5 4c8 0 15.833 2.66699 23.5 8s15 12 22 20s13.5 16.667 19.5 26s11 18 15 26c12 8 18.667 16.833 20 26.5s0.5 19.834 -2.5 30.501s-6.66699 21.834 -11 33.501s-6.5 23.5 -6.5 35.5z" />
    <glyph glyph-name="colon" unicode=":" horiz-adv-x="182" 
d="M148 469c10 -10 14.999 -20.833 14.999 -32.5s-5 -27.5 -15 -47.5c-10 -10 -23.167 -15.833 -39.5 -17.5s-29.5 -2.5 -39.5 -2.5c-10 10 -19.167 16.667 -27.5 20s-12.5 10 -12.5 20c-10 20 -10.833 38.167 -2.5 54.5s22.5 24.5 42.5 24.5
c4.66699 10 10.5 15.5 17.5 16.5s14.333 -0.333008 22 -4s14.834 -8.66699 21.501 -15zM167.999 150c0 -19.333 -4.16797 -34.833 -12.501 -46.5s-17.5 -22.5 -27.5 -32.5c-10 0 -18.667 -0.833008 -26 -2.5s-14.166 -2.5 -20.499 -2.5s-12.166 1.66699 -17.499 5
s-10.333 10 -15 20c-10 10 -18.333 20 -25 30s-5 19.667 5 29c0 10 2.33301 17.833 7 23.5s10.667 10.334 18 14.001s15.666 7 24.999 10s19 7.16699 29 12.5c4.66699 -5.33301 9.5 -9.5 14.5 -12.5s10 -6.33301 15 -10s10 -8.33398 15 -14.001s10.167 -13.5 15.5 -23.5z
" />
    <glyph glyph-name="semicolon" unicode=";" horiz-adv-x="180" 
d="M147 469c10 -10 14.999 -20.833 14.999 -32.5s-5 -27.5 -15 -47.5c-10 -10 -23.167 -15.833 -39.5 -17.5s-29.5 -2.5 -39.5 -2.5c-10 10 -19.167 16.667 -27.5 20s-12.5 10 -12.5 20c-10 20 -10.833 38.167 -2.5 54.5s22.5 24.5 42.5 24.5
c4.66699 10 10.5 15.5 17.5 16.5s14.333 -0.333008 22 -4s14.834 -8.66699 21.501 -15zM143.999 89c4 -15.333 5.16895 -31.332 3.50195 -47.999s-4.83398 -33.5 -9.50098 -50.5s-10.5 -33.833 -17.5 -50.5s-14.167 -32.667 -21.5 -48c-4 -4 -7.83301 -6.83301 -11.5 -8.5
s-7.16699 -3.16699 -10.5 -4.5s-6.33301 -2 -9 -2c-7.33301 7.33301 -9.83301 14.833 -7.5 22.5s6.33301 15.167 12 22.5l17.5 22.5c6 7.66699 9 15.167 9 22.5c0 4 0.666992 8.66699 2 14s2.5 10.833 3.5 16.5s1.16699 11.167 0.5 16.5s-2.66699 10 -6 14
c-4 -4 -8 -6.33301 -12 -7s-7.83301 -1 -11.5 -1s-7.33398 -0.166992 -11.001 -0.5s-7.5 -2.5 -11.5 -6.5c-7.33301 4 -13 8.66699 -17 14s-7 11.333 -9 18s-3.16699 13.667 -3.5 21s-0.5 15 -0.5 23l22.5 22l22.5 22c8 -4 15.667 -6.33301 23 -7s14.333 -2 21 -4
s12.667 -5.33301 18 -10s10 -12.334 14 -23.001z" />
    <glyph glyph-name="less" unicode="&#x3c;" horiz-adv-x="235" 
d="M182 394c-11.333 -16.667 -20.334 -27.668 -27.001 -33.001c-8.66699 -26 -20.667 -42 -36 -48c-4 0 -7.33301 -6 -10 -18l-22 -4l2 -9h10l10 2c2.66699 -2.66699 4.33398 -8.66699 5.00098 -18c6.66699 -2.66699 13 -13 19 -31l6 -6v-3c12 4 14.333 1 7 -9
c4.66699 0 16.334 -12 35.001 -36l14 -22l10 -26c-12 -12 -26 -17 -42 -15l-27 23c-10 0 -16.333 7.33301 -19 22c-15.333 12.667 -28.666 27 -39.999 43c-8.66699 17.333 -15.334 27.333 -20.001 30c-13.333 -2.66699 -22.333 6.33301 -27 27
c-14 5.33301 -23 10.333 -27 15v2c6.66699 6 10 14 10 24c21.333 9.33301 34.333 18 39 26c7.33301 0 13.666 4.66699 18.999 14c7.33301 6.66699 11 11.334 11 14.001l8 6c5.33301 10 12.333 18.667 21 26l8 23c2 6 16 18 42 36c16 0 27.333 -7.33301 34 -22z" />
    <glyph glyph-name="equal" unicode="=" horiz-adv-x="437" 
d="M398 149l-11 -13l-13 -8h-319v56c9.33301 0 23.5 0.833008 42.5 2.5s33.167 2.5 42.5 2.5c25.333 0 63 0.666992 113 2s87.667 2 113 2h6c18.667 -8 28 -17.667 28 -29zM85 269c-2.66699 0 -12.666 2 -29.999 6v39h-24l24 3v8c29.333 4 44.666 6 45.999 6
c4.66699 0 9.66699 -1.33301 15 -4c6 0.666992 10.333 2 13 4h262v-58h-276c-3.33301 0 -8.33301 -0.666992 -15 -2s-11.667 -2 -15 -2z" />
    <glyph glyph-name="greater" unicode="&#x3e;" horiz-adv-x="238" 
d="M40 436c6.66699 14.667 17.999 22.0029 33.999 22.0029c26.667 -18 41 -30 43 -36l8 -24c8.66699 -7.33301 15.667 -16 21 -26l8 -6c0 -2.66699 3.66699 -7.33398 11 -14.001c5.33301 -9.33301 11.666 -14 18.999 -14c4.66699 -8 18 -16.667 40 -26
c0 -10 3.33301 -18.333 10 -25v-2c-4 -4.66699 -13 -9.66699 -27 -15c-4.66699 -20.667 -14 -29.667 -28 -27c-4.66699 -2.66699 -11.334 -12.667 -20.001 -30c-11.333 -16 -24.666 -30.667 -39.999 -44c-2.66699 -14.667 -9 -22 -19 -22l-28 -23c-16 -2 -30 3 -42 15l10 26
l14 23c18.667 24 30.667 36 36 36c-8 10 -5.66699 13 7 9v3l6 6c6 18 12.333 28.333 19 31c0.666992 9.33301 2.33398 15.666 5.00098 18.999l10 -3h10l2 10l-22 4c-2.66699 12 -6 18 -10 18c-15.333 6 -27.666 22 -36.999 48c-6.66699 5.33301 -15.667 16.666 -27 33.999z
" />
    <glyph glyph-name="question" unicode="?" horiz-adv-x="401" 
d="M369 560c4.66699 -9.33301 7.16406 -19.6699 7.49707 -31.0029s-0.666992 -22.833 -3 -34.5s-5.66602 -23.167 -9.99902 -34.5s-8.83301 -21.666 -13.5 -30.999c-3.33301 -9.33301 -9.16602 -17.5 -17.499 -24.5s-17.833 -13.5 -28.5 -19.5l-31.5 -18
c-10.333 -6 -19.166 -13 -26.499 -21s-12.166 -17.5 -14.499 -28.5s-0.5 -24.167 5.5 -39.5l-14 -13.5c-4.66699 -4.33301 -9.33398 -7.66602 -14.001 -9.99902s-9.33398 -3.33301 -14.001 -3s-9.33398 2.83301 -14.001 7.5c-4.66699 9.33301 -6.16699 19.666 -4.5 30.999
s4.83398 23 9.50098 35s10 23.667 16 35l16 31c9.33301 4.66699 19.666 8.66699 30.999 12s22.333 7.33301 33 12s20.334 10.834 29.001 18.501s15.334 18.5 20.001 32.5s6.16699 27 4.5 39s-5.33398 23.333 -11.001 34s-13 20.834 -22 30.501l-27.5 28.5
c-19.333 9.33301 -38.166 14.833 -56.499 16.5s-37.166 2.5 -56.499 2.5c-19.333 -9.33301 -34.333 -18.833 -45 -28.5s-20.667 -19.167 -30 -28.5c-4.66699 -9.33301 -5.33398 -15.666 -2.00098 -18.999s7.83301 -6.16602 13.5 -8.49902s11.334 -5.33301 17.001 -9
s8.5 -10.167 8.5 -19.5c-4.66699 -4.66699 -8.5 -10.334 -11.5 -17.001s-6.33301 -13 -10 -19s-8 -11 -13 -15s-12.167 -6 -21.5 -6c-4.66699 4.66699 -10.334 7.5 -17.001 8.5s-13 2.16699 -19 3.5s-11 3.66602 -15 6.99902s-6 9.66602 -6 18.999c0 14 2 27 6 39
s9 23.333 15 34s12.333 20.834 19 30.501s12.334 19.167 17.001 28.5c23.333 9.33301 49.5 17 78.5 23s57.667 7.66699 86 5s54.666 -10.5 78.999 -23.5s43.5 -33.5 57.5 -61.5zM274.997 145.996c0 -9.33301 -0.832031 -19.499 -2.49902 -30.499
s-7.16699 -25.833 -16.5 -44.5c-9.33301 -9.33301 -22.5 -14.833 -39.5 -16.5s-35.167 -2.5 -54.5 -2.5c-4.66699 9.33301 -9.33398 17.666 -14.001 24.999s-8.66699 14.5 -12 21.5s-6.16602 14.333 -8.49902 22s-3.5 16.167 -3.5 25.5
c9.33301 9.33301 21.666 17.333 36.999 24s30.666 10.5 45.999 11.5s29.333 -1.16699 42 -6.5s21.334 -15 26.001 -29z" />
    <glyph glyph-name="at" unicode="@" horiz-adv-x="724" 
d="M696 386l-12.999 -57.0059c-0.666992 -3.33301 0.333008 -7.33301 3 -12s4 -9.33398 4 -14.001c0 -3.33301 -1 -7.33301 -3 -12l-5 -26c-1.33301 -8.66699 -2.33301 -16.167 -3 -22.5s-2.33398 -12.333 -5.00098 -18s-4.33398 -9.5 -5.00098 -11.5
c-2.66699 -10.667 -4 -20.334 -4 -29.001c0 -4.66699 -0.333008 -8 -1 -10c-4.66699 -4.66699 -7.66699 -8 -9 -10c-6.66699 -7.33301 -10 -11.333 -10 -12c1.33301 -2.66699 2 -5 2 -7c0 -3.33301 -1.66699 -9 -5 -17l-5 -13l-17 -12l-20 2l-25 -10h-30l-26 8l-29 15
l-16 20l-47 47l-40 -38c-14 -8 -31 -12 -51 -12s-37.667 3.83301 -53 11.5s-29.666 19.5 -42.999 35.5c-1.33301 2 -3.66602 6.33301 -6.99902 13s-7 12.167 -11 16.5s-7.83301 9.16602 -11.5 14.499s-7.16699 12 -10.5 20l-5 12c-0.666992 4.66699 -2.5 9 -5.5 13
s-4.5 8.66699 -4.5 14c1.33301 4 2 9.66699 2 17l-2 35c0 4.66699 2.66699 10.167 8 16.5s8.66602 11.5 9.99902 15.5c4 12.667 10.167 26 18.5 40l23.5 41l25 18c6 4 15.667 8.66699 29 14c20 7.33301 30.667 11.333 32 12s4.66602 1 9.99902 1
c4.66699 0 9.83398 -0.333008 15.501 -1l16.5 -2c10.667 0 21.167 -1.66699 31.5 -5s23.833 -12.333 40.5 -27l5 12l20 15l22 1l20 -6l17 -22v-27l-7 -26l7 -30l-12 -17l2 -25l11 -27l-1 -21l-10 -20l3 -19v-30l15 -18l10 -22l23 2c14.667 10 24.334 18.667 29.001 26
c2.66699 2.66699 4.66699 5 6 7c4 6.66699 8.33301 14.334 13 23.001c0.666992 0.666992 2.5 3.5 5.5 8.5s4.5 8.5 4.5 10.5v67c1.33301 2.66699 2.33301 5 3 7s1 4 1 6c0 4.66699 -2 12 -6 22c-0.666992 3.33301 -2.66699 8 -6 14v44
c-0.666992 4.66699 -2.66699 7.66699 -6 9s-5 8.33301 -5 21c-3.33301 2.66699 -5.83301 5.16699 -7.5 7.5s-6.5 7.83301 -14.5 16.5l-13 13l-4 10c-2.66699 5.33301 -6.33398 10.833 -11.001 16.5s-8.83398 10 -12.501 13s-7.5 5.5 -11.5 7.5l-20 12
c-2.66699 3.33301 -4.33398 5.33301 -5.00098 6c-4.66699 5.33301 -8 8.33301 -10 9c-6.66699 2.66699 -13.334 5.5 -20.001 8.5s-14.334 5.5 -23.001 7.5s-16.334 3.66699 -23.001 5c-4 2 -7 3.66699 -9 5c-3.33301 2.66699 -6.66602 4.33398 -9.99902 5.00098
c-10 -1.33301 -17 -1.33301 -21 0l-23.5 4.5c-9 1.66699 -17.833 2.5 -26.5 2.5l-19 1c-2.66699 -0.666992 -4.83398 -2.16699 -6.50098 -4.5s-3.16699 -3.5 -4.5 -3.5c-2 0 -4.66699 0.333008 -8 1s-6.33301 1 -9 1c-4.66699 0 -9 -0.333008 -13 -1
s-12.333 -3.66699 -25 -9l-21 -8l-21 -7l-31 -27l-11 -6c-3.33301 -3.33301 -5.66602 -6.33301 -6.99902 -9s-2.33301 -5.33398 -3 -8.00098c-10.667 -8 -18.167 -15.833 -22.5 -23.5s-6.5 -13.834 -6.5 -18.501v-10l-16 -17v-10c0 -7.33301 -1 -14.666 -3 -21.999l-8 -20
l-3 -21l-4 -20c-1.33301 -6 -2 -9.33301 -2 -10c0 -3.33301 1.66699 -8 5 -14c0.666992 -2 0.666992 -4.33301 0 -7l-10 -46c0 -2 0.833008 -4.33301 2.5 -7s3.16699 -4.66699 4.5 -6c0 -3.33301 -0.666992 -5 -2 -5s-2 -1.66699 -2 -5
c2.66699 -7.33301 4.66699 -12.666 6 -15.999c3.33301 -13.333 8.66602 -26.666 15.999 -39.999l10 -20c2 -2.66699 5.5 -6.66699 10.5 -12s7.83301 -8.33301 8.5 -9c4 -5.33301 8 -9.66602 12 -12.999c1.33301 -1.33301 3.33301 -3 6 -5
c4.66699 -8.66699 9 -15.167 13 -19.5s8.33301 -7.83301 13 -10.5c2 -3.33301 4.33301 -6.33301 7 -9c7.33301 -2 13.333 -3.5 18 -4.5s10 -3.16699 16 -6.5l24 -15c9.33301 -5.33301 15.5 -8.66602 18.5 -9.99902s5.83301 -2 8.5 -2h49
c1.33301 -2.66699 3.33301 -5.33398 6 -8.00098h15c3.33301 1.33301 6 2.5 8 3.5s6.33301 1.66699 13 2s11.334 1 14.001 2s6.66699 1.5 12 1.5s10.333 0.166992 15 0.5s11.667 1.5 21 3.5c4 1.33301 7 -0.333984 9 -5.00098l18 7h17l30 -7h35l32 7l46 -12l19 -17l-2 -35
l-15 -15l-27 -10l-35 2l-36 7l-25 5c-14 1.33301 -24 2.33301 -30 3s-11 0.666992 -15 0c-8 -1.33301 -13 -2 -15 -2c-6 0 -10.667 0.5 -14 1.5s-6 1.83301 -8 2.5c-1.33301 -0.666992 -2.66602 -2 -3.99902 -4c-2.66699 -4 -5.66699 -6 -9 -6h-24
c-9.33301 0 -18.5 0.833008 -27.5 2.5s-20.833 4.16699 -35.5 7.5c-12.667 -1.33301 -21.667 -1.33301 -27 0c-2.66699 0 -6.5 1.66699 -11.5 5s-8.83301 5.33301 -11.5 6l-25 5c-9.33301 2.66699 -19.833 6.5 -31.5 11.5l-23.5 10c-4 1.66699 -9.66699 6.16699 -17 13.5
c-0.666992 1.33301 -2.33398 3.33301 -5.00098 6c-8 5.33301 -14.333 9 -19 11c-8 4.66699 -14.333 9 -19 13s-8.66699 7.66699 -12 11c-6.66699 6.66699 -12.667 15.334 -18 26.001l-5 13c-2.66699 2 -4.66699 3.33301 -6 4l-11 11c-7.33301 9.33301 -12.333 16 -15 20
c-6 6.66699 -9.66699 10.334 -11 11.001c0 15.333 -2 23.833 -6 25.5s-6.66699 5.83398 -8 12.501c-0.666992 4 -1 7.33301 -1 10c0.666992 12 1 22 1 30v15l-8 16c-4.66699 12.667 -7 22.334 -7 29.001c0 2 0.833008 4.66699 2.5 8s2.5 5.66602 2.5 6.99902v84
c0 2 2 6.33301 6 13c1.33301 2 3.33301 5.66699 6 11c8.66699 17.333 16.334 31 23.001 41c2 2 4.66699 5 8 9c1.33301 4.66699 2 8.66699 2 12s2.33301 8.66602 7 15.999l20 27c6 1.33301 10 3 12 5l45 50l21 16c6.66699 5.33301 13.334 10 20.001 14
c2 0.666992 6 1.5 12 2.5s10 1.83301 12 2.5c9.33301 4.66699 19 9 29 13c4.66699 2 10.334 4 17.001 6s13.667 3.33301 21 4s14.333 1 21 1c8.66699 0 13.834 0.5 15.501 1.5s5.66699 1.66699 12 2s11.833 1 16.5 2s8.16699 2 10.5 3s5.83301 1.5 10.5 1.5
c8 0.666992 12.333 1 13 1c0 -1.33301 2.66699 -4.66602 8 -9.99902h60c3.33301 0 8 -1.33301 14 -4c2.66699 -1.33301 9.33398 -5 20.001 -11c8 -4.66699 15 -9 21 -13c2 -1.33301 5.16699 -3.33301 9.5 -6s11 -5.16699 20 -7.5s16.167 -4.5 21.5 -6.5l10 -10
c5.33301 -4 10 -8.33301 14 -13c6 -6.66699 12 -15 18 -25c2.66699 -2 5 -4 7 -6c4.66699 -4 10 -9.33301 16 -16c0.666992 -0.666992 4.33398 -5 11.001 -13c5.33301 -5.33301 9.16602 -9.66602 11.499 -12.999s5 -8.16602 8 -14.499l5.5 -11.5
c5.33301 -9.33301 9.16602 -17.166 11.499 -23.499l8 -22.5l7.5 -22c0 -5.33301 -0.833008 -8 -2.5 -8s-2.5 -2.33301 -2.5 -7l4 -7c3.33301 -4 5 -7 5 -9zM432.001 402.994c-1.33301 2 -3.66992 1.66895 -7.00293 -0.998047s-6 -4 -8 -4c-10.667 0 -21.334 4 -32.001 12
c-12.667 9.33301 -21.667 14.666 -27 15.999l-8 1c-3.33301 0.666992 -6.33301 1.33398 -9 2.00098s-6 1 -10 1l-6 -7c-6 0 -11.333 -1 -16 -3c-2 -0.666992 -4.33301 -2 -7 -4c-11.333 0 -20.166 -2.33301 -26.499 -7s-9.5 -13.334 -9.5 -26.001c0 -4 -1 -11.667 -3 -23
s-3 -20 -3 -26c0 -6.66699 0.166992 -12.834 0.5 -18.501s1.33301 -10.167 3 -13.5s3.83398 -5 6.50098 -5c1.33301 -2 2 -4.66699 2 -8l-1 -12c0 -3.33301 1.5 -7.16602 4.5 -11.499s6.16699 -8.5 9.5 -12.5c8 -10.667 12.667 -16.667 14 -18
c4 -4.66699 12.5 -8.16699 25.5 -10.5s24.167 -3.5 33.5 -3.5c16 0 29.5 2.66699 40.5 8s17.833 14.666 20.5 27.999c0 2.66699 0.166992 5 0.5 7s-0.5 5 -2.5 9l2 29l6 28l4 22l-4 10v28c2.66699 0 4.83398 2 6.50098 6s1.83398 6.33301 0.500977 7z" />
    <glyph glyph-name="A" unicode="A" horiz-adv-x="549" 
d="M328 591l62.499 -277.999l61.5 -278c4.66699 -4.66699 11.667 -7.66699 21 -9s18.833 -2.5 28.5 -3.5s18 -2.5 25 -4.5s10.5 -6.33301 10.5 -13c0 -3.33301 -1 -7 -3 -11c-17.333 0 -36 -2.16699 -56 -6.5s-39.333 -6.5 -58 -6.5c-14 0 -27 2.33301 -39 7
s-22.667 13.667 -32 27c0 4.66699 3.33301 6.83398 10 6.50098s14.167 -0.333008 22.5 0s15.833 2.5 22.5 6.5s10 12.333 10 25c0 6 -1 13.667 -3 23c-5.33301 5.33301 -8.5 11.666 -9.5 18.999s-2.16699 14.833 -3.5 22.5s-3.83301 15.167 -7.5 22.5
s-10.5 13.666 -20.5 18.999c-20.667 0 -41.667 1.5 -63 4.5s-43.666 4.5 -66.999 4.5c-12 0 -24.333 -0.666992 -37 -2s-25.667 -3.66602 -39 -6.99902c-5.33301 -5.33301 -9.5 -12.833 -12.5 -22.5s-5.83301 -20.334 -8.5 -32.001l-8.5 -36
c-3 -12.333 -6.83301 -23.5 -11.5 -33.5c4.66699 -5.33301 10.5 -8.5 17.5 -9.5s13.833 -2.16699 20.5 -3.5s12.167 -3.83301 16.5 -7.5s6.5 -10.5 6.5 -20.5h-164c-2 0 -3.66699 0.333008 -5 1c-2.66699 1.33301 -4 3 -4 5c0 4 3.66699 10 11 18s15.333 12 24 12
c5.33301 0 11 -0.666992 17 -2s11.667 -2 17 -2c6.66699 0 12 2 16 6s6 12 6 24c5.33301 51.333 12.833 100.5 22.5 147.5s20.167 93 31.5 138s23.166 89.667 35.499 134s23.833 89.833 34.5 136.5c14.667 14.667 29.667 22 45 22c12 0 22.833 -4 32.5 -12
s17.834 -18.333 24.501 -31zM307.999 488.001c-5.33301 5.33301 -9.49707 11.6689 -12.4971 19.002s-5.83301 14.833 -8.5 22.5s-5.5 15.167 -8.5 22.5s-6.83301 13.666 -11.5 18.999c-10.667 -31.333 -20.167 -62.333 -28.5 -93s-12.5 -61.667 -12.5 -93l-31.5 -92
l-30.5 -93h82c7.33301 -3.33301 14.166 -5.66602 20.499 -6.99902s13.166 -2 20.499 -2c13.333 0 27 1.5 41 4.5s28 4.5 42 4.5c0 10.667 -0.833008 21 -2.5 31s-7.83398 20.333 -18.501 31c-5.33301 10 -8.5 20.167 -9.5 30.5s-1.5 20.666 -1.5 30.999
s-0.5 20.666 -1.5 30.999s-3.83301 20.5 -8.5 30.5c-10.667 20.667 -16.667 40.5 -18 59.5s-2 33.5 -2 43.5z" />
    <glyph glyph-name="B" unicode="B" horiz-adv-x="617" 
d="M409 649c21.333 -10.667 41.3262 -21.834 59.9932 -33.501s33 -28.167 43 -49.5c20.667 -40 20.667 -81 0 -123c0 -10 -2.16699 -19 -6.5 -27s-9.66602 -15.167 -15.999 -21.5s-13 -12.166 -20 -17.499s-13.167 -10.666 -18.5 -15.999c10 -10 21.167 -20.333 33.5 -31
s24.166 -21.667 35.499 -33s22 -23.666 32 -36.999s17.667 -27.666 23 -42.999c4.66699 -20.667 4.83398 -40 0.500977 -58s-11.666 -35.333 -21.999 -52s-22.666 -32.834 -36.999 -48.501l-44.5 -46.5c-10.667 0 -21.167 -2 -31.5 -6s-20.666 -7.33301 -30.999 -10
s-20.666 -3.33398 -30.999 -2.00098s-20.5 7.33301 -30.5 18c-10.667 -5.33301 -20 -8.5 -28 -9.5s-15.833 -1.5 -23.5 -1.5s-15.667 -0.5 -24 -1.5s-17.5 -4.16699 -27.5 -9.5h-185c-5.33301 5.33301 -9.33301 9.66602 -12 12.999s-4.66699 6.33301 -6 9
s-2.16602 5.33398 -2.49902 8.00098s-0.5 6.66699 -0.5 12c5.33301 10 12.833 14.833 22.5 14.5s20.334 -1.66602 32.001 -3.99902s23.667 -3.66602 36 -3.99902s23.5 4.5 33.5 14.5c-5.33301 46 -7.5 92.167 -6.5 138.5s2.16699 92.666 3.5 138.999
s1.16602 92.666 -0.500977 138.999s-7.5 92.5 -17.5 138.5c-5.33301 0 -12.666 -2 -21.999 -6s-19.833 -7.33301 -31.5 -10s-23.667 -3.33398 -36 -2.00098s-23.5 7.33301 -33.5 18c4.66699 4.66699 8.5 9.5 11.5 14.5s5.83301 9.5 8.5 13.5s5.5 7.16699 8.5 9.5
s7.16699 3.5 12.5 3.5h349zM471.993 505c-3.33301 24 -10.5039 42.1689 -21.5039 54.502s-24.167 21.166 -39.5 26.499s-32.166 8.16602 -50.499 8.49902s-36.833 0.333008 -55.5 0s-36.834 0 -54.501 1s-33.167 5.16699 -46.5 12.5l-21 -21
c10.667 -15.333 16.667 -31.833 18 -49.5s1.33301 -36.167 0 -55.5s-2.5 -39.166 -3.5 -59.499s1.16699 -40.833 6.5 -61.5l144 21c10.667 0 24.334 0.833008 41.001 2.5s30.334 7.5 41.001 17.5s18.834 20.167 24.501 30.5s9.83398 20 12.501 29s4.16699 17.167 4.5 24.5
s0.5 13.666 0.5 18.999zM491.989 238.002c-15.333 25.333 -34.166 44.834 -56.499 58.501s-46.5 23 -72.5 28s-52.667 6.66699 -80 5s-53.666 -4.83398 -78.999 -9.50098v-267c25.333 0 50.666 -1.83301 75.999 -5.5s49.5 -6.16699 72.5 -7.5s44.667 0 65 4
s38.5 13.667 54.5 29c10 15.333 18.667 30.666 26 45.999s12.166 30 14.499 44s2 27.333 -1 40s-9.5 24.334 -19.5 35.001z" />
    <glyph glyph-name="C" unicode="C" horiz-adv-x="531" 
d="M407 576l19.998 19.0049c-5.33301 5.33301 -7.16602 9.5 -5.49902 12.5s4.33398 5.66699 8.00098 8s7.5 5 11.5 8s6 6.83301 6 11.5c10.667 0 20.167 -0.833008 28.5 -2.5s12.5 -7.16699 12.5 -16.5c-5.33301 -15.333 -9.33301 -31.666 -12 -48.999
s-4.5 -34.833 -5.5 -52.5s-1.66699 -35.167 -2 -52.5s-0.5 -33.333 -0.5 -48c0 -10 -1.16699 -16.833 -3.5 -20.5s-5.5 -5.5 -9.5 -5.5s-8.5 0.833008 -13.5 2.5s-9.83301 2.5 -14.5 2.5c-10 10 -15.667 20 -17 30s-1.5 19.333 -0.5 28s2 16.667 3 24
s-0.833008 13.666 -5.5 18.999c-10 20 -24.333 39.5 -43 58.5s-38 33.167 -58 42.5c-15.333 5.33301 -29.333 7.16602 -42 5.49902s-24.834 -5.66699 -36.501 -12s-22.667 -14.333 -33 -24s-20.5 -19.834 -30.5 -30.501c-4.66699 -15.333 -11.5 -29.5 -20.5 -42.5l-26.5 -38
c-8.66699 -12.333 -16.334 -25.166 -23.001 -38.499s-10 -27.333 -10 -42c4.66699 -10 6.5 -20 5.5 -30s-2.16699 -19.333 -3.5 -28s-1.33301 -16.834 0 -24.501s7 -13.834 17 -18.501c0 -5.33301 -1 -9.33301 -3 -12s-4.16699 -5.33398 -6.5 -8.00098s-4.5 -5.5 -6.5 -8.5
s-3 -6.83301 -3 -11.5c4.66699 -10 8.5 -20 11.5 -30s6.5 -19.5 10.5 -28.5s8.83301 -17.167 14.5 -24.5s13.834 -13.333 24.501 -18c0 -10 2.16699 -19 6.5 -27s9.66602 -15.167 15.999 -21.5s12.833 -12.166 19.5 -17.499s12.667 -10.666 18 -15.999
c10 -10 21.167 -16.5 33.5 -19.5s24.666 -3.83301 36.999 -2.5s24.666 4.16602 36.999 8.49902s23.5 8.83301 33.5 13.5c20.667 20.667 39.334 42 56.001 64s25 48 25 78c4.66699 4.66699 8.5 9.5 11.5 14.5s5.83301 9.5 8.5 13.5s5.5 7.16699 8.5 9.5s7.16699 3.5 12.5 3.5
c10 0 19.167 -0.833008 27.5 -2.5s12.5 -7.83398 12.5 -18.501c0 -15.333 -2.16699 -29.5 -6.5 -42.5s-9.66602 -25.833 -15.999 -38.5l-20 -38.5c-7 -13 -13.167 -27.167 -18.5 -42.5c-60 -60 -140.667 -80 -242 -60c-20 4.66699 -37.833 14.167 -53.5 28.5
s-29.834 31 -42.501 50s-24.167 39.333 -34.5 61l-30.5 62.5c-5.33301 25.333 -9.16602 51.666 -11.499 78.999s-2.16602 55 0.500977 83s8 55.667 16 83s19.667 53.666 35 78.999c0 4.66699 2.33301 10.667 7 18s10.667 15.5 18 24.5s15.833 18.5 25.5 28.5l29.5 30
c15.333 0 29.5 2 42.5 6l38.5 11.5c12.667 3.66699 25.5 6.16699 38.5 7.5s27.167 -0.666992 42.5 -6c20.667 -9.33301 36.834 -19.166 48.501 -29.499z" />
    <glyph glyph-name="D" unicode="D" horiz-adv-x="613" 
d="M183 628c4.66699 -5.33301 8.50098 -8.16992 11.501 -8.50293s5.83301 0 8.5 1s5.33398 2.5 8.00098 4.5s6.66699 3 12 3c25.333 0 49.666 -0.333008 72.999 -1s45.166 -2.83398 65.499 -6.50098s39.5 -9.66699 57.5 -18s34.667 -20.166 50 -35.499
c15.333 -5.33301 27.166 -12.666 35.499 -21.999s15 -19.666 20 -30.999s9.16699 -23.166 12.5 -35.499s7.66602 -23.5 12.999 -33.5c10 -36 16.167 -72.667 18.5 -110s0.333008 -73.833 -6 -109.5s-17.166 -69.667 -32.499 -102s-35.666 -61.166 -60.999 -86.499
c-30.667 -20 -63.667 -33.5 -99 -40.5s-71.5 -11.167 -108.5 -12.5s-74.167 -1.83301 -111.5 -1.5s-74 -1.83398 -110 -6.50098c-5.33301 5.33301 -8.33301 10.333 -9 15s-0.333984 9 0.999023 13c1.33301 4.66699 4 9 8 13c0 10 2.16699 16.667 6.5 20s9.83301 5 16.5 5
s13.334 -0.833008 20.001 -2.5s12.667 -2.5 18 -2.5h61c5.33301 25.333 7.33301 49.666 6 72.999s-3.16602 46.5 -5.49902 69.5s-4.33301 46.167 -6 69.5s0.166016 48 5.49902 74v264c-10 5.33301 -23 5.5 -39 0.5s-31.667 -9.33301 -47 -13s-28.5 -4.16699 -39.5 -1.5
s-16.5 14.334 -16.5 35.001c10 10 20.167 15.833 30.5 17.5s20.5 2.5 30.5 2.5h102zM448.001 525.996c-20 10.667 -36.832 21.0029 -50.499 31.0029s-30.834 20 -51.501 30c-10 -5.33301 -21.167 -7.16602 -33.5 -5.49902s-25 3.66699 -38 6s-25.667 4.16602 -38 5.49902
s-23.5 -0.666992 -33.5 -6v-20c0 -35.333 1 -71.833 3 -109.5s3.5 -75 4.5 -112s1.16699 -73 0.5 -108s-3.33398 -67.833 -8.00098 -98.5c4.66699 -10 7.5 -20 8.5 -30s1.5 -19.5 1.5 -28.5s0.333008 -17.333 1 -25s3.66699 -13.834 9 -18.501c10 4.66699 22.5 6.5 37.5 5.5
s30.833 -2 47.5 -3s33.667 -0.833008 51 0.5s33.666 7 48.999 17c4.66699 10 11.667 20.167 21 30.5l27 31c8.66699 10.333 16.334 20.5 23.001 30.5s10 20 10 30c15.333 10 24 22.5 26 37.5s1.83301 30.667 -0.5 47s-5.16602 33.166 -8.49902 50.499
s-2.33301 33.666 3 48.999l-15.5 43l-15 39l-15 38.5c-5 13 -10.167 27.167 -15.5 42.5z" />
    <glyph glyph-name="E" unicode="E" horiz-adv-x="607" 
d="M540 596c0 -15.333 1.99805 -30.3408 5.99805 -45.0078s7.16699 -29 9.5 -43s2.83301 -27.333 1.5 -40s-7 -24 -17 -34c-5.33301 0 -9.33301 0.166992 -12 0.5s-5.33398 1 -8.00098 2s-5.5 2.83301 -8.5 5.5s-7.16699 6.66699 -12.5 12v122h-302l-20 -161
c4.66699 -5.33301 7.5 -10.666 8.5 -15.999s1.5 -11.166 1.5 -17.499s0.333008 -13.5 1 -21.5s3.66699 -17 9 -27c20 -10 44.333 -14.167 73 -12.5s58 12.834 88 33.501c0 4.66699 -1 10.667 -3 18s-3.5 14.833 -4.5 22.5s-1.33301 15 -1 22s3.16602 12.833 8.49902 17.5
c10 -4.66699 17.833 -11.667 23.5 -21s9.83398 -19 12.501 -29s4.16699 -19.667 4.5 -29s0.5 -16.666 0.5 -21.999c-5.33301 -10 -7.5 -21 -6.5 -33s2.16699 -24.333 3.5 -37s1.16602 -25.167 -0.500977 -37.5s-7.5 -23.5 -17.5 -33.5
c-10 4.66699 -16.667 10.834 -20 18.501s-5 15.834 -5 24.501s0.833008 18 2.5 28s2.5 20 2.5 30h-20c-10 0 -21.167 1 -33.5 3s-24.666 3.5 -36.999 4.5s-24.666 1.16699 -36.999 0.5s-23.5 -3.33398 -33.5 -8.00098v-263h283c10 15.333 16.667 30.5 20 45.5
s5.66602 29.333 6.99902 43s2.5 26.834 3.5 39.501s4.16699 24 9.5 34c0 5.33301 1 9.16602 3 11.499s4.33301 4.16602 7 5.49902s6 2.33301 10 3c10 -15.333 15.667 -31.666 17 -48.999s0.833008 -34.666 -1.5 -51.999s-5.5 -34.666 -9.5 -51.999s-6 -33.333 -6 -48
c-5.33301 -10 -12.5 -15.833 -21.5 -17.5s-18.5 -1.83398 -28.5 -0.500977s-19.667 2.5 -29 3.5s-16.666 -1.16699 -21.999 -6.5h-404c0 5.33301 -1 8.33301 -3 9s-3.5 1 -4.5 1s-1.33301 0.5 -1 1.5s3.16602 4.16699 8.49902 9.5c0 10 4.5 15.667 13.5 17
s19.667 1.33301 32 0s25.5 -2.5 39.5 -3.5s26 0.833008 36 5.5c5.33301 4.66699 7.33301 9.66699 6 15s-3.16602 11.333 -5.49902 18s-4.33301 13.834 -6 21.501s0.166016 16.5 5.49902 26.5v465c-10 4.66699 -21 6.5 -33 5.5s-24.333 -2.16699 -37 -3.5
s-25.167 -1.16602 -37.5 0.500977s-23.5 7.5 -33.5 17.5c20.667 10 40.834 15.833 60.501 17.5s39.834 2.5 60.501 2.5h363c5.33301 0 9.5 -0.166992 12.5 -0.5s5.83301 -1 8.5 -2s5.33398 -3 8.00098 -6s6.66699 -6.83301 12 -11.5z" />
    <glyph glyph-name="F" unicode="F" horiz-adv-x="557" 
d="M357 589c14 0 28.1748 0.84082 42.5078 2.50781s28.666 3.16699 42.999 4.5s28.666 1.66602 42.999 0.999023s28.5 -3.33398 42.5 -8.00098c9.33301 -28.667 14.833 -58 16.5 -88s2.5 -64 2.5 -102c-19.333 -19.333 -38.333 -19.333 -57 0
c0 4.66699 -0.166992 10.334 -0.5 17.001s-1 13.667 -2 21s-2.83301 14.333 -5.5 21s-6.33398 12.334 -11.001 17.001c9.33301 0 14.666 2 15.999 6s1.5 9 0.5 15s-2 12.333 -3 19s0.833008 12.334 5.5 17.001l-247 19h-38v-228
c9.33301 -4.66699 18.833 -7.33398 28.5 -8.00098s19.167 -0.333984 28.5 0.999023s18.833 2.83301 28.5 4.5s19.167 2.5 28.5 2.5c9.33301 19.333 14.833 37.666 16.5 54.999s2.5 30.666 2.5 39.999l19 19l19 -19v-247c0 -5.33301 -2 -8.16602 -6 -8.49902
s-8.33301 0.166992 -13 1.5c-6 1.33301 -12.333 3.66602 -19 6.99902c-4.66699 9.33301 -7.33398 17.833 -8.00098 25.5s-0.333984 15 0.999023 22s2.83301 14.333 4.5 22s2.5 16.167 2.5 25.5c-28.667 9.33301 -53.167 14.833 -73.5 16.5s-40.166 2.5 -59.499 2.5v-247
c14 -4.66699 28.833 -4.83398 44.5 -0.500977s30 7.66602 43 9.99902s23.833 1 32.5 -4s13 -19.5 13 -43.5c-9.33301 -4.66699 -20.833 -7.33398 -34.5 -8.00098s-28.334 -0.333984 -44.001 0.999023s-31.5 2.83301 -47.5 4.5s-31 2.5 -45 2.5
c-9.33301 0 -21.666 -1.66699 -36.999 -5s-30.666 -5.66602 -45.999 -6.99902s-29.5 0 -42.5 4s-21.833 13 -26.5 27c9.33301 9.33301 15.666 18 18.999 26s9.66602 12 18.999 12c9.33301 -4.66699 18.833 -9.16699 28.5 -13.5s19.167 -7.66602 28.5 -9.99902
s18.833 -3.33301 28.5 -3s19.167 2.83301 28.5 7.5v513c-14 4.66699 -27.167 6.5 -39.5 5.5s-23.833 -2 -34.5 -3s-20.834 -0.833008 -30.501 0.5s-19.167 6.66602 -28.5 15.999v19c38 9.33301 79.167 14 123.5 14s85.5 -4.66699 123.5 -14
c9.33301 0 17.666 0.833008 24.999 2.5l20 4.5c6 1.33301 11.5 1.66602 16.5 0.999023s9.83301 -3.33398 14.5 -8.00098z" />
    <glyph glyph-name="G" unicode="G" horiz-adv-x="563" 
d="M411 538c0 4.66699 0.166992 10.5039 0.5 17.5039s1.83301 13.667 4.5 20s6.5 11.666 11.5 15.999s12.5 6.5 22.5 6.5c4.66699 -10 6.33398 -19 5.00098 -27s-3.16602 -15.667 -5.49902 -23s-4.16602 -14.833 -5.49902 -22.5s0.666992 -16.167 6 -25.5
c-10 -10 -14.833 -21.667 -14.5 -35s1 -26 2 -38s0.5 -22.333 -1.5 -31s-10.333 -13 -25 -13c-4.66699 4.66699 -7.33398 9.5 -8.00098 14.5s-0.333984 10 0.999023 15s2.83301 9.83301 4.5 14.5s2.5 9.66699 2.5 15c0 9.33301 -2.16699 19.666 -6.5 30.999
s-10.166 22.5 -17.499 33.5s-15.666 21 -24.999 30s-18.666 16.167 -27.999 21.5c-14.667 10 -30.167 15.5 -46.5 16.5s-32.333 -1 -48 -6s-30.5 -12 -44.5 -21s-26 -18.167 -36 -27.5c-14.667 -14.667 -28 -31.5 -40 -50.5s-22.333 -39.5 -31 -61.5
s-15.334 -45 -20.001 -69s-7 -48 -7 -72c10 -5.33301 15.667 -10.5 17 -15.5s1.5 -10.5 0.5 -16.5l-3.5 -20c-1.33301 -7.33301 0.666992 -16 6 -26c10 -9.33301 19.833 -23 29.5 -41s19.167 -36.667 28.5 -56c0 -9.33301 4.16699 -18 12.5 -26s17.166 -12 26.499 -12
c19.333 -20 38.666 -30.833 57.999 -32.5s38.666 2.5 57.999 12.5c14.667 4.66699 29 10.667 43 18s27.167 15.833 39.5 25.5s23.166 20.667 32.499 33s16.333 25.833 21 40.5c-4.66699 9.33301 -7.5 18.833 -8.5 28.5s-1.5 18.667 -1.5 27s-0.333008 16 -1 23
s-3.33398 12.833 -8.00098 17.5c-19.333 0 -38.666 0.833008 -57.999 2.5s-39 7.5 -59 17.5c0 9.33301 3.16699 14.666 9.5 15.999s14.5 1.5 24.5 0.5s20.667 -2 32 -3s22 1.16699 32 6.5h135c2.66699 -4 5 -7.33301 7 -10c1.33301 -2.66699 1.83301 -5 1.5 -7
s-3.16602 -3 -8.49902 -3c-4.66699 -5.33301 -10.5 -8.33301 -17.5 -9s-14 -1 -21 -1s-14 -0.5 -21 -1.5s-12.833 -3.83301 -17.5 -8.5c0 -24 1.16699 -46 3.5 -66s5.16602 -39.167 8.49902 -57.5s7.33301 -36.333 12 -54l15 -55.5
c-5.33301 -4.66699 -9.33301 -9.16699 -12 -13.5s-5.33398 -7.66602 -8.00098 -9.99902s-5.33398 -3.33301 -8.00098 -3s-6.33398 3.16602 -11.001 8.49902c-5.33301 4.66699 -8.33301 10.334 -9 17.001s-1 13.667 -1 21s-0.5 14.5 -1.5 21.5s-3.83301 12.833 -8.5 17.5
c-9.33301 -14.667 -20 -27 -32 -37s-24.5 -18.667 -37.5 -26s-26.667 -13.666 -41 -18.999s-28.833 -10.333 -43.5 -15c-19.333 4.66699 -37.666 9.66699 -54.999 15s-33.166 11.666 -47.499 18.999s-27.666 16 -39.999 26s-23.166 22.333 -32.499 37
c-10 19.333 -19.167 35.5 -27.5 48.5s-12.5 29.167 -12.5 48.5c-9.33301 10 -16.5 21.833 -21.5 35.5s-8 27.834 -9 42.501s-0.5 28.834 1.5 42.501s5.66699 25.167 11 34.5c0 48.667 9.5 95.667 28.5 141s48.167 82.666 87.5 111.999
c14.667 4.66699 30.167 10.167 46.5 16.5s33 10.666 50 12.999s33.667 1.66602 50 -2.00098s31.833 -12.834 46.5 -27.501c4.66699 0 9.5 -2.16699 14.5 -6.5s10 -9 15 -14s10 -9.5 15 -13.5s9.83301 -6 14.5 -6z" />
    <glyph glyph-name="H" unicode="H" horiz-adv-x="624" 
d="M283 584l-0.00683594 -19l-98 -20v-216l19 -20c20 4.66699 39.667 6.5 59 5.5l56.5 -3c18.333 -1 36 -0.833008 53 0.5s33.167 7 48.5 17c4.66699 4.66699 7.33398 11.667 8.00098 21s1 19.5 1 30.5s0.5 22.333 1.5 34s3.83301 22.167 8.5 31.5
c0 4.66699 -0.833008 10.667 -2.5 18s-3.16699 15.333 -4.5 24s-1.66602 17.834 -0.999023 27.501s3.33398 19.5 8.00098 29.5c-4.66699 4.66699 -12.334 6.66699 -23.001 6s-21 -1 -31 -1s-17.833 2 -23.5 6s-6.16699 13.333 -1.5 28c10 4.66699 21 7.5 33 8.5
s24.833 1.5 38.5 1.5s27.667 0.333008 42 1s28.833 3.66699 43.5 9c4.66699 0 10.5 -0.166992 17.5 -0.5s13.667 -1.83301 20 -4.5s11.666 -6.5 15.999 -11.5s6.5 -12.5 6.5 -22.5c-0.666992 -4 -1.66699 -7.33301 -3 -10s-3.16602 -5 -5.49902 -7s-6.16602 -3 -11.499 -3
s-11.333 1 -18 3s-13.667 3.5 -21 4.5s-14.5 1.16699 -21.5 0.5s-12.833 -3.33398 -17.5 -8.00098c-5.33301 -39.333 -6.5 -79.833 -3.5 -121.5s6.33301 -84 10 -127s5.83398 -86.5 6.50098 -130.5s-3.66602 -88 -12.999 -132c4.66699 -5.33301 9.5 -8.33301 14.5 -9
s9.83301 -1 14.5 -1s9.33398 -0.5 14.001 -1.5s9.66699 -3.83301 15 -8.5c0 10 4.16699 15.833 12.5 17.5s17.5 2.5 27.5 2.5c4.66699 -5.33301 7.33398 -10.333 8.00098 -15s0.333984 -9.5 -0.999023 -14.5s-2.83301 -10 -4.5 -15s-2.5 -9.83301 -2.5 -14.5h-217
c-4 4 -7.33301 8 -10 12c-2.66699 3.33301 -4.83398 7.33301 -6.50098 12s-2.5 9.66699 -2.5 15c10 4.66699 18.667 7.33398 26 8.00098s14.166 0.5 20.499 -0.5s12 -2.5 17 -4.5s10.167 -3 15.5 -3c9.33301 50 14.833 95.167 16.5 135.5s2.5 80.5 2.5 120.5
c-4.66699 4.66699 -9.5 7.33398 -14.5 8.00098s-10 0.333984 -15 -0.999023s-10 -2.83301 -15 -4.5s-9.83301 -2.5 -14.5 -2.5c-20 4.66699 -37.667 8.33398 -53 11.001s-30.333 4.5 -45 5.5s-29.834 1.66699 -45.501 2s-33.167 0.5 -52.5 0.5v-275
c9.33301 0 18.833 0.833008 28.5 2.5s18.834 2.5 27.501 2.5s16.5 -1.66699 23.5 -5s13.167 -10 18.5 -20c-0.666992 -4 -1.66699 -7.33301 -3 -10s-3.16602 -4.83398 -5.49902 -6.50098s-6.16602 -2.5 -11.499 -2.5h-197c-4.66699 0 -9.16699 1.16699 -13.5 3.5
s-7.83301 5.16602 -10.5 8.49902s-3.83398 7.33301 -3.50098 12s3.16602 9.66699 8.49902 15c10 10 19.833 14.667 29.5 14s18.667 -2.16699 27 -4.5s16.166 -3.66602 23.499 -3.99902s13.333 4.5 18 14.5c4.66699 39.333 6.5 78.666 5.5 117.999s-2.66699 78.5 -5 117.5
s-4.16602 78.167 -5.49902 117.5s0.333984 78.666 5.00098 117.999c-4.66699 4.66699 -6.5 10.5 -5.5 17.5s2.16699 13.667 3.5 20s1.33301 11.666 0 15.999s-7 6.5 -17 6.5c-20 -10 -35.833 -18.333 -47.5 -25s-22.167 -5 -31.5 5v59h138z" />
    <glyph glyph-name="I" unicode="I" horiz-adv-x="474" 
d="M438 583c8.66699 0 14.3291 -3.32617 16.9961 -9.99316c1.33301 -2.66699 2 -5.66699 2 -9c-9.33301 -10 -18.833 -15.667 -28.5 -17s-18.667 -1.33301 -27 0s-16.166 2.33301 -23.499 3s-13.333 -1.33301 -18 -6c-18.667 10 -34.334 15 -47.001 15s-28.667 -5 -48 -15
c4.66699 -14.667 7.33398 -30.167 8.00098 -46.5s0.333984 -32.833 -0.999023 -49.5s-2.83301 -33.167 -4.5 -49.5s-2.5 -31.833 -2.5 -46.5c4.66699 -5.33301 7.33398 -9.33301 8.00098 -12s0.333984 -5.33398 -0.999023 -8.00098s-2.83301 -5.33398 -4.5 -8.00098
s-2.5 -6.33398 -2.5 -11.001v-270c9.33301 -4.66699 19.833 -7.33398 31.5 -8.00098s24.167 -0.333984 37.5 0.999023s27.166 2.83301 41.499 4.5s28.833 2.5 43.5 2.5h19c9.33301 -10.667 15 -19.334 17 -26.001c1.33301 -4 2 -8 2 -12l-19 -19h-385l-20 19
c-0.666992 6.66699 0 13 2 19c1.33301 4.66699 3.33301 9 6 13s6.66699 6 12 6c29.333 0 58.166 -0.833008 86.499 -2.5s57.166 -7.16699 86.499 -16.5c4.66699 9.33301 6.5 19.833 5.5 31.5s-2.83301 23.5 -5.5 35.5s-4.5 23.833 -5.5 35.5s0.833008 22.5 5.5 32.5
c0 34 -0.833008 66.833 -2.5 98.5s-3.16699 63.167 -4.5 94.5s-1.66602 62.833 -0.999023 94.5s3.33398 64.167 8.00098 97.5h-173c0 4.66699 -2 9.5 -6 14.5s-7.83301 9.16699 -11.5 12.5s-6.16699 6.16602 -7.5 8.49902s0.333984 3.5 5.00098 3.5
c134.667 18.667 269.667 18.667 405 0z" />
    <glyph glyph-name="J" unicode="J" horiz-adv-x="538" 
d="M509 592c10 0 14.9971 -4.16406 14.9971 -12.4971s-5 -17.5 -15 -27.5h-139l19 -219c4.66699 -5.33301 7.33398 -10.5 8.00098 -15.5s0.5 -10.667 -0.5 -17s-2.5 -13.333 -4.5 -21s-3 -16.5 -3 -26.5c0 -20 -0.5 -41.833 -1.5 -65.5s-4 -47.334 -9 -71.001
s-12.833 -46.334 -23.5 -68.001s-26 -39.834 -46 -54.501c-30 -20 -59.667 -30.833 -89 -32.5s-59 2.5 -89 12.5c-15.333 4.66699 -29.333 11.834 -42 21.501s-24 20.834 -34 33.501s-18.667 26.167 -26 40.5s-13.333 28.833 -18 43.5c0 15.333 0.333008 30.166 1 44.499
s2.83398 27.166 6.50098 38.499s9.5 20.333 17.5 27s19.333 10 34 10c10.667 10 20.834 10.833 30.501 2.5s19.834 -22.5 30.501 -42.5c0 -4.66699 -1.16699 -8.5 -3.5 -11.5s-5.5 -5.66699 -9.5 -8s-8.33301 -5 -13 -8s-9.33398 -7.16699 -14.001 -12.5
c-10.667 0 -16.834 -0.833008 -18.501 -2.5s-2.5 -7.16699 -2.5 -16.5c0 -10 1.33301 -21 4 -33s7.16699 -23.5 13.5 -34.5s14.666 -21.333 24.999 -31s22.833 -16.834 37.5 -21.501c20 -10 44 -14.167 72 -12.5s57 12.5 87 32.5c20 50 30.833 99.833 32.5 149.5
s-2.16602 99.5 -11.499 149.5c4.66699 4.66699 7.33398 8.33398 8.00098 11.001s0.333984 5.33398 -0.999023 8.00098s-2.83301 5.5 -4.5 8.5s-2.5 7.16699 -2.5 12.5c0 14.667 0.833008 29.5 2.5 44.5s3.16699 30 4.5 45s1.66602 29.833 0.999023 44.5
s-3.33398 29.667 -8.00098 45c-6.66699 3.33301 -14.334 4.83301 -23.001 4.5s-17.667 -1.5 -27 -3.5l-27.5 -6c-9 -2 -17.667 -2.83301 -26 -2.5s-15.666 2.5 -21.999 6.5s-11.166 11 -14.499 21c10 10 20 16.667 30 20s19.833 5 29.5 5s19.5 -0.833008 29.5 -2.5
s20 -2.5 30 -2.5c20 0 38.833 1 56.5 3s34.667 3.5 51 4.5s32 1.16699 47 0.5s30.167 -3.33398 45.5 -8.00098z" />
    <glyph glyph-name="K" unicode="K" horiz-adv-x="630" 
d="M120 611c10 0 21.0039 0.838867 33.0039 2.50586s24.167 2.5 36.5 2.5s24.5 -1.66699 36.5 -5s22.667 -10 32 -20c4.66699 -9.33301 5.16699 -14.833 1.5 -16.5s-9.66699 -2.5 -18 -2.5s-18.166 -0.833008 -29.499 -2.5s-22 -7.16699 -32 -16.5c0 -10 1 -21 3 -33
s3.5 -24.333 4.5 -37s1.16699 -24.834 0.5 -36.501s-3.33398 -22.5 -8.00098 -32.5c4.66699 -5.33301 6.5 -12.5 5.5 -21.5s-2.83301 -18.5 -5.5 -28.5s-4.66699 -19.667 -6 -29s0.666992 -16.333 6 -21v-40c24.667 24.667 46.167 49.5 64.5 74.5l53.5 74.5l54 74
c18.667 24.667 40.334 49.334 65.001 74.001c-5.33301 0 -11.333 -0.666992 -18 -2s-13 -2 -19 -2s-11.167 1.66699 -15.5 5s-6.5 9.66602 -6.5 18.999c4.66699 4.66699 10.667 7.5 18 8.5s15.333 1.5 24 1.5s17.834 0.333008 27.501 1s19.5 3.66699 29.5 9h99l20 -20
c0 -10 -0.833008 -18.833 -2.5 -26.5s-7.5 -11.5 -17.5 -11.5c-5.33301 0 -11.333 1 -18 3s-13.834 4 -21.501 6l-22 6c-7 2 -12.833 3 -17.5 3c-15.333 -19.333 -29.333 -37.833 -42 -55.5l-37.5 -50.5c-12.333 -16 -25 -31.5 -38 -46.5s-26.833 -29.833 -41.5 -44.5
c0 -10 2.16699 -20 6.5 -30s9.66602 -20 15.999 -30l19.5 -29.5c6.66699 -9.66699 12.667 -19.5 18 -29.5c4.66699 -10 9.5 -21 14.5 -33s10.667 -24.167 17 -36.5s13.333 -24.5 21 -36.5s16.5 -22.667 26.5 -32c0 -5.33301 2 -10.5 6 -15.5l13.5 -17
c5 -6.33301 9.66699 -13.333 14 -21s6.5 -16.5 6.5 -26.5h20c4.66699 0 9.5 1 14.5 3s10 3.5 15 4.5s9.83301 1.16699 14.5 0.5s9.66699 -3.33398 15 -8.00098c10 0 18.333 -4.16699 25 -12.5s5 -17.5 -5 -27.5c-15.333 -10 -31.5 -15.5 -48.5 -16.5
s-34.833 -0.333008 -53.5 2s-37.667 5.33301 -57 9s-39 5.5 -59 5.5v20c4.66699 4.66699 9.5 7.5 14.5 8.5s10 1.5 15 1.5s9.83301 0.333008 14.5 1s9.66699 3.66699 15 9l-119 198c0 10 -1.33301 19.667 -4 29s-6.5 17.666 -11.5 24.999s-11.167 13.333 -18.5 18
s-16 7 -26 7c-9.33301 -14.667 -19.666 -29.667 -30.999 -45s-21.333 -31.666 -30 -48.999s-15 -36 -19 -56s-3.33301 -42.333 2 -67c4.66699 -5.33301 6.5 -11.5 5.5 -18.5l-3 -21.5c-1 -7.33301 -0.833008 -14.666 0.5 -21.999s7 -13.333 17 -18
c19.333 10 34.666 14.167 45.999 12.5s22 -12.5 32 -32.5l-20 -19c-14.667 0 -27.167 0.833008 -37.5 2.5s-20.5 3.16699 -30.5 4.5s-20.5 1.66602 -31.5 0.999023s-23.833 -3.33398 -38.5 -8.00098h-20c-4 -4 -7.33301 -6.66699 -10 -8
c-6 -3.33301 -9 -0.666016 -9 8.00098c-5.33301 0 -11.333 1.16699 -18 3.5s-12.5 5.16602 -17.5 8.49902s-8.33301 7.33301 -10 12s0.166016 9.66699 5.49902 15c3.33301 10 7.66602 16.167 12.999 18.5s11 2.66602 17 0.999023s12.5 -4 19.5 -7s13.5 -4.66699 19.5 -5
s11.667 1.66699 17 6s9.66602 13.166 12.999 26.499l-20 40v376c10 10 15 23.333 15 40s-5 30 -15 40c-5.33301 4.66699 -11.333 5.5 -18 2.5s-13.834 -5.83301 -21.501 -8.5s-15 -3 -22 -1s-12.833 10.333 -17.5 25c0 10 0.833008 19.167 2.5 27.5s7.5 12.5 17.5 12.5
c4.66699 0 9.5 1 14.5 3s10 3.5 15 4.5s9.83301 1.16699 14.5 0.5s9.66699 -3.33398 15 -8.00098z" />
    <glyph glyph-name="L" unicode="L" horiz-adv-x="551" 
d="M309 589c0 4.66699 1.16211 7.33105 3.49512 7.99805s5.16602 0.333984 8.49902 -0.999023s7.33301 -2.83301 12 -4.5s9.33398 -2.5 14.001 -2.5c2.66699 -4 5 -7.33301 7 -10c1.33301 -2.66699 1.83301 -5 1.5 -7s-3.16602 -3 -8.49902 -3l-19 -19h-116
c0 -38.667 1 -78.5 3 -119.5s3.5 -83.333 4.5 -127s1.16699 -88.334 0.5 -134.001s-3.33398 -92.834 -8.00098 -141.501c24 -4.66699 47.167 -6.33398 69.5 -5.00098s44.333 3.16602 66 5.49902s43.667 4 66 5s45.5 -0.833008 69.5 -5.5
c4.66699 0 6.33398 2.16699 5.00098 6.5s-3.16602 9.5 -5.49902 15.5s-4.16602 12.333 -5.49902 19s0.666992 12.334 6 17.001c-5.33301 4.66699 -8.16602 8.5 -8.49902 11.5s0 5.83301 1 8.5s2.5 5.33398 4.5 8.00098s3 6.33398 3 11.001c4.66699 10 5.66699 20.667 3 32
s-4.66699 21.833 -6 31.5s0.333984 17.667 5.00098 24s16.667 9.5 36 9.5c4.66699 0 7.33398 -2.16699 8.00098 -6.5s0.5 -9.5 -0.5 -15.5s-2.5 -12.333 -4.5 -19s-3 -12.334 -3 -17.001c4.66699 -14.667 6.5 -29.167 5.5 -43.5s-2.66699 -28.833 -5 -43.5
s-4.16602 -29.167 -5.49902 -43.5s0.333984 -28.833 5.00098 -43.5h-444c-4.66699 -5.33301 -10.334 -8.16602 -17.001 -8.49902s-13 0.833984 -19 3.50098s-11.167 6.16699 -15.5 10.5s-6.5 8.83301 -6.5 13.5c0 14.667 4.16699 23 12.5 25s17.833 1.66699 28.5 -1l32 -8
c10.667 -2.66699 18.667 -1.66699 24 3c4.66699 0 9.33398 -0.833008 14.001 -2.5s9.5 -3.16699 14.5 -4.5s9.83301 -1.66602 14.5 -0.999023s9.66699 3.33398 15 8.00098v464c0 9.33301 -0.833008 19 -2.5 29s-7.5 19.667 -17.5 29h-116
c-4.66699 10 -6.33398 17.667 -5.00098 23s3.83301 9.83301 7.5 13.5s7.5 7 11.5 10s6 6.83301 6 11.5c19.333 -4.66699 39.666 -7.5 60.999 -8.5s42.833 -1.5 64.5 -1.5s43.167 -0.333008 64.5 -1s41.666 -3.33398 60.999 -8.00098z" />
    <glyph glyph-name="M" unicode="M" horiz-adv-x="611" 
d="M198 568c-5.33301 -10 -5.18555 -19.0068 0.481445 -27.0068s12.167 -15.667 19.5 -23s13.666 -14.833 18.999 -22.5s5.33301 -16.5 0 -26.5c5.33301 -4.66699 7.5 -10.5 6.5 -17.5s-2.16699 -14.167 -3.5 -21.5s-1.16602 -14.5 0.500977 -21.5s7.5 -13.167 17.5 -18.5
c4.66699 -10 8.33398 -21.833 11.001 -35.5l8 -42.5l8 -43c2.66699 -14 6.66699 -26 12 -36c3.33301 -4 6.33301 -6.66699 9 -8s5 -1.66602 7 -0.999023s3 3.66699 3 9c4.66699 4.66699 8.5 11.667 11.5 21s5.83301 19.5 8.5 30.5l8 34
c2.66699 11.667 6.33398 22.5 11.001 32.5c0 14.667 2 28.334 6 41.001s8.5 24.5 13.5 35.5s9.5 21.5 13.5 31.5s6 20 6 30c10 10 16 20.833 18 32.5s3.66699 23 5 34s4 21.167 8 30.5s13.667 16.333 29 21h99c9.33301 0 14.833 -4 16.5 -12s2.5 -17 2.5 -27
c-4.66699 -10 -10.334 -14.833 -17.001 -14.5s-13.167 1.83301 -19.5 4.5s-11.666 4.16699 -15.999 4.5s-6.5 -4.5 -6.5 -14.5v-512c0 -5.33301 0.833008 -8.16602 2.5 -8.49902s3.83398 0.166992 6.50098 1.5s6 3.66602 10 6.99902
c5.33301 5.33301 10.5 8.16602 15.5 8.49902s9.16699 -0.166992 12.5 -1.5c4 -2 8 -4.33301 12 -7c10 -9.33301 15 -15.666 15 -18.999s-5 -10 -15 -20c-10 -4.66699 -18.833 -7.33398 -26.5 -8.00098s-15.167 -0.333984 -22.5 0.999023s-14.833 2.83301 -22.5 4.5
s-16.5 2.5 -26.5 2.5s-18.667 -1.66699 -26 -5s-14.166 -5.66602 -20.499 -6.99902s-12.166 0 -17.499 4s-10.666 13.333 -15.999 28c0 9.33301 0.833008 14.833 2.5 16.5s7.83398 2.5 18.501 2.5c10 0 19 -0.833008 27 -2.5s12 -7.16699 12 -16.5
c4.66699 14.667 7.5 28.334 8.5 41.001s1.5 25.167 1.5 37.5s0.333008 24.833 1 37.5s3.66699 26.334 9 41.001v256l-20 118c-15.333 -24.667 -27.166 -51.334 -35.499 -80.001s-15.666 -58.5 -21.999 -89.5s-12.333 -62.167 -18 -93.5s-13.5 -61.666 -23.5 -90.999
c-9.33301 -10 -19 -15.833 -29 -17.5s-19.667 -2.5 -29 -2.5c-10 10 -16.833 20.833 -20.5 32.5s-6.66699 23.834 -9 36.501s-5.5 24.834 -9.5 36.501s-11 22.5 -21 32.5c-10 38.667 -23.167 77.834 -39.5 117.501s-29.166 79.167 -38.499 118.5v-512
c3.33301 -6.66699 7.5 -10.334 12.5 -11.001s10.167 -0.333984 15.5 0.999023s10.5 3 15.5 5s9.16699 2.66699 12.5 2s5.33301 -3.66699 6 -9s-0.666016 -14.333 -3.99902 -27v-19c-10 6.66699 -21.167 9.83398 -33.5 9.50098s-25.166 -1.66602 -38.499 -3.99902
s-26.666 -5.16602 -39.999 -8.49902s-25.666 -4.5 -36.999 -3.5s-21.166 4.66699 -29.499 11s-14.166 17.833 -17.499 34.5c4.66699 4.66699 9.5 9.16699 14.5 13.5s10 7.83301 15 10.5s9.83301 3.66699 14.5 3s9.66699 -3.33398 15 -8.00098l20 -19
c10 4.66699 15.5 10.5 16.5 17.5s0.333008 14.167 -2 21.5s-5.33301 14.333 -9 21s-5.5 12.667 -5.5 18v453h20c-10 4.66699 -18.833 6.5 -26.5 5.5s-14.667 -2 -21 -3s-12 -0.833008 -17 0.5s-9.83301 7 -14.5 17c-5.33301 4.66699 -8.16602 9.5 -8.49902 14.5
s0.833984 9.16699 3.50098 12.5s6.16699 6.16602 10.5 8.49902s8.83301 3.5 13.5 3.5c10 4.66699 20 6.5 30 5.5s19.833 -2.66699 29.5 -5s19.334 -4.16602 29.001 -5.49902s19.5 0.333984 29.5 5.00098c4.66699 4.66699 8.5 6.33398 11.5 5.00098s5 -4.5 6 -9.5
s1.66699 -10.833 2 -17.5s0.5 -12.334 0.5 -17.001z" />
    <glyph glyph-name="N" unicode="N" horiz-adv-x="592" 
d="M198 611c14.667 -20 27.1768 -40.8262 37.5098 -62.4932s19.833 -43.5 28.5 -65.5l25 -65.5c8 -21.667 17 -42.5 27 -62.5c4.66699 -10 10.5 -20 17.5 -30s13.5 -20.5 19.5 -31.5s11.167 -22.833 15.5 -35.5s6.5 -26.334 6.5 -41.001l29.5 -59.5l29.5 -58.5
c10 29.333 15 55.5 15 78.5s-5 49.5 -15 79.5v256c0 4.66699 1 9.5 3 14.5s3.5 10 4.5 15s1.16699 10 0.5 15s-3.33398 10.167 -8.00098 15.5c-5.33301 0 -11.333 -0.833008 -18 -2.5s-13.834 -2.66699 -21.501 -3s-15 1.16699 -22 4.5s-12.833 10 -17.5 20
c5.33301 0 9.16602 0.833008 11.499 2.5s4.16602 3.83398 5.49902 6.50098s2.33301 6 3 10c14.667 -4.66699 29.5 -6.33398 44.5 -5.00098s29.833 3.16602 44.5 5.49902s29.5 4.16602 44.5 5.49902s29.833 -0.666992 44.5 -6c0 -8.66699 3 -14.334 9 -17.001
c2.66699 -1.33301 6 -2 10 -2c-4.66699 -15.333 -10.5 -24 -17.5 -26s-14.167 -2.5 -21.5 -1.5s-14.5 1.66699 -21.5 2s-12.833 -4.5 -17.5 -14.5c0 -40 -0.833008 -83.667 -2.5 -131s-7.5 -95.666 -17.5 -144.999c4.66699 -20 8.5 -41.833 11.5 -65.5s5 -47.834 6 -72.501
s1.66699 -49 2 -73s0.5 -46 0.5 -66c-5.33301 -4.66699 -10.5 -7.5 -15.5 -8.5s-10 -1.5 -15 -1.5s-10 -0.333008 -15 -1s-9.83301 -3.33398 -14.5 -8.00098c-19.333 40 -35.666 82.833 -48.999 128.5s-29.666 88.5 -48.999 128.5c0 14.667 -4.16699 28.5 -12.5 41.5
s-17.333 26.167 -27 39.5s-18.667 27.666 -27 42.999s-12.5 33 -12.5 53c-10 10 -17.833 21.167 -23.5 33.5s-11 25.166 -16 38.499l-16 42c-5.66699 14.667 -13.5 29.667 -23.5 45h-20c0 -44.667 1 -89.334 3 -134.001s3.5 -89.834 4.5 -135.501s1.16699 -92 0.5 -139
s-3.33398 -95.167 -8.00098 -144.5h79c5.33301 0 8.16602 -1.16699 8.49902 -3.5s-0.166992 -4.83301 -1.5 -7.5c-2 -2.66699 -4.33301 -6 -7 -10c-14.667 -4.66699 -29.334 -7.5 -44.001 -8.5s-29.5 -1.5 -44.5 -1.5s-29.833 -0.333008 -44.5 -1
s-29.334 -3.33398 -44.001 -8.00098c-5.33301 0 -9.5 0.166992 -12.5 0.5s-5.83301 1 -8.5 2s-5.33398 2.83301 -8.00098 5.5l-11 11l19 41c5.33301 4.66699 11.5 6.33398 18.5 5.00098s14.167 -3.16602 21.5 -5.49902s14.5 -4.16602 21.5 -5.49902s13.167 0.666992 18.5 6
v315c-5.33301 20 -7.33301 39.667 -6 59s3.16602 38.333 5.49902 57s4.16602 36.5 5.49902 53.5s-0.333984 33.167 -5.00098 48.5c-10 4.66699 -18.833 5.5 -26.5 2.5s-14.5 -5.83301 -20.5 -8.5s-11.667 -3 -17 -1s-10.666 10.667 -15.999 26c0 14.667 3.33301 23 10 25
s15 1.83301 25 -0.5s20.833 -5 32.5 -8s22.5 -2.16699 32.5 2.5c0 -4.66699 1.16699 -7.5 3.5 -8.5s5.16602 -1.5 8.49902 -1.5s7.33301 -0.333008 12 -1s9.66699 -3.33398 15 -8.00098c0 8.66699 3.33301 14.334 10 17.001c2.66699 1.33301 6 2 10 2z" />
    <glyph glyph-name="O" unicode="O" horiz-adv-x="537" 
d="M395 579c24.667 -19.333 44.5029 -43.1709 59.5029 -71.5039s26.833 -59 35.5 -92s14.5 -67.5 17.5 -103.5s4.5 -71 4.5 -105l-33.5 -63.5c-12.333 -23 -26.5 -44.833 -42.5 -65.5s-33.833 -39 -53.5 -55s-41.834 -26.333 -66.501 -31
c-97.333 -20 -175.333 19.333 -234 118c0 9.33301 -2.16699 18 -6.5 26s-9 16.167 -14 24.5s-9.5 17.833 -13.5 28.5s-6 23.334 -6 38.001c-4.66699 29.333 -5.83398 59.5 -3.50098 90.5s7.66602 61.833 15.999 92.5s19.833 60.334 34.5 89.001s31.667 55.334 51 80.001
c10 0 18.833 2 26.5 6s15.167 8.5 22.5 13.5s14.833 9.5 22.5 13.5s16.5 6 26.5 6c30 0 58.667 -1.66699 86 -5s51 -14.666 71 -33.999zM376.003 539.995c-10 10 -22.166 17.5 -36.499 22.5s-29.5 8 -45.5 9s-32.167 0.333008 -48.5 -2s-31.833 -5.83301 -46.5 -10.5
l-32 -33c-11.333 -12 -21.833 -24.667 -31.5 -38s-17.834 -27.166 -24.501 -41.499s-10 -28.833 -10 -43.5c-9.33301 -20 -14.833 -43 -16.5 -69s-2.5 -49 -2.5 -69c0 -14.667 3.16699 -30.334 9.5 -47.001s14.5 -33.5 24.5 -50.5s20.667 -33.833 32 -50.5l32 -47
c19.333 -19.333 42.833 -29.833 70.5 -31.5s56.167 2.16602 85.5 11.499c24.667 14.667 45.667 33.834 63 57.501s31.5 49.5 42.5 77.5s19 57.333 24 88s7.5 60.667 7.5 90c-10 20 -19.833 43 -29.5 69s-19.5 49 -29.5 69z" />
    <glyph glyph-name="P" unicode="P" horiz-adv-x="580" 
d="M314 622c14.667 5.33301 28.3291 7.3291 40.9961 5.99609s25.334 -3.83301 38.001 -7.5l38 -11.5c12.667 -4 26.334 -6 41.001 -6c30 -30 53 -64.5 69 -103.5s19.333 -82.833 10 -131.5c-10 -20 -24.167 -39.167 -42.5 -57.5s-37.166 -32.166 -56.499 -41.499
c-14.667 -10 -32.5 -15.5 -53.5 -16.5s-43.167 -0.333008 -66.5 2s-46.666 5.33301 -69.999 9s-45 5.5 -65 5.5c20 -78.667 20 -157 0 -235c14.667 0 29.167 1.83301 43.5 5.5s28.333 6.66699 42 9s26.5 2.83301 38.5 1.5s23 -6.66602 33 -15.999c0 -10.667 -4 -20 -12 -28
s-17.333 -12 -28 -12c-24 4.66699 -47.333 7.33398 -70 8.00098s-45 0.333984 -67 -0.999023s-44.333 -2.83301 -67 -4.5s-46.334 -2.5 -71.001 -2.5v59c5.33301 10 12.666 14.667 21.999 14s19.5 -2.83398 30.5 -6.50098s22.167 -7 33.5 -10s22 -2.16699 32 2.5
c0 9.33301 -0.833008 19 -2.5 29s-7.16699 20 -16.5 30c0 20 0.166992 41.833 0.5 65.5s1 47.834 2 72.501s2.83301 48.834 5.5 72.501s6.33398 45.167 11.001 64.5c-4.66699 4.66699 -7.33398 9.5 -8.00098 14.5s-0.333984 10 0.999023 15s2.83301 9.83301 4.5 14.5
s2.5 9.66699 2.5 15c0 10 -0.833008 19.833 -2.5 29.5s-3.16699 19.5 -4.5 29.5s-1.66602 19.833 -0.999023 29.5s3.33398 19.5 8.00098 29.5c-6.66699 6.66699 -14.5 10 -23.5 10s-18.5 -1.16699 -28.5 -3.5l-29 -7c-9.33301 -2.33301 -17.166 -2.33301 -23.499 0
s-11 7.83301 -14 16.5s-2.83301 22.667 0.5 42c10 10 21.167 14.667 33.5 14s25.166 -2.83398 38.499 -6.50098s27.333 -7 42 -10s29.334 -2.16699 44.001 2.5h117zM490.995 464.996c-3.33301 22.667 -10.167 41.001 -20.5 55.001s-22.833 24.833 -37.5 32.5
s-31.167 13 -49.5 16s-37.166 5.16699 -56.499 6.5s-38.5 2.33301 -57.5 3s-36.5 2.66699 -52.5 6c0 -20 -0.166992 -42.833 -0.5 -68.5s-1 -52 -2 -79s-3 -53.5 -6 -79.5s-6.83301 -49 -11.5 -69h20c30 0 59.5 3.5 88.5 10.5s58.5 10.5 88.5 10.5
c19.333 0 38 4.83301 56 14.5s31.667 24.5 41 44.5c0 9.33301 1 18.833 3 28.5s3.5 18.667 4.5 27s1.16699 16.166 0.5 23.499s-3.33398 13.333 -8.00098 18z" />
    <glyph glyph-name="Q" unicode="Q" horiz-adv-x="576" 
d="M172 599c8.66699 0 14.3271 3.32812 16.9941 9.99512c1.33301 2.66699 2 6.33398 2 11.001c5.33301 -5.33301 10.5 -8.33301 15.5 -9s10 -0.333984 15 0.999023s9.83301 3 14.5 5s9.66699 3 15 3c15.333 -5.33301 31.5 -9.66602 48.5 -12.999s34.333 -7.5 52 -12.5
s35 -11.667 52 -20s32.833 -19.833 47.5 -34.5c20.667 -40 35.834 -80.667 45.501 -122s14.5 -87 14.5 -137c0 -20 -2.33301 -39 -7 -57s-10.667 -35.667 -18 -53s-15.833 -35 -25.5 -53l-29.5 -57c-4.66699 -5.33301 -9.5 -9.66602 -14.5 -12.999l-15 -10.5
c-5 -3.66699 -10 -8.16699 -15 -13.5s-10.167 -13 -15.5 -23c0 -15.333 0.166992 -30.166 0.5 -44.499s1.83301 -27.833 4.5 -40.5s6.83398 -23.834 12.501 -33.501s13.5 -16.834 23.5 -21.501c4.66699 0 9.5 -1 14.5 -3s10 -3.66699 15 -5s9.83301 -1.66602 14.5 -0.999023
s9.66699 3.66699 15 9l-20 40h41c0 10.667 0.833008 20.834 2.5 30.501s7.16699 19.5 16.5 29.5c20 0 30.833 -8.16699 32.5 -24.5s-2.16602 -34.833 -11.499 -55.5c0 -10 -2.16699 -18.833 -6.5 -26.5s-9.66602 -14.667 -15.999 -21s-13 -12 -20 -17
s-13.167 -10.167 -18.5 -15.5c-30 0 -55 5.83301 -75 17.5s-34.667 32.5 -44 62.5c-5.33301 4.66699 -9.33301 11.667 -12 21s-4.5 19 -5.5 29s-1.66699 19.5 -2 28.5s-0.5 16.167 -0.5 21.5c-25.333 0 -50.166 1.5 -74.499 4.5s-47.166 9 -68.499 18
s-40.5 21.167 -57.5 36.5s-30.5 35.666 -40.5 60.999l-27 60c-8.66699 20 -13 39.667 -13 59c-10 10.667 -16.5 22.167 -19.5 34.5s-4.33301 25.333 -4 39s1.33301 27.834 3 42.501s2.5 29.667 2.5 45l29 59c10 20 19.667 40.333 29 61
c5.33301 4.66699 8.33301 9.33398 9 14.001s1 8.83398 1 12.501s0.5 6.66699 1.5 9s4.16699 3.5 9.5 3.5c10 10 19.167 20 27.5 30s12.5 19.667 12.5 29c0 5.33301 1 9.33301 3 12s4.33301 4.66699 7 6c2.66699 2 6 3 10 3v-21zM311.993 100.995
c0 10 -3.33203 17.832 -9.99902 23.499s-14.334 10.334 -23.001 14.001s-17.667 7 -27 10s-16.333 7.16699 -21 12.5c-20 -10 -35.667 -24.167 -47 -42.5s-22 -37.5 -32 -57.5c4.66699 -5.33301 9.5 -9.5 14.5 -12.5s10 -5.83301 15 -8.5l15 -8
c5 -2.66699 10.167 -6.33398 15.5 -11.001c4.66699 4.66699 9.5 6.33398 14.5 5.00098s10.667 -3.16602 17 -5.49902s13.333 -4.16602 21 -5.49902s16.5 0.666992 26.5 6c10 4.66699 16.833 10.5 20.5 17.5s5.5 14.167 5.5 21.5s-0.833008 14.666 -2.5 21.999
s-2.5 13.666 -2.5 18.999zM430.994 480.994c-19.333 10 -34.998 23.168 -46.998 39.501s-22.667 29.5 -32 39.5c-15.333 4.66699 -31.5 8.16699 -48.5 10.5s-33.5 3 -49.5 2s-31.167 -4.16699 -45.5 -9.5s-26.5 -13 -36.5 -23
c-5.33301 -5.33301 -9.33301 -11.166 -12 -17.499s-5.33398 -12 -8.00098 -17s-5.5 -8.33301 -8.5 -10s-6.83301 0.166016 -11.5 5.49902v-41c-10 -15.333 -19.833 -32.5 -29.5 -51.5s-17.667 -39.167 -24 -60.5s-10.333 -43 -12 -65s0.166016 -43 5.49902 -63
c4.66699 -10 8.5 -19.833 11.5 -29.5s6.33301 -18.667 10 -27s8.5 -16.166 14.5 -23.499s14 -13.333 24 -18c0 10 2.16699 17.833 6.5 23.5s9.66602 11 15.999 16l19.5 16c6.66699 5.66699 12.334 13.5 17.001 23.5c10 -5.33301 19.833 -7.5 29.5 -6.5s19 2.16699 28 3.5
s17 1.33301 24 0s13.167 -7 18.5 -17c20 0 33.667 -4.33301 41 -13s13 -18.667 17 -30s8.33301 -22.5 13 -33.5s14.667 -19.167 30 -24.5c0 5.33301 2 10.666 6 15.999s8.5 10.5 13.5 15.5s9.5 10 13.5 15s6 9.83301 6 14.5c4.66699 4.66699 6.66699 10.5 6 17.5
s-1.66699 13.667 -3 20s-1.33301 11.666 0 15.999s7 6.5 17 6.5c4.66699 20 8.16699 42 10.5 66s3 48.5 2 73.5s-4.16699 49.667 -9.5 74s-13 46.5 -23 66.5z" />
    <glyph glyph-name="R" unicode="R" horiz-adv-x="608" 
d="M525 531c10 -14.667 16.5 -30.502 19.5 -47.502s4 -34 3 -51s-3.83301 -34 -8.5 -51s-9.33398 -32.833 -14.001 -47.5c-10 -5.33301 -19 -11.333 -27 -18s-16.167 -13 -24.5 -19s-17.833 -11.167 -28.5 -15.5s-23.334 -6.5 -38.001 -6.5v-20l17.5 -18
c7 -7.33301 14.167 -15.333 21.5 -24s14.5 -17.834 21.5 -27.501s13.167 -19.5 18.5 -29.5v-117c10 -5.33301 19.833 -6.33301 29.5 -3s18.834 6.83301 27.501 10.5s16.5 5.83398 23.5 6.50098s13.167 -4 18.5 -14c0 -20 -4.16699 -35 -12.5 -45s-17.5 -15 -27.5 -15
s-24 0.833008 -42 2.5s-37 7.5 -57 17.5c-10 10 -15.667 21 -17 33s-1.33301 24.833 0 38.5s2.33301 27.667 3 42s-1.33301 28.833 -6 43.5c-10 4.66699 -17.833 11.5 -23.5 20.5s-11.667 18 -18 27s-13.666 16.667 -21.999 23s-19.833 9.5 -34.5 9.5
c-4.66699 10 -11.667 15.667 -21 17s-19.5 2 -30.5 2s-22.333 0.833008 -34 2.5s-22.5 7.5 -32.5 17.5v-236h99c9.33301 0 14 -4.16699 14 -12.5s-4.66699 -17.5 -14 -27.5c-20 -20 -40 -20 -60 0c-14.667 0 -29.5 -1 -44.5 -3s-30.5 -3.5 -46.5 -4.5
s-32.667 -1.33301 -50 -1s-35.666 3.16602 -54.999 8.49902c-5.33301 0 -8.16602 1.16699 -8.49902 3.5s0 5.33301 1 9s2.5 7.83398 4.5 12.501s3 9.66699 3 15h117c-4.66699 44 -7.33398 88.167 -8.00098 132.5s-0.333984 88 0.999023 131s2.83301 85.333 4.5 127
s2.5 82.167 2.5 121.5c-6.66699 6.66699 -15 10.334 -25 11.001s-20.5 0.5 -31.5 -0.5s-21.5 -2.16699 -31.5 -3.5s-18.333 -0.833008 -25 1.5s-10.667 7.16602 -12 14.499s1.33398 19 8.00098 35h19c29.333 0 59.833 1.83301 91.5 5.5s63.5 6.83398 95.5 9.50098
s63.833 3.33398 95.5 2.00098s62.167 -7 91.5 -17c4.66699 -10 10.667 -18.667 18 -26s14.666 -14 21.999 -20l21.5 -17c7 -5.33301 12.833 -10.333 17.5 -15zM466 511.998c-5.33301 10 -12.498 17.667 -21.498 23s-19 9.83301 -30 13.5s-22.333 7 -34 10
s-22.5 6.83301 -32.5 11.5c-10 -4.66699 -20.833 -6.5 -32.5 -5.5s-23.834 2.16699 -36.501 3.5s-24.834 1.33301 -36.501 0s-22.5 -7 -32.5 -17v-256h79c14.667 4.66699 31.334 7.66699 50.001 9s37.167 3.83301 55.5 7.5s35.666 10 51.999 19s29.5 23.167 39.5 42.5
c0 20 -0.833008 43.167 -2.5 69.5s-7.5 49.5 -17.5 69.5z" />
    <glyph glyph-name="S" unicode="S" horiz-adv-x="537" 
d="M412 564c4.66699 5.33301 8.50195 11.6611 11.502 18.9941l8.5 20.5c2.66699 6.33301 5.5 11.833 8.5 16.5s7.16699 7 12.5 7c10 -5.33301 16.667 -10.666 20 -15.999s5 -10.666 5 -15.999s-0.833008 -10.5 -2.5 -15.5s-2.5 -10.167 -2.5 -15.5
c-10 -20.667 -15.833 -42 -17.5 -64s-2.5 -48.333 -2.5 -79h-41c-10.667 10 -16.834 20 -18.501 30s-2.5 19.5 -2.5 28.5s-0.833008 17.167 -2.5 24.5s-7.83398 13.666 -18.501 18.999c0 5.33301 -2.16699 11.5 -6.5 18.5s-9.83301 13.833 -16.5 20.5
s-13.5 12.167 -20.5 16.5s-13.167 6.5 -18.5 6.5c-20.667 10 -41 11.667 -61 5s-40.333 -15.334 -61 -26.001c-10.667 -5.33301 -18.834 -11.666 -24.501 -18.999s-10.5 -15.5 -14.5 -24.5s-7.66699 -18.5 -11 -28.5s-7.66602 -20 -12.999 -30c0 -20.667 6 -41.167 18 -61.5
s33.667 -41.166 65 -62.499c20.667 0 42.167 -0.333008 64.5 -1s44.333 -2.83398 66 -6.50098s42.5 -9.66699 62.5 -18s38 -20.166 54 -35.499c20 -20.667 34.333 -45.334 43 -74.001s7.66699 -58.667 -3 -90c0 -21.333 -8.33301 -41.333 -25 -60s-35.334 -33 -56.001 -43
c-16 -10 -33.833 -17.667 -53.5 -23s-39.834 -8 -60.501 -8s-40.667 2.66699 -60 8s-36.666 13 -51.999 23l-83 61c-10 -5.33301 -17 -13.5 -21 -24.5s-7.33301 -21.5 -10 -31.5s-6 -18.167 -10 -24.5s-11 -6.83301 -21 -1.5c-10 0 -15.833 0.833008 -17.5 2.5
s-2.5 7.83398 -2.5 18.501c10 15.333 16.833 32.833 20.5 52.5s6.16699 39.834 7.5 60.501s2.5 40.834 3.5 60.501s4.16699 37.167 9.5 52.5c10 0 16.833 -3.33301 20.5 -10s6.16699 -14.5 7.5 -23.5s2.5 -18 3.5 -27s4.16699 -16.167 9.5 -21.5
c20.667 -31.333 41.334 -57.166 62.001 -77.499s41.334 -35.833 62.001 -46.5c15.333 0 30.5 -0.833008 45.5 -2.5s29.5 -2.5 43.5 -2.5s27.333 1.83301 40 5.5s24 10.5 34 20.5c42 40.667 63 82 63 124c-10.667 20 -21.834 39.333 -33.501 58s-28.167 33.334 -49.5 44.001
c-26 4.66699 -53.667 9 -83 13s-57.5 10.5 -84.5 19.5s-51.333 22 -73 39s-37.5 41.167 -47.5 72.5c0 20.667 1.5 41 4.5 61s8.5 39 16.5 57s18.667 34.5 32 49.5s30.333 27.833 51 38.5c4.66699 0 10.834 1 18.501 3s16 3.5 25 4.5s18.5 1.16699 28.5 0.5
s20 -3.33398 30 -8.00098c10 -5.33301 21.167 -8.66602 33.5 -9.99902s24.166 -3.33301 35.499 -6s22 -7.16699 32 -13.5s17.667 -17.5 23 -33.5z" />
    <glyph glyph-name="T" unicode="T" horiz-adv-x="579" 
d="M536 615c4.66699 -10.667 7.49609 -24.502 8.49609 -41.502s1.5 -35.333 1.5 -55s0.333008 -39.334 1 -59.001s3.66699 -37.167 9 -52.5c0 -5.33301 -0.166992 -11.666 -0.5 -18.999s-1 -15 -2 -23s-3 -15.667 -6 -23s-6.83301 -13.333 -11.5 -18
c-5.33301 0 -10.5 1 -15.5 3s-9.5 4.33301 -13.5 7c-4.66699 2.66699 -9 6 -13 10c5.33301 20.667 7.33301 41.334 6 62.001s-3.33301 40.667 -6 60s-4.66699 38 -6 56s0.666992 35 6 51c-10 4.66699 -21.5 7.33398 -34.5 8.00098s-26.667 0.5 -41 -0.5
s-29.166 -2.5 -44.499 -4.5s-30.666 -3 -45.999 -3c-5.33301 -10 -8.33301 -20.167 -9 -30.5s-1 -20.833 -1 -31.5s-0.5 -21.167 -1.5 -31.5s-3.83301 -20.833 -8.5 -31.5c4.66699 -20.667 7.5 -40.334 8.5 -59.001s1.5 -37.167 1.5 -55.5s0.333008 -36.666 1 -54.999
s3.66699 -37.833 9 -58.5c-5.33301 -15.333 -8.33301 -30.833 -9 -46.5s-1 -32 -1 -49s-0.5 -34.667 -1.5 -53s-3.83301 -37.833 -8.5 -58.5c10 0 21.167 1 33.5 3s25 4.33301 38 7s25.833 5 38.5 7s24.334 3 35.001 3c4.66699 -5.33301 9.5 -9.33301 14.5 -12
s9.5 -5.33398 13.5 -8.00098s7.16699 -5.66699 9.5 -9s3.5 -7.66602 3.5 -12.999l-21 -20h-353c-5.33301 4.66699 -9.33301 8.5 -12 11.5s-4.5 5.83301 -5.5 8.5s-1.66699 5.66699 -2 9s-0.5 7.66602 -0.5 12.999h166c5.33301 0 8.33301 2.16699 9 6.5s1 9.83301 1 16.5
s0.5 13.334 1.5 20.001s4.16699 12.667 9.5 18h-21v499h-166c0 -42 -0.833008 -82.667 -2.5 -122s-7.83398 -75 -18.501 -107c0 -9.33301 -3.33301 -15.333 -10 -18c-2.66699 -2 -6 -2.66699 -10 -2c-10.667 4.66699 -16.667 10.667 -18 18s-0.666016 15 2.00098 23
s6 15.667 10 23s6 13.666 6 18.999c-5.33301 15.333 -8.33301 31.833 -9 49.5s-0.333984 35.667 0.999023 54s3 36.333 5 54s3 34.5 3 50.5c20.667 4.66699 41.334 7.33398 62.001 8.00098s41.5 0.5 62.5 -0.5s41.833 -2.5 62.5 -4.5s41.334 -3 62.001 -3h228z" />
    <glyph glyph-name="U" unicode="U" horiz-adv-x="564" 
d="M253 611l-0.00292969 -19.9922c-4.66699 -10 -10.667 -15.667 -18 -17s-15.166 -1.33301 -23.499 0s-17.333 2.5 -27 3.5s-19.5 -0.833008 -29.5 -5.5v-197c10 -10 15 -23.167 15 -39.5s-5 -29.5 -15 -39.5c3.33301 -16.667 5.33301 -33.5 6 -50.5
s1.16699 -33.833 1.5 -50.5s1.16602 -32.834 2.49902 -48.501s4.5 -30.334 9.5 -44.001s12.167 -25.834 21.5 -36.501s22 -19.334 38 -26.001c10 -5.33301 19.833 -8.16602 29.5 -8.49902s19.334 0 29.001 1s19.334 2.5 29.001 4.5s19.5 3 29.5 3
c10 4.66699 17.833 9.66699 23.5 15s10.334 11 14.001 17s7 12.833 10 20.5s7.16699 16.5 12.5 26.5v236c0 14.667 -1 31.5 -3 50.5s-3.5 38.333 -4.5 58s-1.33301 38.834 -1 57.501s3.16602 35.667 8.49902 51h-79c0 4.66699 -1 8.33398 -3 11.001
s-4.33301 5.33398 -7 8.00098s-5 5.33398 -7 8.00098s-3 6.66699 -3 12c4.66699 4.66699 9.5 7.33398 14.5 8.00098s10 0.5 15 -0.5s10 -2.5 15 -4.5s10.167 -3 15.5 -3h176c0 -5.33301 -0.166992 -9.33301 -0.5 -12s-1 -5.33398 -2 -8.00098s-3 -5.33398 -6 -8.00098
s-6.83301 -6.33398 -11.5 -11.001c-4.66699 0 -10.5 0.833008 -17.5 2.5s-14.167 3.16699 -21.5 4.5s-14.5 1.66602 -21.5 0.999023s-12.833 -3.33398 -17.5 -8.00098v-453c-9.33301 -30 -24.833 -58 -46.5 -84s-52.167 -44 -91.5 -54c-29.333 0 -55.5 4.16699 -78.5 12.5
s-49.167 17.166 -78.5 26.499c-9.33301 19.333 -18.333 39.166 -27 59.499s-13 40.166 -13 59.499v353c0 4.66699 1 10.667 3 18s3.66699 14.666 5 21.999s1.66602 14.5 0.999023 21.5s-3.66699 13.167 -9 18.5c-10 4.66699 -19.667 5.5 -29 2.5s-18.333 -6.33301 -27 -10
s-16.667 -5.83398 -24 -6.50098s-13.333 4 -18 14c0 10 1.16699 17.5 3.5 22.5s5.33301 8.83301 9 11.5s7.83398 4.16699 12.501 4.5s9.33398 0.5 14.001 0.5h197z" />
    <glyph glyph-name="V" unicode="V" horiz-adv-x="544" 
d="M215 574c0 -9.33301 -3.00391 -14.8359 -9.00391 -16.5029s-13 -2.5 -21 -2.5s-16.167 -0.666992 -24.5 -2s-14.833 -6.66602 -19.5 -15.999c0 -9.33301 3.83301 -18.666 11.5 -27.999s16.167 -18.666 25.5 -27.999c0 -37.333 4 -72.833 12 -106.5
s17.167 -66.834 27.5 -99.501l31 -99c10.333 -33.333 17.833 -68.666 22.5 -105.999v-19c9.33301 19.333 15.666 38.166 18.999 56.499s9.66602 36.833 18.999 55.5c4.66699 14 8.33398 28.833 11.001 44.5s5.16699 31.167 7.5 46.5s4.83301 29.666 7.5 42.999
s6.33398 24.666 11.001 33.999c4.66699 23.333 9.33398 44.666 14.001 63.999l14 55.5l14 51.5c4.66699 16.667 9.33398 34.334 14.001 53.001c-9.33301 0 -17.5 -0.666992 -24.5 -2s-13.5 -2 -19.5 -2s-11.5 1.5 -16.5 4.5s-9.83301 9.16699 -14.5 18.5
c0 9.33301 0.833008 17.833 2.5 25.5s7.16699 11.5 16.5 11.5c14 -4.66699 28.167 -7.16699 42.5 -7.5s29 0 44 1s30.833 2.33301 47.5 4s34.334 2.5 53.001 2.5c0 -4.66699 -0.166992 -11.167 -0.5 -19.5s-1.66602 -16.5 -3.99902 -24.5s-6.16602 -15 -11.499 -21
s-12.666 -9 -21.999 -9c-18 18 -36.667 18 -56 0l-28 -140.5l-28 -139.5l-28 -112.5l-28 -111.5c-9.33301 -9.33301 -18.666 -18 -27.999 -26s-18.666 -12 -27.999 -12c-18.667 4.66699 -32.167 13.5 -40.5 26.5s-14.833 27.667 -19.5 44s-9 33.166 -13 50.499
s-10.667 33 -20 47c0 18.667 -2 36.334 -6 53.001s-8.16699 32.5 -12.5 47.5l-12.5 44c-4 14.333 -6 28.5 -6 42.5c0 38 -4 71.667 -12 101s-16.667 58 -26 86c0 9.33301 -3.83301 14.666 -11.5 15.999s-16.167 2 -25.5 2c-4.66699 -4.66699 -8.33398 -7.16699 -11.001 -7.5
s-5.16699 0 -7.5 1s-4.83301 2.33301 -7.5 4s-6.33398 2.5 -11.001 2.5c-4.66699 4.66699 -7.33398 8.33398 -8.00098 11.001s-0.333984 5.33398 0.999023 8.00098s2.83301 5.33398 4.5 8.00098s2.5 6.33398 2.5 11.001c0 9.33301 3 14.5 9 15.5s13 0.333008 21 -2
s16.167 -5.16602 24.5 -8.49902s14.833 -5 19.5 -5h38c4.66699 9.33301 11.167 16.166 19.5 20.499s16.5 6 24.5 5s15 -5.16699 21 -12.5s9 -18 9 -32z" />
    <glyph glyph-name="W" unicode="W" horiz-adv-x="564" 
d="M545 582c0 -12 -3.66699 -20.1719 -11 -24.5049s-14.666 -8 -21.999 -11s-13.333 -6.66699 -18 -11s-4 -12.5 2 -24.5c-11.333 -48 -22 -100.833 -32 -158.5s-15 -116.167 -15 -175.5c-8 -8 -13.167 -18.333 -15.5 -31s-3.66602 -26.167 -3.99902 -40.5
s-0.833008 -28.666 -1.5 -42.999s-3.16699 -27.166 -7.5 -38.499s-11.5 -20.666 -21.5 -27.999s-25 -11 -45 -11v24c-6 30 -11 59.667 -15 89s-8.33301 58.166 -13 86.499s-10.334 56 -17.001 83s-16 52.5 -28 76.5c-12 -24 -20.167 -49.333 -24.5 -76
s-7.83301 -53.5 -10.5 -80.5s-6.16699 -53.5 -10.5 -79.5s-12.5 -51 -24.5 -75c0 -24 -5.16699 -37 -15.5 -39s-21.5 3 -33.5 15c-12 18 -21.333 37.333 -28 58s-11.5 42.167 -14.5 64.5s-4.66699 45.333 -5 69s-0.5 47.5 -0.5 71.5c-6 18 -10.667 38.5 -14 61.5
s-6.5 47.167 -9.5 72.5l-9.5 77.5c-3.33301 26.333 -8 51.5 -14 75.5c-6 -6 -11.833 -9.33301 -17.5 -10s-10.834 0.5 -15.501 3.5s-8.33398 7.16699 -11.001 12.5s-4 11 -4 17c6 6 14.5 9.33301 25.5 10s23.333 0.333984 37 -0.999023s27.5 -3.16602 41.5 -5.49902
s27 -3.5 39 -3.5c0 -6 -1.16699 -10.5 -3.5 -13.5s-5.16602 -5.16699 -8.49902 -6.5c-3.33301 -2 -7 -3 -11 -3h-25c-6 -18 -8 -36 -6 -54s5.33301 -36 10 -54l14 -53.5c4.66699 -17.667 7 -35.5 7 -53.5c6 -18 9.5 -38.667 10.5 -62s2.33301 -47.666 4 -72.999
s4.5 -51 8.5 -77s12 -51 24 -75c12 30 20.333 59.833 25 89.5s8.5 58.667 11.5 87s6.66699 55.833 11 82.5s12.5 52 24.5 76c11.333 11.333 23.166 13.166 35.499 5.49902s24.166 -17.834 35.499 -30.501c0 -48 5.16699 -95.667 15.5 -143s21.5 -95.333 33.5 -144
c12 30 21.333 62.5 28 97.5s12.334 70.333 17.001 106s8.66699 71 12 106s8 67.5 14 97.5v72c-11.333 0 -22.166 1 -32.499 3s-15.5 8.66699 -15.5 20c6 6 14.5 9.33301 25.5 10s22.5 0.333984 34.5 -0.999023s23.5 -3.16602 34.5 -5.49902s19.5 -3.5 25.5 -3.5h24z" />
    <glyph glyph-name="X" unicode="X" horiz-adv-x="607" 
d="M200 614c4.66699 -5.33301 10.3242 -7.49805 16.9912 -6.49805s13 2.16699 19 3.5s11.167 1.33301 15.5 0s6.5 -7 6.5 -17c0 -4.66699 -1.16699 -8.33398 -3.5 -11.001s-5.16602 -5.16699 -8.49902 -7.5s-7.5 -4.83301 -12.5 -7.5s-9.83301 -6.33398 -14.5 -11.001
c0 4.66699 -1 7.33398 -3 8.00098s-4.16699 1 -6.5 1s-4.5 0.5 -6.5 1.5s-3 3.83301 -3 8.5c-4.66699 -10 -5.33398 -18.833 -2.00098 -26.5s8 -15 14 -22l18 -22c6 -7.66699 9 -16.167 9 -25.5c9.33301 -9.33301 15.666 -18.833 18.999 -28.5s6.33301 -19.334 9 -29.001
s5.83398 -19.334 9.50098 -29.001s10.167 -19.167 19.5 -28.5c9.33301 9.33301 15.833 19.833 19.5 31.5s6.66699 23.5 9 35.5s5.33301 23.833 9 35.5s10.5 22.167 20.5 31.5c8.66699 9.33301 14.667 18.833 18 28.5s9.66602 19.5 18.999 29.5c0 -5.33301 1 -8.33301 3 -9
s4.33301 -0.333984 7 0.999023s6 4 10 8c-10 4.66699 -18.667 7.5 -26 8.5s-14 2 -20 3s-11.5 3.16699 -16.5 6.5s-9.83301 9.66602 -14.5 18.999c4.66699 0 9.5 2 14.5 6l14.5 11.5c4.66699 3.66699 9.33398 6.16699 14.001 7.5s9.33398 -0.333984 14.001 -5.00098
c4.66699 4.66699 11.5 6.5 20.5 5.5s18.333 -2.16699 28 -3.5s18.834 -1.33301 27.501 0s15.334 7 20.001 17c4.66699 -4.66699 10.334 -7.5 17.001 -8.5s13 -2.16699 19 -3.5s11 -3.66602 15 -6.99902s6 -10 6 -20v-37c-9.33301 -5.33301 -17.833 -6.5 -25.5 -3.5
s-15 6.33301 -22 10s-14.333 5.83398 -22 6.50098s-16.5 -3.66602 -26.5 -12.999c-4.66699 -24 -12.167 -47 -22.5 -69s-21.5 -43.667 -33.5 -65s-23.5 -43 -34.5 -65s-18.833 -45 -23.5 -69c9.33301 -4.66699 15.833 -10.5 19.5 -17.5s6.83398 -14 9.50098 -21
s5.66699 -13.833 9 -20.5s9.66602 -12.334 18.999 -17.001c4.66699 -14.667 9.66699 -29 15 -43s11.666 -27.667 18.999 -41s16 -25.833 26 -37.5s22 -22.5 36 -32.5c4.66699 4.66699 10.334 9.16699 17.001 13.5s13.667 7.16602 21 8.49902s14.333 0.5 21 -2.5
s12.334 -9.5 17.001 -19.5c4.66699 -4.66699 7.33398 -9.33398 8.00098 -14.001s0.5 -9.5 -0.5 -14.5s-2.5 -9.83301 -4.5 -14.5s-3 -9.33398 -3 -14.001c-19.333 -4.66699 -37.5 -7.33398 -54.5 -8.00098s-33.667 -0.333984 -50 0.999023s-33.166 2.83301 -50.499 4.5
s-35.333 2.5 -54 2.5c-5.33301 4.66699 -10.166 9.33398 -14.499 14.001s-7.66602 8.66699 -9.99902 12s-3.33301 6.16602 -3 8.49902s2.83301 3.5 7.5 3.5c10 9.33301 18.833 15.666 26.5 18.999s11.5 9.66602 11.5 18.999l19 -19c0 4.66699 -1 10.5 -3 17.5
s-4.16699 14 -6.5 21s-4.5 13.833 -6.5 20.5s-3 12.334 -3 17.001c-4.66699 10 -9.33398 18.833 -14.001 26.5l-14 22l-14.5 22c-5 7.66699 -9.83301 16.167 -14.5 25.5c0 4.66699 -1 8.33398 -3 11.001s-4.16699 5.33398 -6.5 8.00098s-4.5 5.33398 -6.5 8.00098
s-3 6.66699 -3 12c-10 -10 -15.833 -19.667 -17.5 -29s-2.5 -18.666 -2.5 -27.999c-9.33301 -10 -17.666 -20.833 -24.999 -32.5s-14.666 -24.167 -21.999 -37.5l-22.5 -41c-7.66699 -14 -16.167 -28.333 -25.5 -43c4.66699 -9.33301 10.334 -13.833 17.001 -13.5
s13 1.66602 19 3.99902s11.167 3.66602 15.5 3.99902s6.5 -4.16699 6.5 -13.5c9.33301 -9.33301 10.833 -18 4.5 -26s-14.5 -12 -24.5 -12c-14 0 -27.167 -0.166992 -39.5 -0.5s-24.5 -1 -36.5 -2s-24.167 -2.83301 -36.5 -5.5s-25.5 -6.33398 -39.5 -11.001
c-10 0 -19 4 -27 12s-12 16.667 -12 26v38c10 4.66699 18.667 7.33398 26 8.00098s14.666 0.333984 21.999 -0.999023s14.666 -2.83301 21.999 -4.5s16 -2.5 26 -2.5c19.333 38 38.5 73 57.5 105s38.167 67.333 57.5 106c9.33301 9.33301 17 18.666 23 27.999
s4.66699 19 -4 29c-10 14.667 -18.833 30 -26.5 46l-22 47.5c-7 15.667 -14.333 30.334 -22 44.001s-16.167 25.167 -25.5 34.5c-4.66699 4.66699 -7.5 9.33398 -8.5 14.001s-2.16699 9.5 -3.5 14.5s-3.66602 9.83301 -6.99902 14.5s-9.66602 9.66699 -18.999 15
c-5.33301 0 -11.333 -1.83301 -18 -5.5s-13.5 -6.66699 -20.5 -9s-14 -3 -21 -2s-12.833 6.5 -17.5 16.5c-4.66699 4.66699 -7.33398 9.33398 -8.00098 14.001s-0.333984 9.33398 0.999023 14.001s2.83301 9.33398 4.5 14.001s2.5 9.66699 2.5 15h115
c0 -5.33301 1.16699 -8.16602 3.5 -8.49902s5.16602 0 8.49902 1s7.33301 2.5 12 4.5s9.33398 3 14.001 3z" />
    <glyph glyph-name="Y" unicode="Y" horiz-adv-x="525" 
d="M198 587c9.33301 0 14.8369 -3.83203 16.5039 -11.499s2.5 -16.167 2.5 -25.5h-56c4.66699 -9.33301 7.5 -18.5 8.5 -27.5s2 -17.5 3 -25.5s3.16699 -15.5 6.5 -22.5s9.66602 -12.833 18.999 -17.5c-4.66699 -9.33301 -6.33398 -17.833 -5.00098 -25.5
s3.83301 -15.5 7.5 -23.5s7.33398 -17 11.001 -27s5.5 -22 5.5 -36c4.66699 -4.66699 8.33398 -9.5 11.001 -14.5s5.16699 -10.333 7.5 -16l7.5 -19c2.66699 -7 6.33398 -15.167 11.001 -24.5c9.33301 9.33301 16.833 20.5 22.5 33.5s10.834 26.5 15.501 40.5
s9.66699 27.667 15 41s12.666 24.666 21.999 33.999c0 9.33301 2 18.666 6 27.999l12.5 30c4.33301 10.667 8.5 21.834 12.5 33.501s6 24.5 6 38.5c-4.66699 4.66699 -11 6.5 -19 5.5s-15.5 -2 -22.5 -3s-12.333 -0.833008 -16 0.5s-3.16699 6.66602 1.5 15.999
c9.33301 9.33301 21.833 14 37.5 14s28.167 -4.66699 37.5 -14c9.33301 0 19.666 1.66699 30.999 5s22.666 6.16602 33.999 8.49902s22.666 3 33.999 2s21.666 -6.16699 30.999 -15.5c-4.66699 -14 -11.334 -22 -20.001 -24s-18.167 -2.5 -28.5 -1.5
s-21.166 1.5 -32.499 1.5s-21.666 -4.66699 -30.999 -14c-4.66699 -9.33301 -8.33398 -18.5 -11.001 -27.5l-7.5 -25.5c-2.33301 -8 -4.83301 -15.5 -7.5 -22.5s-6.33398 -12.833 -11.001 -17.5c-18.667 -37.333 -34.167 -74.5 -46.5 -111.5s-27.833 -74.167 -46.5 -111.5
c4.66699 -14 6.5 -28.167 5.5 -42.5l-3 -44c-1 -15 -0.833008 -30.833 0.5 -47.5s6.66602 -34.334 15.999 -53.001l111 19c0 -4.66699 1 -8.33398 3 -11.001s4.16699 -5.16699 6.5 -7.5s4.5 -4.83301 6.5 -7.5s3 -6.33398 3 -11.001l-37 -19h-224
c-5.33301 4.66699 -10.166 7.33398 -14.499 8.00098s-8.16602 0.333984 -11.499 -0.999023c-4 -1.33301 -7.66699 -3.66602 -11 -6.99902c-18.667 18.667 -18.667 37.334 0 56.001c9.33301 0 19.5 -0.833008 30.5 -2.5s21.667 -3.16699 32 -4.5s20 -1.66602 29 -0.999023
s15.833 3.33398 20.5 8.00098c0 18.667 0.666992 37.167 2 55.5s2 36.166 2 53.499s-1.5 34.166 -4.5 50.499s-9.16699 31.5 -18.5 45.5l-56 139.5l-56 139.5c-4.66699 9.33301 -10.334 14.666 -17.001 15.999s-14.167 1.5 -22.5 0.5l-26 -3
c-9 -1 -18.167 0.833008 -27.5 5.5c0 4.66699 1 8.33398 3 11.001s4.16699 5.16699 6.5 7.5s4.5 4.83301 6.5 7.5s3 6.33398 3 11.001c14 -4.66699 28 -7.16699 42 -7.5s27.833 0 41.5 1s27.5 2.33301 41.5 4s28 2.5 42 2.5z" />
    <glyph glyph-name="Z" unicode="Z" horiz-adv-x="576" 
d="M491 601l0.00976562 -38.999l-58 -84.5l-56 -80c-18 -26.333 -35.333 -53.166 -52 -80.499s-32.334 -55.333 -47.001 -84c-5.33301 -10 -11.333 -18.833 -18 -26.5s-13.667 -15 -21 -22s-14.5 -14.333 -21.5 -22s-12.833 -16.5 -17.5 -26.5
c-4.66699 -9.33301 -10.5 -18.833 -17.5 -28.5l-21 -29l-21 -29c-7 -9.66699 -12.833 -19.5 -17.5 -29.5c4.66699 -4.66699 10.5 -6.5 17.5 -5.5s14 2.83301 21 5.5s14 4.5 21 5.5s12.833 -0.833008 17.5 -5.5c10 0 18.833 1 26.5 3s15 4.16699 22 6.5s14.333 4.5 22 6.5
s16.5 3 26.5 3c4.66699 -4.66699 9.5 -5.5 14.5 -2.5s9.83301 6.33301 14.5 10s9.5 5.83398 14.5 6.50098s9.83301 -4 14.5 -14h20c19.333 -9.33301 34.666 -10.833 45.999 -4.5s21.666 14.5 30.999 24.5c0 10 0.833008 20.833 2.5 32.5s3.16699 23.5 4.5 35.5
s1.66602 23.833 0.999023 35.5s-3.33398 22.167 -8.00098 31.5c10 4.66699 15.667 9.5 17 14.5s1.33301 10 0 15s-2.5 9.83301 -3.5 14.5s0.833008 9.33398 5.5 14.001h58c0 -9.33301 -0.166992 -17.833 -0.5 -25.5s-1 -15.167 -2 -22.5s-2.83301 -14.833 -5.5 -22.5
s-6.33398 -16.167 -11.001 -25.5l19 -20c-4.66699 -4.66699 -6.5 -10.5 -5.5 -17.5s2.16699 -14 3.5 -21s1.33301 -14 0 -21s-7 -12.833 -17 -17.5c0 -10 -0.833008 -23 -2.5 -39s-7.16699 -29 -16.5 -39h-407c-4.66699 0 -9.16699 1.16699 -13.5 3.5
s-7.83301 5.33301 -10.5 9s-3.83398 7.83398 -3.50098 12.501s3.16602 9.33398 8.49902 14.001c14.667 14.667 26.167 29.167 34.5 43.5s16.166 28.833 23.499 43.5s15.166 29.167 23.499 43.5s19.833 28.833 34.5 43.5c10 14.667 19.833 28.167 29.5 40.5l28.5 37l28.5 37
c9.66699 12.333 19.5 25.833 29.5 40.5c0 10 4 19 12 27s17 12 27 12c9.33301 29.333 19.666 54.5 30.999 75.5s26.666 41.167 45.999 60.5c4.66699 9.33301 5.33398 15.666 2.00098 18.999s-8 5.66602 -14 6.99902s-11.833 2.5 -17.5 3.5s-8.5 3.83301 -8.5 8.5
c-39.333 -9.33301 -78.166 -14.833 -116.499 -16.5s-77.166 -2.5 -116.499 -2.5c-4.66699 -19.333 -6.5 -37.666 -5.5 -54.999s2.16699 -33.833 3.5 -49.5s1.33301 -30.834 0 -45.501s-7 -29.334 -17 -44.001c-10 -4.66699 -17.667 -6.16699 -23 -4.5s-9.83301 5 -13.5 10
s-7 10.667 -10 17s-6.83301 11.833 -11.5 16.5c9.33301 4.66699 14.666 9.5 15.999 14.5s1.5 9.83301 0.5 14.5l-3 14.5c-1 5 0.833008 9.83301 5.5 14.5c3.33301 6.66699 4.33301 15 3 25s-3.33301 20.833 -6 32.5s-5 23.334 -7 35.001s-2 22 0 31s6.66699 16.5 14 22.5
s19 9 35 9c4.66699 -4.66699 9.5 -7.33398 14.5 -8.00098s9.83301 -0.333984 14.5 0.999023s9.5 2.83301 14.5 4.5s9.83301 2.5 14.5 2.5h97c4.66699 -4.66699 10.5 -7.33398 17.5 -8.00098s14 -0.333984 21 0.999023s14 2.83301 21 4.5s12.833 2.5 17.5 2.5h136z" />
    <glyph glyph-name="bracketleft" unicode="[" horiz-adv-x="333" 
d="M286 716c3.33301 -26.667 1.83301 -45.834 -4.5 -57.501s-15.333 -19 -27 -22s-25 -3.16699 -40 -0.5s-29.833 5 -44.5 7s-28 2.16699 -40 0.5s-21 -8.5 -27 -20.5v-68c-4 -34.667 -5.5 -70.667 -4.5 -108s2.66699 -74.833 5 -112.5s4 -75 5 -112
s-0.833008 -72.833 -5.5 -107.5c0 -11.333 0.833008 -22.666 2.5 -33.999s7.16699 -23.333 16.5 -36c2.66699 -4 5.33398 -7 8.00098 -9c2 -1.33301 3.83301 -1.66602 5.5 -0.999023s2.5 4 2.5 10c18.667 -6 35.167 -7.16699 49.5 -3.5s27.833 7.83398 40.5 12.501
s25.167 7.33398 37.5 8.00098s25.5 -5 39.5 -17c0 -11.333 0.666992 -21.333 2 -30s2 -15.834 2 -21.501s-1.5 -10 -4.5 -13s-9.16699 -4.5 -18.5 -4.5c-9.33301 -6 -17.833 -9.33301 -25.5 -10s-15.5 -0.166992 -23.5 1.5l-26.5 5.5c-9.66699 2 -21.5 3 -35.5 3
c-18 0 -30.5 -0.833008 -37.5 -2.5s-13.5 -3 -19.5 -4s-13.5 -1.16699 -22.5 -0.5s-24.167 3.66699 -45.5 9c0 5.33301 -1.66699 12.666 -5 21.999c0.666992 3.33301 0.5 6.33301 -0.5 9s-2 5 -3 7s-1.16699 3.66699 -0.5 5s3.33398 2 8.00098 2v22
c0 6 0.833008 11.833 2.5 17.5s3 10.667 4 15s1.16699 7.83301 0.5 10.5s-3 4 -7 4v602c0 5.33301 1 10.666 3 15.999s4.66699 9.5 8 12.5s7.16602 4.16699 11.499 3.5s9.16602 -4 14.499 -10h200zM47 -21c1.33301 0 2.33301 -0.333984 3 -1.00098
c0 -3.33301 -1 -5.16602 -3 -5.49902s-3.5 0 -4.5 1s-1.5 2.16699 -1.5 3.5s2 2 6 2z" />
    <glyph glyph-name="backslash" unicode="\" horiz-adv-x="447" 
d="M16 643c3.33301 6.66699 7.33691 11.1641 12.0039 13.4971s9.5 3.83301 14.5 4.5l14.5 2c4.66699 0.666992 8.66699 2.66699 12 6c12.667 -6.66699 20.5 -13.167 23.5 -19.5s7.83301 -12.5 14.5 -18.5c0 -4 -0.666992 -7.66699 -2 -11s-2.33301 -6.66602 -3 -9.99902
s-0.833984 -6.5 -0.500977 -9.5s2.16602 -6.16699 5.49902 -9.5c7.33301 -13.333 16.333 -26.333 27 -39s19 -25.667 25 -39c0 -6.66699 2.16699 -13.167 6.5 -19.5s6.5 -12.5 6.5 -18.5c10 -3.33301 16.333 -8.16602 19 -14.499s4.83398 -12.666 6.50098 -18.999
s4.16699 -12.5 7.5 -18.5s10 -10.667 20 -14v-26c2.66699 -3.33301 5 -7.83301 7 -13.5l6.5 -18.5c2.33301 -6.66699 5.33301 -13 9 -19s8.5 -10.333 14.5 -13c0 -3.33301 0.666992 -6 2 -8s3 -3.83301 5 -5.5s3.66699 -3.5 5 -5.5s2 -4.33301 2 -7h-12
c2.66699 -0.666992 4.16699 -1.66699 4.5 -3s0.5 -2.83301 0.5 -4.5s0.333008 -3 1 -4s2.66699 -1.5 6 -1.5c-0.666992 2 -0.333984 4 0.999023 6c1.33301 4.66699 5 7 11 7v-25c3.33301 0 5.33301 -0.666992 6 -2l2.5 -5c1 -2 2.66699 -3.66699 5 -5s6.83301 -2 13.5 -2
c0 -6.66699 1.33301 -12.667 4 -18l8.5 -16.5c3 -5.66699 5.83301 -11.834 8.5 -18.501s4 -15 4 -25l26 -25c0 -6.66699 2 -12.667 6 -18s8.5 -10.333 13.5 -15s9.66699 -9.5 14 -14.5s6.5 -10.833 6.5 -17.5s2.5 -12.667 7.5 -18s11.167 -8 18.5 -8
c6 -7.33301 7 -15.833 3 -25.5s-9.66699 -14.5 -17 -14.5c-3.33301 -3.33301 -7.16602 -5.16602 -11.499 -5.49902s-9 0 -14 1l-14.5 3c-4.66699 1 -8.66699 1.5 -12 1.5c-3.33301 10 -7.83301 19.833 -13.5 29.5l-16.5 29c-5.33301 9.66699 -10.166 19.334 -14.499 29.001
s-6.5 19.5 -6.5 29.5c-10 10 -17.667 19.833 -23 29.5s-10 19.334 -14 29.001l-12 29c-4 9.66699 -9.33301 19.5 -16 29.5c-6.66699 13.333 -15.334 26.166 -26.001 38.499s-19.334 25.166 -26.001 38.499c-19.333 33.333 -41.5 68.333 -66.5 105s-50.5 71 -76.5 103
c0 10 -2.66699 18.5 -8 25.5l-16.5 21.5c-5.66699 7.33301 -10.334 15.333 -14.001 24s-3.83398 19.667 -0.500977 33z" />
    <glyph glyph-name="bracketright" unicode="]" horiz-adv-x="334" 
d="M248 716c4.66699 6 9.33203 9.33398 13.999 10.001s8.66699 -0.5 12 -3.5s6 -7.16699 8 -12.5s3 -10.666 3 -15.999v-604c-4 0 -6.33301 -1.33301 -7 -4s-0.5 -6.16699 0.5 -10.5s2.33301 -9.33301 4 -15s2.5 -11.5 2.5 -17.5v-22
c4.66699 0 7.33398 -0.666992 8.00098 -2s0.5 -3 -0.5 -5l-3.5 -7c-1.33301 -2.66699 -1.33301 -5.66699 0 -9c-4 -11.333 -6 -18.666 -6 -21.999c-22 -5.33301 -37.5 -8.33301 -46.5 -9s-16.333 -0.5 -22 0.5s-12 2.33301 -19 4s-19.5 2.5 -37.5 2.5
c-14 0 -25.833 -1 -35.5 -3l-26.5 -5.5c-8 -1.66699 -15.833 -2.16699 -23.5 -1.5s-16.167 4 -25.5 10c-9.33301 0 -15.5 1.5 -18.5 4.5s-4.5 7.33301 -4.5 13s0.666992 12.834 2 21.501s2 18.667 2 30c14 12 27.167 17.667 39.5 17s24.833 -3.33398 37.5 -8.00098
s26.167 -8.83398 40.5 -12.501s30.833 -2.5 49.5 3.5c0 -6 0.833008 -9.33301 2.5 -10s3.5 -0.333984 5.5 0.999023c2.66699 2 5.66699 5 9 9c9.33301 12.667 14.833 24.667 16.5 36s2.5 22.666 2.5 33.999c-4.66699 34.667 -6.5 70.667 -5.5 108s2.66699 74.833 5 112.5
s4 75.167 5 112.5s-0.5 73.666 -4.5 108.999v68c-6 12 -15.167 18.833 -27.5 20.5s-25.833 1.5 -40.5 -0.5s-29.5 -4.33301 -44.5 -7s-28.333 -2.5 -40 0.5s-20.667 10.333 -27 22s-7.83301 30.834 -4.5 57.501h201zM286.998 -22.999
c-1.33301 0 -2.66797 -0.333984 -4.00098 -1.00098c0 -3.33301 1 -5.16602 3 -5.49902s3.66699 0 5 1s1.83301 2.16699 1.5 3.5s-2.16602 2 -5.49902 2z" />
    <glyph glyph-name="asciicircum" unicode="^" horiz-adv-x="324" 
d="M270 562c-16.667 11.333 -27.666 20.333 -32.999 27c-25.333 9.33301 -41 21.666 -47 36.999c0 4 -6 7 -18 9l-5 22l-9 -2v-10l3 -10c-2.66699 -2.66699 -8.66699 -4 -18 -4c-2.66699 -6.66699 -13 -13 -31 -19l-2 -2l-2 1h-15c2 -5.33301 3.33301 -8.66602 4 -9.99902
c-4.66699 -8 -18 -20.333 -40 -37h-12l-13 -2c-8.66699 13.333 -13.334 25 -14.001 35v12c0 10 7.33301 16.333 22 19c12 15.333 26 28.666 42 39.999c18 8.66699 27 16.667 27 24c6 -1.33301 16.333 6.33398 31 23.001c5.33301 13.333 10.666 22 15.999 26h2
c5.33301 -6.66699 13 -9.66699 23 -9c6.66699 -23.333 15.334 -36.333 26.001 -39c0 -7.33301 5.66699 -11.333 17 -12c4 -12.667 7.33301 -19 10 -19l14 1c4.66699 -11.333 15 -17 31 -17l11 -21c6 -2 11.333 -14.333 16 -37c-4.66699 -10.667 -12.667 -18 -24 -22z
M98.001 604c-0.666992 -0.666992 -1 -1.66699 -1 -3c0.666992 0 1 1 1 3z" />
    <glyph glyph-name="underscore" unicode="_" horiz-adv-x="580" 
d="M211 30l0.000976562 15.998h327c8 -4 13.333 -8.83301 16 -14.5s4 -11.667 4 -18s-0.666992 -12.333 -2 -18s-2 -10.5 -2 -14.5c-45.333 -4 -88.666 -6.5 -129.999 -7.5l-123 -3c-40.667 -1 -81.834 -3 -123.501 -6s-84.834 -8.5 -129.501 -16.5
c-8.66699 8.66699 -13.667 20.334 -15 35.001s-2 30.334 -2 47.001c0 8 1.83301 13.333 5.5 16s8 4 13 4s10.333 -0.666992 16 -2s10.5 -2 14.5 -2c8 -4 17 -5.5 27 -4.5s20.667 2 32 3s23 0.833008 35 -0.5s24.333 -6 37 -14z" />
    <glyph glyph-name="grave" unicode="`" horiz-adv-x="191" 
d="M92 648l11.0039 9.99609l76 -93l4 -4c-0.666992 -9.33301 -5.33398 -17.833 -14.001 -25.5l-20 -17.5c-13.333 10.667 -25.5 22 -36.5 34l-32 35.5c-10.333 11.667 -21.5 22.834 -33.5 33.501s-25.667 20.334 -41 29.001c2.66699 7.33301 8.16699 15.5 16.5 24.5
l27.5 29.5c4.66699 4.66699 8.16699 7.16699 10.5 7.5s4.16602 -0.166992 5.49902 -1.5s2.16602 -3.16602 2.49902 -5.49902s1.16602 -3.83301 2.49902 -4.5c0 -5.33301 1.5 -9.33301 4.5 -12s6 -5.5 9 -8.5s5.5 -6.66699 7.5 -11s2 -11.166 0 -20.499z" />
    <glyph glyph-name="a" unicode="a" horiz-adv-x="630" 
d="M479 419c6 -28.667 9.33008 -58.332 9.99707 -88.999s0.166992 -61 -1.5 -91s-3.5 -59 -5.5 -87s-3 -53.333 -3 -76c6 -11.333 13 -19 21 -23s16.167 -6.83301 24.5 -8.5s16.5 -3 24.5 -4s15 -4.5 21 -10.5h46c0 -5.33301 -1.16699 -10.666 -3.5 -15.999
s-5.16602 -10.333 -8.49902 -15c-3.33301 -5.33301 -7 -10.333 -11 -15c-11.333 0 -22.666 -0.833008 -33.999 -2.5s-22.833 -2.5 -34.5 -2.5s-23.167 2 -34.5 6s-23 11.667 -35 23c0 11.333 -0.833008 22.666 -2.5 33.999s-8.16699 22.666 -19.5 33.999
c-23.333 -23.333 -47.666 -41.166 -72.999 -53.499s-51.5 -21.333 -78.5 -27s-54.667 -9 -83 -10s-56.833 -1.5 -85.5 -1.5c-68.667 46 -91.334 114.667 -68.001 206c15.333 22.667 32.833 39.667 52.5 51s40.667 19.333 63 24s45.5 7.33398 69.5 8.00098l71.5 2
c23.667 0.666992 46.834 3 69.501 7s43.334 11.667 62.001 23c0 11.333 -0.166992 23.666 -0.5 36.999s-2 25.666 -5 36.999s-7.5 20.833 -13.5 28.5s-14.667 11.5 -26 11.5c-69.333 22 -138 22 -206 0c4 -4.66699 7.66699 -9.66699 11 -15
c3.33301 -4.66699 6.16602 -9.66699 8.49902 -15s3.5 -11 3.5 -17c-6 0 -10.667 -1.16699 -14 -3.5s-7.16602 -4.83301 -11.499 -7.5s-9.83301 -5.16699 -16.5 -7.5s-15.667 -3.5 -27 -3.5c-8.66699 0 -16.334 1 -23.001 3c-5.33301 1.33301 -10.333 3.5 -15 6.5
s-7 7.16699 -7 12.5c-12 0 -19 5 -21 15s-3 20.667 -3 32c17.333 22.667 38.333 40 63 52s50.5 20.167 77.5 24.5s54.167 5.5 81.5 3.5s52.333 -6 75 -12c23.333 0 45.333 -5.66699 66 -17s37 -28.333 49 -51zM387.997 122.002c16 0 26.333 4.66699 31 14
s6.5 20.666 5.5 33.999s-3.5 27.666 -7.5 42.999s-6.33301 28.666 -7 39.999c-1.33301 -8.66699 -6.5 -13.667 -15.5 -15s-19.167 -2 -30.5 -2c-15.333 -8 -32.166 -12.5 -50.499 -13.5s-37 -1.16699 -56 -0.5l-56 2c-18.333 0.666992 -35 -1.16602 -50 -5.49902
s-28 -12.166 -39 -23.499s-18.167 -28.333 -21.5 -51c0 -22.667 4.66699 -44.5 14 -65.5s19.666 -37.167 30.999 -48.5c28.667 -5.33301 54.667 -6.83301 78 -4.5s45 7.83301 65 16.5s38.833 19.834 56.5 33.501s35.167 29.167 52.5 46.5z" />
    <glyph glyph-name="b" unicode="b" horiz-adv-x="562" 
d="M205 660c0 -21.333 -1.00488 -43.833 -3.00488 -67.5s-3.66699 -46.834 -5 -69.501s-1.66602 -44.5 -0.999023 -65.5s3.66699 -39.833 9 -56.5c10.667 10.667 22.667 21.334 36 32.001s27.5 20 42.5 28s30.5 14.5 46.5 19.5s32 7.5 48 7.5c32 0 59.667 -9.83301 83 -29.5
s45.666 -45.834 66.999 -78.501c11.333 -54 16 -106.833 14 -158.5s-13.667 -99.167 -35 -142.5c-21.333 -32 -43.666 -54.333 -66.999 -67s-51 -19 -83 -19c-5.33301 5.33301 -10.666 8.5 -15.999 9.5s-10.833 1.5 -16.5 1.5s-11.167 0.5 -16.5 1.5s-11 4.16699 -17 9.5
c-5.33301 -5.33301 -10.666 -7.16602 -15.999 -5.49902s-10.666 5.16699 -15.999 10.5s-10.666 11.666 -15.999 18.999s-10.666 13.666 -15.999 18.999c0 5.33301 -1.16699 9.33301 -3.5 12s-4.83301 4.66699 -7.5 6c-3.33301 2 -7 3 -11 3c-7.33301 0 -12 -2.5 -14 -7.5
s-3 -11.167 -3 -18.5s0.333008 -14.666 1 -21.999s-0.166016 -13.5 -2.49902 -18.5s-7 -7.66699 -14 -8s-17.5 3.16699 -31.5 10.5v150c5.33301 10.667 7.33301 23.667 6 39s-3.33301 31 -6 47s-4.66699 31.667 -6 47s0.666992 28.333 6 39
c-5.33301 21.333 -7.33301 44 -6 68s3.33301 48 6 72s4.66699 48 6 72s-0.666992 46.667 -6 68c-10.667 10.667 -22.334 16 -35.001 16s-24.334 -0.666992 -35.001 -2s-19.667 -0.833008 -27 1.5s-11 11.5 -11 27.5c-5.33301 10.667 -7 16.834 -5 18.501
s5.66699 1.83398 11 0.500977s11.5 -2.5 18.5 -3.5s13.167 1.16699 18.5 6.5c10.667 0 22.5 0.833008 35.5 2.5s25.5 2.5 37.5 2.5s23 -1.83301 33 -5.5s17.667 -10.834 23 -21.501zM204.995 122h-21l21 -21v21zM441.995 380
c-10.667 21.333 -26.6631 33.8301 -47.9961 37.4971s-48 5.5 -80 5.5c-11.333 -5.33301 -23.333 -12.166 -36 -20.499s-24.334 -17.833 -35.001 -28.5s-19.667 -22.667 -27 -36s-11 -28 -11 -44c-10.667 -21.333 -14.334 -40.5 -11.001 -57.5s9.66602 -33.667 18.999 -50
s19.833 -33 31.5 -50s20.167 -36.167 25.5 -57.5c10.667 0 20.5 -1.16699 29.5 -3.5l27.5 -7c9.33301 -2.33301 19.833 -4.66602 31.5 -6.99902s25.5 -3.5 41.5 -3.5c5.33301 5.33301 11.666 10.833 18.999 16.5s14.333 11.834 21 18.501s12.334 14.167 17.001 22.5
s7 17.833 7 28.5c5.33301 16 10.166 34.333 14.499 55s6.5 41.667 6.5 63s-3.16699 42.333 -9.5 63s-17.5 39 -33.5 55z" />
    <glyph glyph-name="c" unicode="c" horiz-adv-x="532" 
d="M488 390c-0.666992 -18 -3.50098 -34.4932 -8.50098 -49.4932s-16.5 -26.833 -34.5 -35.5c-10.667 0 -20.167 0.166992 -28.5 0.5s-15.666 1.83301 -21.999 4.5s-12.333 7 -18 13s-11.167 14.333 -16.5 25c-5.33301 5.33301 -8.33301 11.5 -9 18.5
s-0.333984 13.833 0.999023 20.5c2 7.33301 4.66699 15.333 8 24c-16 -5.33301 -30.667 -7.33301 -44 -6s-26 2.66602 -38 3.99902s-23.5 1.16602 -34.5 -0.500977s-21.833 -7.83398 -32.5 -18.501c-5.33301 0 -10.666 -2.33301 -15.999 -7s-10.5 -10.334 -15.5 -17.001
l-15.5 -21c-5.33301 -7.33301 -10.666 -13.666 -15.999 -18.999c-5.33301 -21.333 -9.16602 -43.5 -11.499 -66.5s-1.5 -45.833 2.5 -68.5s11.667 -44.334 23 -65.001s27.666 -39 48.999 -55c10.667 -5.33301 22.334 -8.33301 35.001 -9s25 0.333008 37 3s23 6.5 33 11.5
s17.667 10.167 23 15.5l21 -21c5.33301 10.667 11.666 20.167 18.999 28.5l21 24.5c6.66699 8 12.334 16.167 17.001 24.5s7 17.833 7 28.5c10.667 11.333 21.334 17.833 32.001 19.5s21.334 2.5 32.001 2.5c5.33301 -16 7.16602 -30.833 5.49902 -44.5
s-5.16699 -26.5 -10.5 -38.5s-11.666 -23.5 -18.999 -34.5s-13.666 -21.833 -18.999 -32.5c-32 -20.667 -63.833 -36.334 -95.5 -47.001s-63.5 -16 -95.5 -16c-42.667 11.333 -79 28.166 -109 50.499s-50.667 55.166 -62 98.499c-16 10.667 -27 24.667 -33 42s-9 36 -9 56
s2.33301 40.167 7 60.5s9.66699 38.5 15 54.5c5.33301 5.33301 9.16602 10.333 11.499 15s4.16602 9 5.49902 13c1.33301 4.66699 2.33301 9.33398 3 14.001c16 21.333 34.5 38.833 55.5 52.5s42.667 24.5 65 32.5s45.166 13.5 68.499 16.5s45.666 4.5 66.999 4.5
c10.667 -10.667 22.167 -16.834 34.5 -18.501s29.166 -2.5 50.499 -2.5zM253.999 454.007c3.33301 0 6.83301 0.333008 10.5 1s7.16699 1.66699 10.5 3c-8 3.33301 -15 2 -21 -4z" />
    <glyph glyph-name="d" unicode="d" horiz-adv-x="589" 
d="M462 652c0 -39.333 -1.00391 -79.832 -3.00391 -121.499s-3.83301 -83.5 -5.5 -125.5s-2.16699 -84 -1.5 -126s4 -82.667 10 -122c-11.333 -5.33301 -16.666 -9.66602 -15.999 -12.999s3.16699 -6.33301 7.5 -9s8.16602 -5.66699 11.499 -9s2.33301 -8 -3 -14
c0 -5.33301 -1 -10.833 -3 -16.5s-3.83301 -11.167 -5.5 -16.5s-2.16699 -10.833 -1.5 -16.5s4 -11.5 10 -17.5h112c0 -11.333 -4.66699 -21.5 -14 -30.5s-19.666 -13.5 -30.999 -13.5s-23.5 -2 -36.5 -6s-25.167 -6.66699 -36.5 -8s-20.666 0.166992 -27.999 4.5
s-11 14.833 -11 31.5c-5.33301 5.33301 -8.5 10.833 -9.5 16.5s-1.5 11.334 -1.5 17.001s-0.5 11.334 -1.5 17.001s-4.16699 11.167 -9.5 16.5c-6 -16.667 -13.167 -30.834 -21.5 -42.501s-17.5 -21.667 -27.5 -30s-20.5 -15.5 -31.5 -21.5l-33.5 -18
c-6 0 -11.833 1 -17.5 3s-11.167 3.83301 -16.5 5.5s-10.833 2.16699 -16.5 1.5s-11.5 -4 -17.5 -10c-11.333 6 -23.5 11.833 -36.5 17.5s-25.833 12 -38.5 19s-24.167 14.833 -34.5 23.5s-18.5 18.667 -24.5 30c-11.333 28 -20.833 56 -28.5 84s-12.167 56.167 -13.5 84.5
s1.16699 56.666 7.5 84.999s17.833 56.5 34.5 84.5c6 5.33301 10.667 10.833 14 16.5s7.16602 11.167 11.499 16.5s9.5 10.833 15.5 16.5s14.667 11.5 26 17.5c34 11.333 67.833 16 101.5 14s67.5 -14.333 101.5 -37c0 -11.333 4.66699 -22.5 14 -33.5s20 -22.167 32 -33.5
v246c-11.333 11.333 -22.666 17.833 -33.999 19.5s-22.833 1.83398 -34.5 0.500977l-34.5 -4c-11.333 -1.33301 -22.666 1 -33.999 7c0 5.33301 -1 9.66602 -3 12.999s-3.66699 6.33301 -5 9s-1.66602 5.66699 -0.999023 9s3.66699 8 9 14h68
c11.333 0 24.833 0.833008 40.5 2.5s30.5 1.66699 44.5 0s26 -5.83398 36 -12.501s15 -18.334 15 -35.001zM394.996 315.001c-11.333 11.333 -22.8311 23.835 -34.498 37.502s-23.834 26.667 -36.501 39s-26.334 23.833 -41.001 34.5s-30.334 18.667 -47.001 24
c-6 -5.33301 -12.833 -10.833 -20.5 -16.5s-15.834 -11.167 -24.501 -16.5s-16.834 -10.833 -24.501 -16.5s-14.5 -11.5 -20.5 -17.5c-11.333 0 -19.166 -2.16699 -23.499 -6.5s-7.16602 -9.83301 -8.49902 -16.5s-1.83301 -14 -1.5 -22s-0.166992 -15.333 -1.5 -22
s-4.16602 -12.167 -8.49902 -16.5s-12.166 -6.5 -23.499 -6.5c0 -11.333 1 -22.666 3 -33.999s8.66699 -23 20 -35c0 -11.333 1.33301 -23.666 4 -36.999s6 -27 10 -41s8.66699 -27.833 14 -41.5s10.666 -25.834 15.999 -36.501c6 -6 11.667 -9.5 17 -10.5s10 -1.5 14 -1.5
s7.33301 -0.333008 10 -1s4 -4 4 -10c11.333 -5.33301 21.333 -8.33301 30 -9s17.334 -0.333984 26.001 0.999023s17.5 3 26.5 5s19.167 3 30.5 3c11.333 11.333 21.666 27.166 30.999 47.499s14 41.833 14 64.5c22.667 6 36.667 14.333 42 25s7.33301 23.167 6 37.5
s-3.5 29.666 -6.5 45.999s-1.5 32.833 4.5 49.5z" />
    <glyph glyph-name="e" unicode="e" horiz-adv-x="535" 
d="M496 330c0 -11.333 0.837891 -22.335 2.50488 -33.002s2.5 -20.667 2.5 -30s-1.83301 -18 -5.5 -26s-10.834 -14.667 -21.501 -20c-64.667 22 -129 22 -193 0c-16 5.33301 -30.833 8.33301 -44.5 9s-26.5 0.333984 -38.5 -0.999023s-23.667 -3 -35 -5s-22.333 -3 -33 -3
c-10.667 -10.667 -15.5 -20.167 -14.5 -28.5s4.16699 -16.5 9.5 -24.5l17.5 -25c6.33301 -8.66699 9.5 -18.334 9.5 -29.001c5.33301 -10.667 11.833 -19 19.5 -25s15.5 -11 23.5 -15s15.833 -7.66699 23.5 -11s14.167 -7.66602 19.5 -12.999c43.333 0 81 9.83301 113 29.5
s58.667 45.5 80 77.5c11.333 0 21.333 -4.33301 30 -13s13 -18.667 13 -30c0 -10.667 -2.5 -20.334 -7.5 -29.001s-11.5 -17 -19.5 -25s-17 -16.333 -27 -25s-20.333 -18.334 -31 -29.001c-16 -5.33301 -35.5 -10.166 -58.5 -14.499s-46.667 -6.5 -71 -6.5
s-48 3.16699 -71 9.5s-42.5 17.5 -58.5 33.5c-10.667 16 -22.334 31.167 -35.001 45.5s-24.334 28.833 -35.001 43.5s-19.5 30.334 -26.5 47.001s-10.5 35.667 -10.5 57c0 5.33301 1.16699 10.833 3.5 16.5l7.5 19c2.66699 7 5.16699 14.667 7.5 23s3.5 17.833 3.5 28.5
c5.33301 21.333 13.166 42.333 23.499 63s22.833 39.834 37.5 57.501s31.334 32.834 50.001 45.501s38.667 21.667 60 27c32 0 62.667 -3.83301 92 -11.5s56.166 -18.834 80.499 -33.501s45.666 -32.667 63.999 -54s32.833 -45.333 43.5 -72zM410.005 307.998
c0 5.33301 -1.16797 11.666 -3.50098 18.999s-5.5 14.333 -9.5 21s-8.66699 12.334 -14 17.001s-10.666 7 -15.999 7l-35.5 18.5c-13 7 -26.333 12.5 -40 16.5s-27 5.5 -40 4.5s-24.833 -6.83301 -35.5 -17.5c-5.33301 -11.333 -12.833 -20.166 -22.5 -26.499
s-19.167 -13 -28.5 -20s-17.5 -15 -24.5 -24s-10.5 -21.5 -10.5 -37.5c21.333 0 44 0.166992 68 0.5s48 1.16602 72 2.49902s48 3.5 72 6.5s46.667 7.16699 68 12.5z" />
    <glyph glyph-name="f" unicode="f" horiz-adv-x="544" 
d="M509 606c0 -10 1.00977 -19.0059 3.00977 -27.0059s3.66699 -15.333 5 -22s1.66602 -12.834 0.999023 -18.501s-3.66699 -11.167 -9 -16.5s-11.5 -9.33301 -18.5 -12s-14.5 -4.5 -22.5 -5.5s-15.667 -1.66699 -23 -2s-13.333 -0.5 -18 -0.5
c-10.667 10 -16.834 20.333 -18.501 31s-2.5 21.334 -2.5 32.001c0 4.66699 1 9.5 3 14.5s3.66699 9.5 5 13.5s1.66602 7.16699 0.999023 9.5s-3.66699 3.5 -9 3.5c-10.667 4.66699 -21.167 7.33398 -31.5 8.00098s-20.833 0.5 -31.5 -0.5s-21.167 -2.5 -31.5 -4.5
s-20.5 -3 -30.5 -3c-10.667 -10 -17.834 -20.333 -21.501 -31s-6.16699 -21.167 -7.5 -31.5s-2.5 -20.666 -3.5 -30.999s-4.16699 -20.5 -9.5 -30.5l21 -22c10.667 0 22.167 1.83301 34.5 5.5s24.333 6.16699 36 7.5s22.334 0 32.001 -4s17.167 -13.667 22.5 -29
c5.33301 -5.33301 8.16602 -10.5 8.49902 -15.5s-0.833984 -9.5 -3.50098 -13.5s-6.33398 -7.16699 -11.001 -9.5s-9.66699 -3.5 -15 -3.5c-10.667 0 -21 2 -31 6s-19.5 7.33301 -28.5 10s-17.333 3.33398 -25 2.00098s-14.167 -7.33301 -19.5 -18v-269
c0 -5.33301 -1 -10.666 -3 -15.999s-3.66699 -10.666 -5 -15.999s-1.66602 -10.666 -0.999023 -15.999s3.66699 -10.333 9 -15h146v-63c-5.33301 -10 -11.833 -15.667 -19.5 -17s-16 -0.833008 -25 1.5s-18.667 5.5 -29 9.5s-20.5 6 -30.5 6
c-21.333 0 -46.5 -0.833008 -75.5 -2.5s-59.5 -7.83398 -91.5 -18.501c-10 10.667 -20.167 16 -30.5 16s-20 -0.666992 -29 -2s-17.333 -0.833008 -25 1.5s-14.167 11.5 -19.5 27.5c0 8 1 15.667 3 23c1.33301 6.66699 3.33301 13.334 6 20.001s6.66699 12.667 12 18
c21.333 -10 45.666 -15 72.999 -15s51.666 5 72.999 15c-5.33301 26 -8.16602 52 -8.49902 78s0 52 1 78s2.5 52 4.5 78s3 52 3 78c-10.667 5.33301 -22.334 8.33301 -35.001 9s-25.5 0.333984 -38.5 -0.999023s-25.667 -3 -38 -5s-23.833 -3 -34.5 -3
c-10.667 10.667 -19.334 21.167 -26.001 31.5s-5 20.5 5 30.5c5.33301 10.667 11.666 16.667 18.999 18s15 1.5 23 0.5l23 -3c7.33301 -1 13.666 1.16699 18.999 6.5h83c0 10 -1.83301 23.167 -5.5 39.5s-5.5 33 -5.5 50s3.5 32.667 10.5 47s20.833 24.166 41.5 29.499
c32 20.667 63.333 31.834 94 33.501s62 -2.5 94 -12.5c20.667 -10.667 37 -21.334 49 -32.001s23 -21 33 -31z" />
    <glyph glyph-name="g" unicode="g" horiz-adv-x="610" 
d="M571 373c5.33301 -5.33301 8.32129 -10.333 8.98828 -15s0.333984 -9 -0.999023 -13c-2 -4.66699 -4.66699 -9 -8 -13c0 -10.667 -3.5 -20 -10.5 -28s-15.167 -14 -24.5 -18s-18.666 -5.83301 -27.999 -5.5s-16.666 3.16602 -21.999 8.49902s-10.333 10.666 -15 15.999
s-8.16699 10.666 -10.5 15.999s-3.33301 10.5 -3 15.5s3.16602 10.167 8.49902 15.5v21c-5.33301 0 -11.833 -0.166992 -19.5 -0.5s-15.5 -1.16602 -23.5 -2.49902s-15.667 -3.33301 -23 -6s-13.666 -6.66699 -18.999 -12c21.333 -32 35.5 -63.667 42.5 -95
s-0.166992 -62.666 -21.5 -93.999c-10.667 -10.667 -24.667 -20.334 -42 -29.001s-31.333 -13 -42 -13c-10.667 -10.667 -20.167 -16.834 -28.5 -18.501s-17.166 -1.83398 -26.499 -0.500977s-19.5 2.5 -30.5 3.5s-24.5 -1.16699 -40.5 -6.5
c-5.33301 0 -9.66602 2.16699 -12.999 6.5s-6.33301 8.5 -9 12.5s-5.5 6.83301 -8.5 8.5s-7.16699 -0.166016 -12.5 -5.49902c-15.333 -5.33301 -25.166 -11.833 -29.499 -19.5s-5.83301 -15.5 -4.5 -23.5s3.83301 -15.667 7.5 -23s5.5 -13.666 5.5 -18.999
c10.667 -5.33301 21.334 -7.33301 32.001 -6s21.167 3.33301 31.5 6s20.833 4.66699 31.5 6s21.334 -0.666992 32.001 -6c26 5.33301 53 7.83301 81 7.5s54.5 -3.66602 79.5 -9.99902s47.333 -16.333 67 -30s34.834 -30.834 45.501 -51.501c5.33301 -16 8 -32.833 8 -50.5
s-2.66699 -35 -8 -52s-13.166 -33 -23.499 -48s-23.166 -27.833 -38.499 -38.5c-26.667 -16 -55.334 -28 -86.001 -36s-61.834 -12 -93.501 -12s-62.834 4 -93.501 12s-59.334 20 -86.001 36c-16 4.66699 -28.333 12 -37 22s-15.667 21.667 -21 35
s-9.66602 27.666 -12.999 42.999s-7.66602 31 -12.999 47c0 10.667 5.33301 24.834 16 42.501s26.667 31.834 48 42.501h20c0 10 -4.16699 20.167 -12.5 30.5s-17.833 20.833 -28.5 31.5c0 10.667 0.166992 21.167 0.5 31.5s1.83301 20.166 4.5 29.499
s6.83398 17.833 12.501 25.5s13.5 14.167 23.5 19.5c5.33301 10 7.33301 18 6 24s-4 10.833 -8 14.5l-12 10.5c-4 3.33301 -6 7.66602 -6 12.999c-5.33301 16 -7 31.833 -5 47.5s6.16699 30.667 12.5 45s14.333 28 24 41s19.834 24.833 30.501 35.5
c16 5.33301 32 10.333 48 15s31.833 7.66699 47.5 9s31.334 0.333008 47.001 -3s31.5 -10.333 47.5 -21l35.5 18.5c13 7 26.667 13.167 41 18.5s29.333 9 45 11s31.167 0.333008 46.5 -5c5.33301 -5.33301 11.666 -10.666 18.999 -15.999l21 -16
c6.66699 -5.33301 12.334 -10.666 17.001 -15.999s7 -10.666 7 -15.999zM317.988 332c-11.333 10 -22 15.8301 -32 17.4971s-20.333 2.5 -31 2.5c-21.333 0 -41.666 -5.16699 -60.999 -15.5s-34.333 -26.166 -45 -47.499c0 -21.333 0.833008 -41.666 2.5 -60.999
s7.83398 -33.666 18.501 -42.999c11.333 -11.333 26.5 -21.333 45.5 -30s39.167 -13 60.5 -13c4.66699 5.33301 10.834 9.66602 18.501 12.999l23.5 10.5c8 3.66699 15.667 8.5 23 14.5s13.666 14 18.999 24c5.33301 10.667 8.16602 22.334 8.49902 35.001s-1.5 25 -5.5 37
s-9.83301 23 -17.5 33s-16.834 17.667 -27.501 23zM465.988 -69.0029c-5.33301 16 -13.999 27.332 -25.999 33.999s-25.333 11.334 -40 14.001s-29.334 4.66699 -44.001 6s-27.334 4.66602 -38.001 9.99902c-31.333 0 -58.5 -0.833008 -81.5 -2.5
s-45.167 -7.83398 -66.5 -18.501c-10.667 0 -18.834 -3.5 -24.501 -10.5s-10.5 -15.167 -14.5 -24.5s-7.66699 -18.666 -11 -27.999s-7.66602 -16.666 -12.999 -21.999c0 -10.667 2.33301 -21 7 -31s11 -19 19 -27s17.167 -14.333 27.5 -19s20.833 -7 31.5 -7
c20.667 0 41.667 -1 63 -3s42.5 -3 63.5 -3s42 1.83301 63 5.5s42.167 10.834 63.5 21.501c20.667 10 31.834 24.667 33.501 44s-2.5 39.666 -12.5 60.999z" />
    <glyph glyph-name="h" unicode="h" horiz-adv-x="663" 
d="M195 642c0 -22 -0.998047 -45.165 -2.99805 -69.498s-3.66699 -49 -5 -74s-1.66602 -49.833 -0.999023 -74.5s3.66699 -48 9 -70c16.667 10.667 33.5 24.667 50.5 42s35.333 32.833 55 46.5s40.667 23.5 63 29.5s47.5 3.66699 75.5 -7c18 0 32.167 -3.33301 42.5 -10
s18.166 -15.5 23.499 -26.5s8.83301 -23.667 10.5 -38s2.66699 -28.833 3 -43.5s1 -29 2 -43s3.16699 -26.667 6.5 -38c-5.33301 -16 -8.5 -33.5 -9.5 -52.5s-1.5 -38.333 -1.5 -58s-0.5 -39 -1.5 -58s-4.16699 -36.833 -9.5 -53.5
c7.33301 -7.33301 16.166 -11.333 26.499 -12s21 -0.166992 32 1.5s21.667 3.66699 32 6s19.166 3.16602 26.499 2.49902s12.5 -4 15.5 -10s2.83301 -16.333 -0.5 -31c-11.333 -5.33301 -23.5 -8.5 -36.5 -9.5s-26.5 -1.5 -40.5 -1.5s-27.667 -0.5 -41 -1.5
s-25.333 -4.16699 -36 -9.5c-11.333 5.33301 -23.5 7.5 -36.5 6.5s-25 -1.5 -36 -1.5s-20.333 2.33301 -28 7s-11.5 15.334 -11.5 32.001c10.667 5.33301 20.5 8.33301 29.5 9s17.833 1 26.5 1s17.334 0.5 26.001 1.5s18.667 4.16699 30 9.5
c-6 33.333 -9.5 64.166 -10.5 92.499s-1.5 55.666 -1.5 81.999s-0.333008 52.333 -1 78s-4 52.5 -10 80.5c0 10.667 -4.5 21.5 -13.5 32.5s-19.5 22.167 -31.5 33.5c-22 0 -43.667 -5.16699 -65 -15.5s-41.666 -23.666 -60.999 -39.999s-37.166 -35.166 -53.499 -56.499
s-29.833 -43 -40.5 -65v-222c6 -5.33301 15 -7.33301 27 -6s24.167 2 36.5 2s23.166 -2.33301 32.499 -7s14 -15.334 14 -32.001c-22 -5.33301 -43.833 -8.5 -65.5 -9.5s-43.5 -1.5 -65.5 -1.5s-44.167 -0.5 -66.5 -1.5s-44.833 -4.16699 -67.5 -9.5v44
c5.33301 11.333 12 17.666 20 18.999s17 0.666016 27 -2.00098s20.333 -6.16699 31 -10.5s21.667 -6.5 33 -6.5c-5.33301 22 -7.33301 42.667 -6 62l4 56c1.33301 18 1.16602 35.5 -0.500977 52.5s-7.83398 34.167 -18.501 51.5c5.33301 16.667 7.33301 35.5 6 56.5l-4 64.5
c-1.33301 22 -1.33301 43.5 0 64.5s7.66602 39.5 18.999 55.5c-5.33301 11.333 -8.33301 22.666 -9 33.999s-0.333984 22.5 0.999023 33.5s3 22.167 5 33.5s3 22.666 3 33.999c-7.33301 7.33301 -15.166 11.5 -23.499 12.5s-16.833 0.666992 -25.5 -1
s-17.167 -3.66699 -25.5 -6s-16.333 -3.16602 -24 -2.49902s-14.5 4 -20.5 10s-10.667 16.333 -14 31c10.667 10.667 22.667 16.834 36 18.501s27 1.83398 41 0.500977s27.833 -2.5 41.5 -3.5s25.834 1.16699 36.501 6.5z" />
    <glyph glyph-name="i" unicode="i" horiz-adv-x="505" 
d="M280 475c10.667 -16 16.6641 -31.9971 17.9971 -47.9971s1.33301 -32.667 0 -50l-4 -54.5c-1.33301 -19 0.666992 -38.833 6 -59.5c0 -32 -3.33301 -63.667 -10 -95s-10 -63 -10 -95c10.667 -5.33301 22.334 -8.33301 35.001 -9s25.5 -0.333984 38.5 0.999023
s25.833 3 38.5 5s24.667 3 36 3h42c20.667 -22 20.667 -43.667 0 -65v-20h-381c-11.333 0 -22.166 3.33301 -32.499 10s-20.833 10 -31.5 10c-5.33301 5.33301 -7.16602 10.666 -5.49902 15.999s4.5 10.833 8.5 16.5l12 16.5c4 5.33301 6 10.666 6 15.999
s1.16699 8.33301 3.5 9s5.5 0.333984 9.5 -0.999023s8.66699 -3 14 -5s10.666 -3 15.999 -3c10.667 -5.33301 22.167 -8.33301 34.5 -9s24.5 -0.333984 36.5 0.999023s22.833 3 32.5 5s17.167 3 22.5 3c-5.33301 26 -8.16602 53.333 -8.49902 82s0 57.667 1 87
s2.5 58.333 4.5 87s3 56.334 3 83.001c-21.333 10 -46.833 11.667 -76.5 5s-60.5 -15.667 -92.5 -27c-10.667 5.33301 -17.667 11.833 -21 19.5s-4.33301 15.5 -3 23.5s4.33301 15.667 9 23s9.66699 13.666 15 18.999h234zM321.997 644.003
c5.33301 -5.33301 8.16895 -10.666 8.50195 -15.999s-0.833984 -10.5 -3.50098 -15.5s-6.5 -10.167 -11.5 -15.5l-15.5 -16c-5.33301 -5.33301 -11.666 -9.33301 -18.999 -12s-15 -4 -23 -4s-15.833 1.33301 -23.5 4s-14.167 6.66699 -19.5 12s-11.333 9.66602 -18 12.999
s-12.667 7 -18 11s-9 8.83301 -11 14.5s-0.333008 13.834 5 24.501c5.33301 16 15.166 29 29.499 39s29.333 15.667 45 17s30.667 -2.33398 45 -11.001s24.166 -23.667 29.499 -45z" />
    <glyph glyph-name="j" unicode="j" horiz-adv-x="388" 
d="M323 469c4.66699 -15.333 7.33398 -31.6641 8.00098 -48.9971s1 -35.333 1 -54s0.5 -38 1.5 -58s3.83301 -40 8.5 -60v-320c-4.66699 -5.33301 -9.33398 -9.33301 -14.001 -12s-8.83398 -5.33398 -12.501 -8.00098s-6.66699 -5.5 -9 -8.5s-3.5 -7.16699 -3.5 -12.5
c-10 -5.33301 -21 -12.166 -33 -20.499s-25 -15.5 -39 -21.5s-28.5 -9.5 -43.5 -10.5s-30.167 3.5 -45.5 13.5c-4.66699 0 -11.667 0.166992 -21 0.5s-19.666 1.83301 -30.999 4.5s-23 6.5 -35 11.5s-23 12.5 -33 22.5c0 10 -0.833008 21.167 -2.5 33.5
s-2.33398 24.833 -2.00098 37.5s2.33301 25 6 37s10.5 23 20.5 33c4.66699 0 10.5 0.833008 17.5 2.5s14.167 2.5 21.5 2.5s14.5 -1.66699 21.5 -5s13.167 -10 18.5 -20c0 -4.66699 -0.166992 -10.5 -0.5 -17.5s-1.83301 -13.667 -4.5 -20s-6.66699 -11.666 -12 -15.999
s-13 -6.5 -23 -6.5c0 -10 2.33301 -17.833 7 -23.5s10.667 -10.334 18 -14.001s16 -7.16699 26 -10.5s20 -7.66602 30 -12.999c10 0 20.833 0.333008 32.5 1s23.167 2.83398 34.5 6.50098s21.666 9.66699 30.999 18s16.333 20.166 21 35.499c0 40 -0.833008 80 -2.5 120
s-3.16699 79.333 -4.5 118s-1.66602 76.667 -0.999023 114s3.33398 73.666 8.00098 108.999c-5.33301 5.33301 -10.333 9.16602 -15 11.499s-8.66699 4.16602 -12 5.49902c-4 1.33301 -8 2.33301 -12 3c-15.333 0 -30.5 -1 -45.5 -3s-29.333 -3.5 -43 -4.5
s-26.667 -1.33301 -39 -1s-23.5 3.16602 -33.5 8.49902c-4 4 -7.33301 8 -10 12c-2.66699 3.33301 -5 7.5 -7 12.5s-3 10.167 -3 15.5l40 20c40 0 79.167 -0.833008 117.5 -2.5s72.5 -7.5 102.5 -17.5zM342 648.002c5.33301 -10 8.33398 -18.668 9.00098 -26.001
s-0.333008 -14.166 -3 -20.499s-6.33398 -12.166 -11.001 -17.499s-9.33398 -10.333 -14.001 -15c-10 -4.66699 -19.833 -6.16699 -29.5 -4.5s-18.834 5 -27.501 10s-16.667 10.667 -24 17s-13.666 12.166 -18.999 17.499v39c10.667 11.333 21.834 21 33.501 29
s27.167 12 46.5 12c10 0 19 -4 27 -12s12 -17.667 12 -29z" />
    <glyph glyph-name="k" unicode="k" horiz-adv-x="632" 
d="M195 672c0 -38 -0.998047 -76.002 -2.99805 -114.002s-3.66699 -75.333 -5 -112s-1.66602 -72.5 -0.999023 -107.5s3.66699 -68.833 9 -101.5c16 10.667 33.333 22.834 52 36.501l56.5 43c19 15 37.667 30.5 56 46.5l52.5 48c0 5.33301 -4.33301 9.83301 -13 13.5
s-17.167 7.5 -25.5 11.5s-14.166 9 -17.499 15s0.666992 14.333 12 25c21.333 0 42.833 0.833008 64.5 2.5s42.667 2.5 63 2.5s40 -1.83301 59 -5.5s36.5 -10.834 52.5 -21.501c0 -14.667 -2.16699 -24.834 -6.5 -30.501s-10 -8.83398 -17 -9.50098
s-14.667 0.166016 -23 2.49902s-16.666 4.33301 -24.999 6s-15.833 2 -22.5 1s-11.667 -5.16699 -15 -12.5c-11.333 -10.667 -24.5 -21.5 -39.5 -32.5l-45 -32.5c-15 -10.667 -28.667 -21.5 -41 -32.5s-21.166 -21.833 -26.499 -32.5l49 -61l46.5 -57.5
c15 -19 29 -38.333 42 -58s24.833 -40.5 35.5 -62.5c10.667 0 22.5 2 35.5 6s24.833 6.66699 35.5 8s19.667 -0.166992 27 -4.5s11 -14.5 11 -30.5c0 -11.333 -0.833008 -17.833 -2.5 -19.5s-7.83398 -2.5 -18.501 -2.5c-11.333 5.33301 -22.333 8.33301 -33 9
s-21.5 0.333984 -32.5 -0.999023s-21.833 -3 -32.5 -5s-21.334 -3 -32.001 -3c-6 0 -14 -1 -24 -3s-20.5 -3 -31.5 -3s-21.333 1.83301 -31 5.5s-17.167 11.167 -22.5 22.5c4 4 8.33301 7.33301 13 10c4 2.66699 8.66699 5.16699 14 7.5s11 3.5 17 3.5
c5.33301 5.33301 10.5 8.5 15.5 9.5s9.5 1.5 13.5 1.5s7.16699 0.5 9.5 1.5s3.5 4.16699 3.5 9.5c-10.667 10.667 -21.5 23.834 -32.5 39.501l-34.5 50c-12 17.667 -25 35.667 -39 54s-29 35.5 -45 51.5c-10.667 -5.33301 -20.334 -11.833 -29.001 -19.5
s-17 -15.5 -25 -23.5s-16.333 -15.833 -25 -23.5s-18.334 -14.5 -29.001 -20.5c5.33301 -10.667 7.33301 -21.334 6 -32.001s-3.33301 -21.5 -6 -32.5s-4.66699 -22 -6 -33s0.666992 -21.833 6 -32.5c10.667 0 21.334 1 32.001 3s20.667 3.66699 30 5
s18 1.66602 26 0.999023s14.667 -3.66699 20 -9c0 -21.333 -3.66699 -34.666 -11 -39.999s-16.333 -7.16602 -27 -5.49902s-22.334 3.83398 -35.001 6.50098s-24.334 1.33398 -35.001 -3.99902c-11.333 -5.33301 -22.333 -8.5 -33 -9.5s-21.5 -1.5 -32.5 -1.5
s-21.833 -0.5 -32.5 -1.5s-21.334 -4.16699 -32.001 -9.5c-23.333 22 -23.333 43.667 0 65c5.33301 16 10.666 24.167 15.999 24.5s11.333 -1.5 18 -5.5s14.167 -7.16699 22.5 -9.5s18.166 1.83398 29.499 12.501l-21 477c0 5.33301 1 12 3 20s3.66699 16 5 24
s1.66602 15.833 0.999023 23.5s-3.66699 14.167 -9 19.5c-6 0 -12.833 -0.833008 -20.5 -2.5s-15.5 -2.5 -23.5 -2.5s-15.833 1.66699 -23.5 5s-14.5 10.333 -20.5 21c-5.33301 10.667 -6 18 -2 22s9.33301 6.83301 16 8.5s13.334 3 20.001 4s10 4.16699 10 9.5
c10.667 -5.33301 21.334 -8.5 32.001 -9.5s20.834 -1.5 30.501 -1.5s18.5 -0.333008 26.5 -1s14.667 -3.66699 20 -9z" />
    <glyph glyph-name="l" unicode="l" horiz-adv-x="559" 
d="M284 651c5.33301 5.33301 10.499 8.16895 15.499 8.50195s9.33301 -0.666992 13 -3s6.66699 -6 9 -11s3.5 -9.83301 3.5 -14.5v-537c-5.33301 0 -8.16602 -1.16699 -8.49902 -3.5s0 -5.5 1 -9.5s2.5 -8.5 4.5 -13.5s3 -10.167 3 -15.5h187
c4.66699 0 9.5 -1.16699 14.5 -3.5s8.66699 -5.5 11 -9.5s3.33301 -8.5 3 -13.5s-3.16602 -9.83301 -8.49902 -14.5c-5.33301 -10 -11.5 -16.833 -18.5 -20.5s-14.5 -5.5 -22.5 -5.5s-15.667 0.833008 -23 2.5s-13.666 2.5 -18.999 2.5
c-26 -5.33301 -50.667 -8.16602 -74 -8.49902s-45.833 0 -67.5 1s-43 2.5 -64 4.5s-41.833 3 -62.5 3c-15.333 0 -28.5 -1 -39.5 -3s-21 -3.5 -30 -4.5s-17.667 -1.33301 -26 -1s-17.833 3.16602 -28.5 8.49902c-10 0 -16.833 1.33301 -20.5 4s-5.5 6.5 -5.5 11.5
s0.833008 11.5 2.5 19.5s2.5 17 2.5 27c16 10.667 30.833 15.667 44.5 15s27.5 -3 41.5 -7s29.167 -7.66699 45.5 -11s34.833 -2.33301 55.5 3c0 -5.33301 1 -8.33301 3 -9s4.33301 -0.333984 7 0.999023c2.66699 2 6 4.66699 10 8c10.667 11.333 16.834 22 18.501 32
s2.5 20 2.5 30c-5.33301 30.667 -7.33301 62.667 -6 96s3.16602 66.833 5.49902 100.5s4.16602 67 5.49902 100s-0.333984 65.167 -5.00098 96.5v61c-6.66699 10.667 -17 16.667 -31 18s-29.167 1.16602 -45.5 -0.500977s-33 -3.66699 -50 -6s-32 -2.33301 -45 0
s-23 8.83301 -30 19.5s-8.83301 28 -5.5 52h227z" />
    <glyph glyph-name="m" unicode="m" horiz-adv-x="638" 
d="M553 429c-5.33301 -31.333 -8.49512 -62.8389 -9.49512 -94.5059s-1.5 -62.667 -1.5 -93s-0.333008 -60 -1 -89s-3.66699 -56.833 -9 -83.5c5.33301 -5.33301 12.666 -8.5 21.999 -9.5s18 -2.16699 26 -3.5s14 -3.83301 18 -7.5s3.33301 -10.834 -2 -21.501
c5.33301 -10 7.16602 -16.833 5.49902 -20.5s-4.5 -6.16699 -8.5 -7.5s-8.16699 -2.5 -12.5 -3.5s-6.5 -4.16699 -6.5 -9.5c-7.33301 3.33301 -16.333 4.83301 -27 4.5s-21.834 -1.16602 -33.501 -2.49902s-23 -2.16602 -34 -2.49902s-20 1.16699 -27 4.5
s-11.333 9.5 -13 18.5s1.16602 22.167 8.49902 39.5h21c10.667 10.667 16.667 20.334 18 29.001s1.5 17.667 0.5 27s-2 19.5 -3 30.5s1.16699 24.5 6.5 40.5c-5.33301 16 -7.5 32 -6.5 48l3 48c1 16 0.833008 31.833 -0.5 47.5s-7.33301 31.5 -18 47.5
c5.33301 5.33301 8.33301 11.666 9 18.999s0.333984 15 -0.999023 23s-3 15.667 -5 23s-3 13.666 -3 18.999c-10.667 -10.667 -21.167 -20.167 -31.5 -28.5l-29.5 -24.5c-9.33301 -8 -17.833 -16.167 -25.5 -24.5s-14.167 -17.833 -19.5 -28.5
c0 -5.33301 -1.16699 -11.666 -3.5 -18.999l-7 -23l-7 -23c-2.33301 -7.33301 -3.5 -13.666 -3.5 -18.999v-191c5.33301 -5.33301 10.5 -9.5 15.5 -12.5s9.5 -5.83301 13.5 -8.5s7.33301 -5.5 10 -8.5s4 -7.16699 4 -12.5c4.66699 -5.33301 7.33398 -9.33301 8.00098 -12
s-0.333008 -5.33398 -3 -8.00098s-6.5 -5.5 -11.5 -8.5s-10.167 -7.16699 -15.5 -12.5c-5.33301 0 -11.833 1 -19.5 3s-16.167 3.66699 -25.5 5s-19.166 1.66602 -29.499 0.999023s-20.833 -3.66699 -31.5 -9c-10 10.667 -15.833 21 -17.5 31s-2.5 20.333 -2.5 31
c10 0 19.5 0.833008 28.5 2.5s13.5 7.83398 13.5 18.501c0 26.667 1 53.334 3 80.001s3.66699 53.834 5 81.501s1.66602 56.167 0.999023 85.5s-3.66699 60 -9 92c0 5.33301 -1.33301 10.333 -4 15s-6 8.33398 -10 11.001s-8.5 3.83398 -13.5 3.50098
s-9.83301 -3.16602 -14.5 -8.49902c-26.667 -16 -47.334 -35.5 -62.001 -58.5s-25.334 -48.333 -32.001 -76s-10.5 -57 -11.5 -88s-1.5 -62.5 -1.5 -94.5c5.33301 0 7.66602 -4.33301 6.99902 -13s-1 -17.667 -1 -27s2.16699 -17 6.5 -23s14.5 -6.33301 30.5 -1
c10.667 0 16.834 -4.33301 18.501 -13s2.5 -18 2.5 -28c-21.333 -10.667 -43.333 -16.834 -66 -18.501s-50 -2.5 -82 -2.5l-21 21c0 10 0.833008 19.333 2.5 28s7.83398 13 18.501 13c5.33301 0 9.66602 0.166992 12.999 0.5s6.33301 1.16602 9 2.49902s5.5 3.33301 8.5 6
s7.16699 6.66699 12.5 12c-5.33301 26.667 -8.33301 53.167 -9 79.5s-0.333984 52.833 0.999023 79.5s3 53.167 5 79.5s3 52.833 3 79.5c-5.33301 5.33301 -11.666 8.5 -18.999 9.5s-14.333 2.16699 -21 3.5s-12.334 3.83301 -17.001 7.5s-7 10.834 -7 21.501
s0.833008 20.334 2.5 29.001s7.83398 13 18.501 13c7.33301 -7.33301 15.5 -11.833 24.5 -13.5s17.667 -2.5 26 -2.5s16.166 0.166992 23.499 0.5s13 -0.666992 17 -3s5.66699 -6.83301 5 -13.5s-4.66699 -17 -12 -31h21l46 42c19.333 17.333 39.333 31.333 60 42
c11.333 0 25.666 -5.16699 42.999 -15.5s31.333 -26.166 42 -47.499v-21c10.667 5.33301 20.334 12.666 29.001 21.999l26.5 28c9 9.33301 19.167 17.333 30.5 24s25 10 41 10c5.33301 -5.33301 11.833 -9.66602 19.5 -12.999s15.334 -7 23.001 -11
s15.167 -8.83301 22.5 -14.5s13.666 -13.834 18.999 -24.501z" />
    <glyph glyph-name="n" unicode="n" horiz-adv-x="659" 
d="M217 453c0 -5.33301 -1.00488 -10.8369 -3.00488 -16.5039s-3.66699 -11.167 -5 -16.5s-1.66602 -10.833 -0.999023 -16.5s3.66699 -11.5 9 -17.5c6 0 11.833 2.33301 17.5 7s11.334 9.83398 17.001 15.501s11.334 10.834 17.001 15.501s11.167 7 16.5 7
c5.33301 16.667 13.333 28.5 24 35.5s22.334 12 35.001 15s25.5 5.16699 38.5 6.5s25.167 4.66602 36.5 9.99902c10.667 0 21.5 -2.5 32.5 -7.5s21.5 -11 31.5 -18s19 -14.333 27 -22l21 -19.5c5.33301 -33.333 8.33301 -65.666 9 -96.999s0.333984 -62.333 -0.999023 -93
s-3 -61.667 -5 -93s-3 -63.666 -3 -96.999h44c6 6 10.667 9.33301 14 10s6.33301 0.166992 9 -1.5l8.5 -5.5c3 -2 7.16699 -3 12.5 -3c11.333 0 18 -4.5 20 -13.5s3 -19.167 3 -30.5c-11.333 -11.333 -23.666 -18.833 -36.999 -22.5s-27 -5.5 -41 -5.5s-27.667 1 -41 3
s-25.666 3 -36.999 3c-6 5.33301 -15 7.5 -27 6.5s-24.333 -2.33301 -37 -4s-23.667 -1.66699 -33 0s-14 8.16699 -14 19.5s0.833008 21.5 2.5 30.5s7.83398 13.5 18.501 13.5h90c-11.333 33.333 -16.833 66.666 -16.5 99.999s1.16602 66.166 2.49902 98.499
s0.666016 63.666 -2.00098 93.999s-12.334 59.5 -29.001 87.5c-11.333 5.33301 -23.666 8.16602 -36.999 8.49902s-27 -1.66699 -41 -6s-27.833 -10.5 -41.5 -18.5s-25.834 -17.667 -36.501 -29c-17.333 -11.333 -31.5 -26.166 -42.5 -44.499s-19.333 -38.666 -25 -60.999
s-8.5 -45.666 -8.5 -69.999s2.66699 -47.5 8 -69.5c-5.33301 -6 -8.5 -11.667 -9.5 -17s-1.5 -10.833 -1.5 -16.5s-0.333008 -11.167 -1 -16.5s-3.66699 -11 -9 -17c7.33301 -7.33301 16.166 -12.666 26.499 -15.999s20.833 -5.83301 31.5 -7.5s20.834 -3.16699 30.501 -4.5
s17.5 -4.16602 23.5 -8.49902s9.16699 -10.5 9.5 -18.5s-3.16699 -19.333 -10.5 -34h-67c-16.667 0 -34.5 -1 -53.5 -3s-37.5 -3 -55.5 -3s-35 1.83301 -51 5.5s-29.333 11.167 -40 22.5c5.33301 5.33301 7.33301 10.833 6 16.5l-4 16.5
c-1.33301 5.33301 -1.33301 10.833 0 16.5s7.66602 11.5 18.999 17.5c6 0 13 -1 21 -3s16.167 -3.83301 24.5 -5.5s16.5 -2.16699 24.5 -1.5s14.667 4 20 10v357c-5.33301 5.33301 -12.166 6.33301 -20.499 3s-17.333 -7.16602 -27 -11.499s-20 -6.83301 -31 -7.5
s-21.833 4.66602 -32.5 15.999c0 5.33301 1.16699 11.833 3.5 19.5s5.5 15 9.5 22s8.66699 13 14 18s11 7.5 17 7.5c7.33301 -7.33301 15.333 -11.5 24 -12.5s17.334 -0.666992 26.001 1s17.167 3.66699 25.5 6s16.166 3 23.499 2s14 -4.5 20 -10.5s10.667 -16.333 14 -31z
" />
    <glyph glyph-name="o" unicode="o" horiz-adv-x="555" 
d="M490 382c21.333 -53.333 31.1699 -106.668 29.5029 -160.001s-18.5 -106.666 -50.5 -159.999c-10.667 -10.667 -25.834 -21.167 -45.501 -31.5l-61.5 -31.5l-44.5 -15c-13.667 -4.66699 -27.167 -7.66699 -40.5 -9s-26.833 -0.333008 -40.5 3s-28.5 10.333 -44.5 21h-21
c-26.667 10.667 -48.334 24.834 -65.001 42.501s-30.334 37.167 -41.001 58.5s-19.167 43.5 -25.5 66.5s-12.166 45.167 -17.499 66.5c0 10.667 2.16699 20.167 6.5 28.5s9.33301 16.5 15 24.5s10.667 16.167 15 24.5s6.5 17.833 6.5 28.5
c5.33301 21.333 14.166 40 26.499 56s26.5 30 42.5 42s32.667 22.167 50 30.5s34 15.166 50 20.499c16 0 32 -0.166992 48 -0.5s32 -1.83301 48 -4.5s32 -7 48 -13s32 -14.333 48 -25zM426.004 317.998c-10.667 5.33301 -19.001 11.667 -25.001 19l-17 21
c-5.33301 6.66699 -11 12.334 -17 17.001s-14.333 7 -25 7c-16 5.33301 -32 10.166 -48 14.499s-32 6.5 -48 6.5s-32 -3.16699 -48 -9.5s-32 -17.5 -48 -33.5c-10.667 -10.667 -17.834 -21.334 -21.501 -32.001s-5.5 -22 -5.5 -34s0.833008 -24.833 2.5 -38.5
s2.5 -28.5 2.5 -44.5s2.5 -31.667 7.5 -47s11.5 -29.666 19.5 -42.999s17.167 -25.166 27.5 -35.499s20.833 -18.166 31.5 -23.499c32 -10.667 63 -15 93 -13s55.667 13.667 77 35c16 16 28.167 34.167 36.5 54.5s13.833 41.166 16.5 62.499s2.83398 42.166 0.500977 62.499
s-6.16602 38.5 -11.499 54.5z" />
    <glyph glyph-name="p" unicode="p" horiz-adv-x="603" 
d="M230 479c0 -10.667 0.834961 -21.168 2.50195 -31.501s7.83398 -20.833 18.501 -31.5c42 62.667 105.333 83.667 190 63l34 -16.5c12 -5.66699 23.333 -12.5 34 -20.5s19.5 -17.5 26.5 -28.5s10.5 -24.5 10.5 -40.5c10.667 -21.333 18.5 -45.833 23.5 -73.5
s6.83301 -56 5.5 -85s-6 -57.333 -14 -85s-20 -51.834 -36 -72.501c-21.333 -21.333 -43.333 -37.166 -66 -47.499s-50 -15.5 -82 -15.5c-5.33301 -5.33301 -10.666 -6.16602 -15.999 -2.49902l-18 13c-6.66699 5 -14 9.33301 -22 13s-17.333 2.83398 -28 -2.49902l-63 63
c-5.33301 -16 -8.33301 -32 -9 -48s-0.333984 -32.5 0.999023 -49.5s3 -34.833 5 -53.5s3 -38.667 3 -60c10.667 -5.33301 24.334 -6.66602 41.001 -3.99902s32.834 4 48.501 4s29.167 -3.83301 40.5 -11.5s17 -24.834 17 -51.501c-16 -10.667 -31.833 -15.667 -47.5 -15
s-31.334 3 -47.001 7s-31.334 7.66699 -47.001 11s-31.5 2.33301 -47.5 -3c-10.667 5.33301 -20 7.33301 -28 6s-15.333 -3.33301 -22 -6s-12.834 -4.66699 -18.501 -6s-11.167 0.666992 -16.5 6c-5.33301 0 -11.666 0.166992 -18.999 0.5s-15 1.16602 -23 2.49902
s-15.667 3.33301 -23 6s-13.666 6.66699 -18.999 12c5.33301 10.667 11.666 19.834 18.999 27.501s15 13.5 23 17.5s15.667 5.83301 23 5.5s13.666 -3.16602 18.999 -8.49902h64v528c-10.667 5.33301 -23.334 7.5 -38.001 6.5s-28.5 -1.5 -41.5 -1.5
s-24.167 2.16699 -33.5 6.5s-14 14.5 -14 30.5c0 5.33301 0.166992 11.666 0.5 18.999s1.16602 14.166 2.49902 20.499s3.33301 11.833 6 16.5s6.66699 7 12 7c16 0 30.833 -1.16699 44.5 -3.5l40 -7l40 -7c13.667 -2.33301 28.5 -3.5 44.5 -3.5zM399.002 415.999
c-5.33301 -5.33301 -10.666 -7.49902 -15.999 -6.49902s-10.666 2.16699 -15.999 3.5s-10.666 1.33301 -15.999 0s-10.666 -7.33301 -15.999 -18c-10.667 0 -19 -3.5 -25 -10.5s-11.667 -15.167 -17 -24.5s-11 -18.666 -17 -27.999s-14.333 -16.666 -25 -21.999
c-21.333 -21.333 -21.333 -42.333 0 -63c-10.667 0 -16.834 -4.33301 -18.501 -13s-2.5 -18.334 -2.5 -29.001c16 -10.667 28.5 -23.334 37.5 -38.001s17.5 -29.334 25.5 -44.001s16.5 -28 25.5 -40s21.5 -20.667 37.5 -26c10.667 5.33301 21.167 8.5 31.5 9.5
s20.166 2.16699 29.499 3.5s17.833 3.83301 25.5 7.5s14.167 10.834 19.5 21.501c10.667 5.33301 17.834 10.666 21.501 15.999s6.16699 11.333 7.5 18s2.5 14.167 3.5 22.5s4.16699 17.833 9.5 28.5c0 5.33301 1 11.833 3 19.5s3.66699 16 5 25s1.66602 18.667 0.999023 29
s-3.66699 20.833 -9 31.5c0 10.667 -3.33301 19 -10 25s-13.834 11.667 -21.501 17s-14.834 11 -21.501 17s-10 14.333 -10 25z" />
    <glyph glyph-name="q" unicode="q" horiz-adv-x="604" 
d="M457 461l0.000976562 -558c-5.33301 -5.33301 -9.33301 -12 -12 -20s-3.33398 -16.167 -2.00098 -24.5s4.83301 -16.5 10.5 -24.5s14.167 -14.667 25.5 -20h90c5.33301 0 8.33301 -1.16699 9 -3.5s-0.5 -4.83301 -3.5 -7.5s-7 -5.16699 -12 -7.5s-10.5 -3.5 -16.5 -3.5
c-22 -6 -45.167 -11.333 -69.5 -16s-48.333 -7.83398 -72 -9.50098s-46.334 -0.666992 -68.001 3s-40.834 11.167 -57.501 22.5c3.33301 11.333 9.5 18.166 18.5 20.499s19 3.16602 30 2.49902s21.833 -1.83398 32.5 -3.50098s19.5 -1 26.5 2s11.167 9.33301 12.5 19
s-1.66699 25.834 -9 48.501c5.33301 16.667 8.5 33.334 9.5 50.001s1.5 33.5 1.5 50.5s0.5 33.833 1.5 50.5s4.16699 33.334 9.5 50.001l-32.5 -33c-11 -10.667 -22 -20.334 -33 -29.001s-22.167 -15.5 -33.5 -20.5s-22.666 -7.5 -33.999 -7.5
c-89.333 -22 -156.333 0.666992 -201 68c-5.33301 10.667 -9.66602 21.667 -12.999 33s-6.33301 22.5 -9 33.5s-5.66699 22 -9 33s-8 22.167 -14 33.5c-5.33301 22 -7 44.167 -5 66.5s6.5 44 13.5 65s15.667 41.167 26 60.5s21.166 37.333 32.499 54
c11.333 -6 20.333 -6 27 0s13.5 13.333 20.5 22s15.333 16 25 22s22.834 6 39.501 0c22 11.333 44.167 13.333 66.5 6s44.833 -16.666 67.5 -27.999c0 -11.333 2.33301 -20.166 7 -26.499s9.66699 -11.5 15 -15.5l15 -11.5c4.66699 -3.66699 7 -8.16699 7 -13.5
c5.33301 5.33301 7.66602 13 6.99902 23s-1 19.833 -1 29.5s2.33301 18.167 7 25.5s15.334 11 32.001 11c4 0 7.66699 -1 11 -3c2.66699 -1.33301 5.16699 -3.5 7.5 -6.5s3.5 -7.16699 3.5 -12.5zM324.001 394c-11.333 5.33301 -21.5 9.5 -30.5 12.5
s-17.667 5.16699 -26 6.5s-17 2.16602 -26 2.49902s-18.833 0.5 -29.5 0.5c-22.667 -11.333 -44.167 -27.166 -64.5 -47.499s-36.166 -41.5 -47.499 -63.5c-22 -112 0.333008 -201.333 67 -268c16.667 0 32.167 0.166992 46.5 0.5s27.833 2 40.5 5s24.667 7.5 36 13.5
s22.666 14.667 33.999 26c5.33301 16.667 14 32.167 26 46.5s22.833 28.5 32.5 42.5s16.167 28.167 19.5 42.5s-0.666992 29.833 -12 46.5c5.33301 16.667 5 31 -1 43s-13.833 22.833 -23.5 32.5l-28 28c-9 9 -13.5 19.167 -13.5 30.5z" />
    <glyph glyph-name="r" unicode="r" horiz-adv-x="579" 
d="M260 391l50.4951 46.999c17 15.333 35 27.833 54 37.5s39.667 15.334 62 17.001s47.166 -2.83301 74.499 -13.5c5.33301 0 10.666 -2.33301 15.999 -7s10.833 -10.5 16.5 -17.5s11.167 -14.333 16.5 -22s10.666 -14.167 15.999 -19.5v-88
c-11.333 -10.667 -22.166 -16.834 -32.499 -18.501s-21.166 -2.5 -32.499 -2.5c-11.333 10.667 -21.5 22.334 -30.5 35.001s-13.5 30 -13.5 52c0 5.33301 3.16699 9.66602 9.5 12.999s12.333 6.33301 18 9s8.83398 5.66699 9.50098 9s-4.33301 7.66602 -15 12.999
c-11.333 5.33301 -22.333 7 -33 5s-21.5 -6.5 -32.5 -13.5s-22 -15.667 -33 -26l-32.5 -31.5c-5.33301 -11.333 -13.166 -21.333 -23.499 -30l-32 -27.5c-11 -9.66699 -21.5 -20.167 -31.5 -31.5s-17.667 -25.333 -23 -42c22.667 -22 34.834 -44 36.501 -66
s-3.16602 -43.667 -14.499 -65c0 -11.333 1 -21.5 3 -30.5s8.66699 -13.5 20 -13.5c10.667 -5.33301 21.334 -7.5 32.001 -6.5s20.667 2.16699 30 3.5s18 1.16602 26 -0.500977s15 -7.83398 21 -18.501c0 -5.33301 1.16699 -9.66602 3.5 -12.999s4.83301 -6.33301 7.5 -9
s5.16699 -5.5 7.5 -8.5s3.5 -7.16699 3.5 -12.5c-11.333 -5.33301 -22.5 -8.5 -33.5 -9.5s-22 -1.5 -33 -1.5s-21.833 -0.5 -32.5 -1.5s-21.334 -4.16699 -32.001 -9.5c-11.333 0 -22.5 2 -33.5 6s-22 7.33301 -33 10s-22 3.33398 -33 2.00098s-21.833 -7.33301 -32.5 -18
c0 5.33301 -1.16699 9.5 -3.5 12.5s-4.83301 5.16699 -7.5 6.5c-3.33301 2 -7 3 -11 3c-10.667 -11.333 -21.5 -17.833 -32.5 -19.5s-22.167 -2.5 -33.5 -2.5c-5.33301 5.33301 -10.5 10.833 -15.5 16.5s-8.83301 11.834 -11.5 18.501s-3.66699 14.167 -3 22.5
s3.66699 18.166 9 29.499h153v350c-7.33301 7.33301 -15.166 11.333 -23.499 12s-17 0 -26 -2s-18 -4.5 -27 -7.5s-18 -5 -27 -6s-17.667 0.333008 -26 4s-16.166 10.834 -23.499 21.501c0 10.667 4.5 20.667 13.5 30s19.167 14 30.5 14c21.333 0 43 0.833008 65 2.5
s44 7.83398 66 18.501c10.667 -5.33301 17.834 -13 21.501 -23s6.16699 -20.5 7.5 -31.5l4 -31.5c1.33301 -10 4.66602 -17.667 9.99902 -23z" />
    <glyph glyph-name="s" unicode="s" horiz-adv-x="556" 
d="M321 473c10.667 5.33301 21.3369 5.33594 32.0039 0.00292969s21.5 -10 32.5 -14s21.833 -4.5 32.5 -1.5s21.667 15.167 33 36.5c4.66699 0 8.5 -1.16699 11.5 -3.5s5.83301 -4.66602 8.5 -6.99902s5.66699 -4.66602 9 -6.99902s7.66602 -3.5 12.999 -3.5
c0 -10.667 1 -22.334 3 -35.001s3.66699 -25.167 5 -37.5s1.66602 -23.5 0.999023 -33.5s-3.66699 -18 -9 -24c-10.667 -5.33301 -19 -7 -25 -5s-11 5.83301 -15 11.5s-7.66699 12 -11 19s-7.66602 13.167 -12.999 18.5s-10.666 8.33301 -15.999 9s-10.833 1 -16.5 1
s-11.167 0.5 -16.5 1.5s-10.666 4.16699 -15.999 9.5c-16 5.33301 -34.167 10.333 -54.5 15s-41.166 7 -62.499 7s-42.333 -3.16699 -63 -9.5s-39 -17.5 -55 -33.5c0 -5.33301 -1 -9.5 -3 -12.5s-3.66699 -5.83301 -5 -8.5s-1.66602 -5.66699 -0.999023 -9s3.66699 -8 9 -14
l43 -42c32 -5.33301 63.833 -8.83301 95.5 -10.5s62.167 -5.16699 91.5 -10.5s57.333 -14.333 84 -27s50.667 -32.334 72 -59.001c5.33301 -10.667 8.16602 -21.334 8.49902 -32.001s-0.833984 -21.334 -3.50098 -32.001s-6.5 -21.334 -11.5 -32.001l-15.5 -32
c-5.33301 -16 -14.166 -28.5 -26.499 -37.5s-25.833 -15.5 -40.5 -19.5s-29.334 -6.33301 -44.001 -7s-27.334 -1 -38.001 -1c-21.333 -5.33301 -42.5 -9 -63.5 -11s-41 -1.66699 -60 1s-36.333 8.16699 -52 16.5s-28.834 20.5 -39.501 36.5
c-10.667 0 -20.167 -4.16699 -28.5 -12.5l-25 -24.5c-8.33301 -8 -16.666 -13.667 -24.999 -17s-17.833 0.333984 -28.5 11.001c0 16 3.16699 31 9.5 45s12.166 27.833 17.499 41.5s8.5 27.334 9.5 41.001s-3.83301 28.5 -14.5 44.5c0 5.33301 -1 10.5 -3 15.5
s-3.66699 9.5 -5 13.5s-1.66602 7.33301 -0.999023 10s3.66699 4 9 4c4.66699 5.33301 9.66699 8.16602 15 8.49902s10.833 -0.833984 16.5 -3.50098s11 -6.5 16 -11.5l15.5 -15.5c0 -10.667 0.333008 -22.334 1 -35.001s3 -25 7 -37s10.5 -23 19.5 -33
s21.5 -17.667 37.5 -23c16 -10.667 35.333 -17.667 58 -21s46 -3.66602 70 -0.999023s47.5 7.83398 70.5 15.501s42.5 16.834 58.5 27.501c11.333 11.333 17.833 26.666 19.5 45.999s2.5 39.666 2.5 60.999c-13.333 16 -29.333 27.833 -48 35.5s-38.834 13 -60.501 16
s-43.834 4.66699 -66.501 5s-44.667 1.16602 -66 2.49902s-41.5 4.16602 -60.5 8.49902s-35.167 12 -48.5 23s-23.5 26.333 -30.5 46s-9.16699 45.5 -6.5 77.5c6 5.33301 11.833 11.833 17.5 19.5s11.667 14.834 18 21.501s13.666 12.334 21.999 17.001s17.833 7 28.5 7
c5.33301 5.33301 11.833 8.33301 19.5 9s15.5 1 23.5 1s15.833 0.5 23.5 1.5s14.167 4.16699 19.5 9.5c5.33301 -10.667 11.833 -15.834 19.5 -15.501s15.5 1.83301 23.5 4.5s15.667 4.33398 23 5.00098s13.666 -4.33301 18.999 -15z" />
    <glyph glyph-name="t" unicode="t" horiz-adv-x="505" 
d="M232 685c0 -16.667 -1.15527 -32.3359 -3.48828 -47.0029s-4.83301 -29 -7.5 -43s-5.16699 -28.167 -7.5 -42.5s-3.5 -29.833 -3.5 -46.5l22 -22c22 -6 44 -7.33301 66 -4l62 9c19.333 2.66699 37.166 2.83398 53.499 0.500977s30.166 -11.833 41.499 -28.5
c0 -11.333 -4.66699 -21.5 -14 -30.5s-19.666 -13.5 -30.999 -13.5c-11.333 5.33301 -24.833 8.33301 -40.5 9s-31.834 0.333984 -48.501 -0.999023s-33 -3 -49 -5s-29.333 -3 -40 -3c-5.33301 -22.667 -8.5 -45.167 -9.5 -67.5s-1.5 -44.666 -1.5 -66.999
s-0.5 -44.5 -1.5 -66.5s-4.16699 -44 -9.5 -66c5.33301 -11.333 8.66602 -22.333 9.99902 -33s2.66602 -20.334 3.99902 -29.001s4 -15.5 8 -20.5s11.667 -7.5 23 -7.5c5.33301 -11.333 10.666 -17.666 15.999 -18.999s10.666 -1.33301 15.999 0s10.833 2.5 16.5 3.5
s11.5 -1.16699 17.5 -6.5c16.667 5.33301 30 15.333 40 30l29.5 45c9.66699 15.333 21 29 34 41s30.5 18 52.5 18c0 -4.66699 1 -9.33398 3 -14.001c1.33301 -4 3.5 -8.83301 6.5 -14.5s7.16699 -11.167 12.5 -16.5c-16.667 -11.333 -31.167 -25.666 -43.5 -42.999
s-24.833 -33.666 -37.5 -48.999s-26.5 -27.5 -41.5 -36.5s-33.5 -10.833 -55.5 -5.5c-16.667 0 -33 1.5 -49 4.5s-31 7.16699 -45 12.5s-26.333 12.166 -37 20.499s-19 18.166 -25 29.499c0 11.333 -2.16699 21.333 -6.5 30s-8.5 16.5 -12.5 23.5s-6.83301 13.333 -8.5 19
s0.166016 11.5 5.49902 17.5c5.33301 22 8.5 45.167 9.5 69.5s1.5 48.333 1.5 72s0.5 46.334 1.5 68.001s4.16699 40.834 9.5 57.501c-11.333 0 -22.5 1 -33.5 3s-22 3.66699 -33 5s-22.167 1.66602 -33.5 0.999023s-22.666 -3.66699 -33.999 -9
c-11.333 0 -17.833 4.5 -19.5 13.5s-2.5 19.167 -2.5 30.5c11.333 11.333 22.666 18.833 33.999 22.5s23.166 5.5 35.499 5.5s25.666 -0.833008 39.999 -2.5s29.833 -2.5 46.5 -2.5c6 16.667 7.33301 34.5 4 53.5s-6.33301 38.333 -9 58s-2.83398 39 -0.500977 58
s11.833 36.833 28.5 53.5c5.33301 0 9.66602 -1.16699 12.999 -3.5s6.33301 -4.83301 9 -7.5s5.66699 -5.16699 9 -7.5s7.66602 -3.5 12.999 -3.5z" />
    <glyph glyph-name="u" unicode="u" horiz-adv-x="640" 
d="M196 455l0.00390625 -358.001c0 -11.333 2.5 -20 7.5 -26s11 -10.5 18 -13.5s14.333 -4.66699 22 -5s14.167 -0.5 19.5 -0.5c28 0 52.167 5.16699 72.5 15.5s38.166 23.833 53.499 40.5s29 35.667 41 57s23.667 43.333 35 66v179c-11.333 11.333 -21.333 18.833 -30 22.5
s-17.334 5.5 -26.001 5.5s-17.334 -1 -26.001 -3s-18.667 -3 -30 -3v45c11.333 6 23.666 9.33301 36.999 10s27 1 41 1s27.667 0.5 41 1.5s25.666 4.5 36.999 10.5c6 -11.333 9.33301 -23.833 10 -37.5s1 -27.5 1 -41.5s0.5 -27.667 1.5 -41s4.5 -25.666 10.5 -36.999
c-11.333 -34 -18 -71.333 -20 -112s-3 -78 -3 -112c0 -5.33301 -1 -10.833 -3 -16.5s-3.66699 -11.334 -5 -17.001s-1.66602 -11.334 -0.999023 -17.001s3.66699 -11.167 9 -16.5c11.333 -5.33301 22.5 -6.33301 33.5 -3l31 9c9.66699 2.66699 18.667 2.83398 27 0.500977
s15.166 -11.833 20.499 -28.5c0 -11.333 -4.5 -21.666 -13.5 -30.999s-19.167 -14 -30.5 -14c-6 0 -14.167 -1 -24.5 -3s-21.833 -3 -34.5 -3s-25.667 1.83301 -39 5.5s-25.666 11.167 -36.999 22.5v67c-16.667 -16.667 -34.667 -31.834 -54 -45.501
s-39.5 -24.667 -60.5 -33s-42.5 -13.666 -64.5 -15.999s-44.333 -0.5 -67 5.5c-11.333 5.33301 -20.166 12 -26.499 20s-11.5 16.167 -15.5 24.5l-11.5 24.5c-3.66699 8 -8.16699 14.667 -13.5 20v291c0 6 1 11.833 3 17.5s3.66699 11.167 5 16.5
s1.66602 10.833 0.999023 16.5s-3.66699 11.167 -9 16.5c-11.333 6 -22.5 7.33301 -33.5 4l-31 -9c-9.66699 -2.66699 -18.667 -2.83398 -27 -0.500977s-15.166 11.833 -20.499 28.5c11.333 16.667 23.666 27.334 36.999 32.001s27 7 41 7s27.833 -0.5 41.5 -1.5
s26.167 1.5 37.5 7.5z" />
    <glyph glyph-name="v" unicode="v" horiz-adv-x="605" 
d="M236 508c11.333 -11.333 17.8379 -22.501 19.5049 -33.501s2.5 -22.167 2.5 -33.5c-22 22 -44 22 -66 0c0 -16.667 3.5 -33.334 10.5 -50.001l22.5 -52c8 -18 15.5 -37 22.5 -57s10.5 -41 10.5 -63c5.33301 -11.333 9.66602 -22.5 12.999 -33.5s6.33301 -22 9 -33
s5.66699 -22.167 9 -33.5s7.66602 -22.333 12.999 -33c11.333 16.667 20.166 34.5 26.499 53.5s11.666 38.167 15.999 57.5s8.16602 38.5 11.499 57.5s8 36.833 14 53.5c5.33301 11.333 9.66602 21.333 12.999 30s6.33301 17.334 9 26.001s5.66699 17.334 9 26.001
s7.66602 18.667 12.999 30v21c-11.333 0 -22.5 0.833008 -33.5 2.5s-22.167 8.16699 -33.5 19.5c-5.33301 6 -7 11.667 -5 17s5.66699 10 11 14s11.833 7.33301 19.5 10s14.167 4 19.5 4h178c0 -5.33301 1.16699 -9.66602 3.5 -12.999s4.66602 -6.33301 6.99902 -9
s4.66602 -5.66699 6.99902 -9s3.5 -8 3.5 -14c-11.333 -5.33301 -22.333 -8.66602 -33 -9.99902s-20.834 -2.66602 -30.501 -3.99902s-18.5 -3.83301 -26.5 -7.5s-15 -10.834 -21 -21.501c-5.33301 -28 -12 -54.833 -20 -80.5l-24 -76l-24 -75.5
c-8 -25.333 -14.667 -52 -20 -80c-5.33301 -11.333 -9.66602 -22.333 -12.999 -33s-6.33301 -20.834 -9 -30.501s-5.66699 -18.667 -9 -27s-8 -15.166 -14 -20.499c-11.333 0 -22.5 0.166992 -33.5 0.5s-21.333 2 -31 5s-18.5 7.5 -26.5 13.5s-14.667 14.667 -20 26
c5.33301 10.667 7.16602 20.5 5.49902 29.5s-4.5 17.5 -8.5 25.5l-12.5 25c-4.33301 8.66699 -6.5 18.667 -6.5 30c-11.333 45.333 -26.166 90 -44.499 134s-33.166 88.667 -44.499 134c0 5.33301 -1.16699 9.33301 -3.5 12s-5.16602 4.66699 -8.49902 6
c-3.33301 2 -7 3 -11 3c-5.33301 -5.33301 -10.666 -8.33301 -15.999 -9s-10.833 -0.333984 -16.5 0.999023s-11.167 3 -16.5 5s-11 3 -17 3c-5.33301 5.33301 -9.5 9.66602 -12.5 12.999s-5.16699 6.33301 -6.5 9s-2.16602 5.66699 -2.49902 9s-0.5 8 -0.5 14
c11.333 11.333 22.5 17.833 33.5 19.5s22.167 2.5 33.5 2.5h155z" />
    <glyph glyph-name="w" unicode="w" horiz-adv-x="651" 
d="M193 459c0 -5.33301 -4.17188 -10.8271 -12.5049 -16.4941s-16 -11.834 -23 -18.501s-10.5 -14.334 -10.5 -23.001s8 -18.334 24 -29.001c-5.33301 -11.333 -7.16602 -22.5 -5.49902 -33.5s4.5 -22.667 8.5 -35l12.5 -39c4.33301 -13.667 6.5 -28.834 6.5 -45.501
c5.33301 -11.333 7.5 -22.333 6.5 -33s-1.5 -20.834 -1.5 -30.501s2.33301 -18.5 7 -26.5s15.334 -14.667 32.001 -20c5.33301 0 8.33301 1.33301 9 4s0.333984 6 -0.999023 10s-3 8.66699 -5 14s-3 10.666 -3 15.999c10.667 22 17.334 45.667 20.001 71s6 49 10 71
s11.333 40.333 22 55s29.667 22 57 22c4 -4.66699 7.66699 -9.33398 11 -14.001c2.66699 -4 5.16699 -8.66699 7.5 -14s3.5 -10.666 3.5 -15.999c5.33301 -16 9.83301 -32.167 13.5 -48.5l11.5 -49.5c4 -16.667 9 -33.167 15 -49.5s14.667 -32.833 26 -49.5v-22
c5.33301 5.33301 9.66602 12 12.999 20s6.33301 16 9 24s5.5 16 8.5 24s7.16699 14.667 12.5 20c-5.33301 22 -7.16602 42.667 -5.49902 62s4.5 37.833 8.5 55.5s8.16699 34.834 12.5 51.501s6.5 33.334 6.5 50.001c-11.333 10.667 -21.333 21.5 -30 32.5
s-13 22.167 -13 33.5c5.33301 5.33301 13 8.33301 23 9s20.5 1 31.5 1s21.5 0.5 31.5 1.5s17.667 4.16699 23 9.5c10.667 10.667 21.5 12.5 32.5 5.5s22.167 -15.833 33.5 -26.5c0 -11.333 -1 -21.666 -3 -30.999s-8.66699 -14 -20 -14c-10.667 0 -20.5 -4.33301 -29.5 -13
s-13.5 -18.667 -13.5 -30c0 -33.333 -4.5 -65.333 -13.5 -96s-18.833 -57 -29.5 -79c5.33301 -16.667 7.16602 -32 5.49902 -46s-4.66699 -27.833 -9 -41.5l-13 -42c-4.33301 -14.333 -6.5 -29.5 -6.5 -45.5c0 -6 -0.166992 -10.667 -0.5 -14s-1.16602 -6.33301 -2.49902 -9
s-3.5 -5.5 -6.5 -8.5l-12.5 -12.5h-65c-16.667 5.33301 -26.167 12 -28.5 20s-2.83301 16.833 -1.5 26.5s2 19.834 2 30.501s-5.33301 21.334 -16 32.001c-5.33301 10.667 -8.66602 22.667 -9.99902 36l-4 38.5c-1.33301 12.333 -3.83301 23.5 -7.5 33.5
s-10.834 17.667 -21.501 23c-5.33301 -5.33301 -9.66602 -12 -12.999 -20s-6.33301 -16.667 -9 -26l-9 -30.5c-3.33301 -11 -8 -21.833 -14 -32.5c0 -5.33301 1 -9.66602 3 -12.999l5.5 -9c1.66699 -2.66699 2.16699 -5.66699 1.5 -9s-4 -7.66602 -10 -12.999
c0 -5.33301 1 -12.833 3 -22.5s3 -19.334 3 -29.001s-1.83301 -18 -5.5 -25s-10.834 -10.5 -21.501 -10.5c-11.333 -11.333 -26 -17 -44 -17s-32.667 5.66699 -44 17c-5.33301 27.333 -9.66602 54.666 -12.999 81.999s-6.33301 54.666 -9 81.999s-5.66699 54.666 -9 81.999
s-7.66602 54.666 -12.999 81.999c-7.33301 3.33301 -12.5 8.5 -15.5 15.5s-5.33301 14.333 -7 22s-3.16699 15.167 -4.5 22.5s-4 13.666 -8 18.999s-10 9 -18 11s-19.333 1.33301 -34 -2c-5.33301 10.667 -8.33301 20.167 -9 28.5s-0.333984 16 0.999023 23s3 13.333 5 19
s3 11.167 3 16.5c16.667 -11.333 33 -16.833 49 -16.5s30.667 1.16602 44 2.49902s25.333 0.833008 36 -1.5s18.667 -11.833 24 -28.5z" />
    <glyph glyph-name="x" unicode="x" horiz-adv-x="656" 
d="M316 461h-92.0068c11.333 -23.333 22.833 -41.5 34.5 -54.5s23.167 -25.167 34.5 -36.5c0 -12 4.83301 -23.667 14.5 -35s20.5 -22.666 32.5 -33.999l65 68c20.667 22.667 36.667 45.667 48 69c-5.33301 6 -10.833 9.33301 -16.5 10s-11.334 1 -17.001 1
s-11.334 0.5 -17.001 1.5s-11.5 4.5 -17.5 10.5c0 5.33301 1.16699 10.666 3.5 15.999s5.16602 10.333 8.49902 15c3.33301 5.33301 7.33301 10.333 12 15l22 -24h184c4 0 7.66699 -1 11 -3c2.66699 -1.33301 5.16699 -3.5 7.5 -6.5s3.5 -7.16699 3.5 -12.5
c-4 -8 -9.5 -13 -16.5 -15s-15 -3.16699 -24 -3.5s-18.333 -0.166016 -28 0.500977s-19 -0.333008 -28 -3s-17 -7.5 -24 -14.5s-12.5 -18.167 -16.5 -33.5c-6 -5.33301 -13.167 -13.333 -21.5 -24s-17.5 -21.667 -27.5 -33s-20.667 -22.333 -32 -33s-22.666 -19 -33.999 -25
s-16.5 -12 -15.5 -18s4.5 -12.5 10.5 -19.5s12.333 -15 19 -24s10 -19.167 10 -30.5c11.333 -8 21.666 -17.833 30.999 -29.5s18.333 -24 27 -37s17.667 -25.333 27 -37s19.833 -21.334 31.5 -29.001s24.667 -12.334 39 -14.001s31.166 1.5 50.499 9.5
c11.333 0 17.833 -4.83301 19.5 -14.5s2.5 -20.5 2.5 -32.5c-5.33301 -5.33301 -12.166 -8.33301 -20.499 -9s-17.666 -0.333984 -27.999 0.999023s-21.166 3 -32.499 5s-22.666 3 -33.999 3c-5.33301 0 -12.166 -0.166992 -20.499 -0.5s-16.666 -1.16602 -24.999 -2.49902
s-16.666 -3.5 -24.999 -6.5s-15.166 -7.16699 -20.499 -12.5c-5.33301 0 -9.66602 1.33301 -12.999 4s-6.5 6 -9.5 10s-6.16699 8.83301 -9.5 14.5s-8 11.5 -14 17.5c0 11.333 3.5 19 10.5 23s14.833 6.66699 23.5 8s16.5 2.66602 23.5 3.99902s10.5 4.66602 10.5 9.99902
c-11.333 6 -20.166 13.167 -26.499 21.5s-12.333 17.5 -18 27.5l-18.5 32c-6.66699 11.333 -16 22.666 -28 33.999h-22c-6 -5.33301 -14.333 -12.166 -25 -20.499s-21.834 -17.666 -33.501 -27.999s-22.834 -21.166 -33.501 -32.499s-18.667 -22.666 -24 -33.999
c11.333 0 19.166 -2.5 23.499 -7.5s7.83301 -11 10.5 -18s6.16699 -14.5 10.5 -22.5s12.5 -15 24.5 -21c-6 0 -10.667 -1 -14 -3s-6.5 -3.66699 -9.5 -5s-6.16699 -1.66602 -9.5 -0.999023s-8 3.66699 -14 9c0 6 -1.33301 9.33301 -4 10s-6 0.333984 -10 -0.999023
s-8.66699 -3.16602 -14 -5.49902s-10.666 -3.5 -15.999 -3.5h-93c-11.333 -5.33301 -21.333 -8.33301 -30 -9s-16.667 0.5 -24 3.5s-14 7.16699 -20 12.5s-11.667 11 -17 17c0 6 1.16699 10.667 3.5 14s4.83301 6.33301 7.5 9s5.16699 5.66699 7.5 9s3.5 7.66602 3.5 12.999
c23.333 -11.333 41.666 -17.833 54.999 -19.5s26 -2.5 38 -2.5c11.333 22.667 25 43 41 61l47.5 53c15.667 17.333 30 35 43 53s22.5 38.667 28.5 62c-6 11.333 -14.167 22.833 -24.5 34.5s-21.166 23.167 -32.499 34.5l-33 34c-10.667 11.333 -19 22.666 -25 33.999
c-11.333 12 -21.666 20 -30.999 24s-19 6 -29 6s-21.167 -1 -33.5 -3s-27.166 -3 -44.499 -3c0 6 -1 11.667 -3 17s-3.66699 10 -5 14s-1.66602 7.33301 -0.999023 10s3.66699 4 9 4c23.333 0 46.5 2 69.5 6s46 6.83301 69 8.5s45.833 0.166992 68.5 -4.5
s45.667 -15.334 69 -32.001z" />
    <glyph glyph-name="y" unicode="y" horiz-adv-x="630" 
d="M602 432c5.33301 -5.33301 8.33398 -10.8379 9.00098 -16.5049s0.333984 -11.167 -0.999023 -16.5s-3 -10.666 -5 -15.999s-3 -10.666 -3 -15.999c-10.667 0 -20.167 1.16699 -28.5 3.5l-24.5 7l-25 7c-8.66699 2.33301 -18.334 3.5 -29.001 3.5
c-5.33301 -10.667 -9.66602 -23.5 -12.999 -38.5s-6.33301 -30.5 -9 -46.5s-5.5 -31.667 -8.5 -47s-7.16699 -28.333 -12.5 -39c-10.667 -32.667 -22.334 -64.167 -35.001 -94.5s-24.334 -61 -35.001 -92s-19.667 -63 -27 -96s-11 -68.167 -11 -105.5
c-5.33301 -11.333 -11.833 -20.166 -19.5 -26.499s-15.5 -12.166 -23.5 -17.499s-15.833 -11 -23.5 -17s-14.167 -14.333 -19.5 -25c-11.333 5.33301 -23.333 7.5 -36 6.5s-25.834 -2.16699 -39.501 -3.5s-27 -1.33301 -40 0s-24.833 7.66602 -35.5 18.999
c-11.333 10 -21.166 21.333 -29.499 34s-12.5 30 -12.5 52c0 5.33301 -1 11.833 -3 19.5s-3 16.167 -3 25.5s1.66699 19.333 5 30s10.333 21.334 21 32.001c5.33301 -5.33301 10.833 -8.5 16.5 -9.5s11.167 -1.5 16.5 -1.5s10.833 -0.5 16.5 -1.5s11.167 -4.16699 16.5 -9.5
c4 -4 7.33301 -8.33301 10 -13c2.66699 -4 5.16699 -8.5 7.5 -13.5s3.5 -10.167 3.5 -15.5c-5.33301 0 -9.5 -3.16699 -12.5 -9.5s-5.83301 -12.833 -8.5 -19.5s-5.5 -12 -8.5 -16s-7.16699 -3.66699 -12.5 1l21 -21c21.333 -11.333 41.666 -16 60.999 -14
s34.666 14 45.999 36c10.667 32 21.334 60.5 32.001 85.5s21.334 53.5 32.001 85.5c0 10.667 -2.33301 20.334 -7 29.001s-10.334 17.167 -17.001 25.5l-21 25c-7.33301 8.33301 -13.666 18.166 -18.999 29.499c-11.333 32 -22.333 59.667 -33 83l-31 66
c0 22 -5.5 42.833 -16.5 62.5s-27.167 34.834 -48.5 45.501c-5.33301 0 -12.833 -1.83301 -22.5 -5.5s-19.167 -6.16699 -28.5 -7.5s-17.5 0.166992 -24.5 4.5s-10.5 14.5 -10.5 30.5c-5.33301 5.33301 -8.33301 10.666 -9 15.999s0.5 10 3.5 14s7 7.33301 12 10
s10.167 4 15.5 4h214c22 -22 22 -44 0 -66h-65v-21c16 -22 28.833 -43.667 38.5 -65s18.5 -42.833 26.5 -64.5s16.833 -43.167 26.5 -64.5s22.5 -42.666 38.5 -63.999c5.33301 0 9.5 2.33301 12.5 7s5.16699 10.334 6.5 17.001s2.16602 13.667 2.49902 21
s0.5 13.666 0.5 18.999c-5.33301 5.33301 -6.33301 10.833 -3 16.5s7.83301 11.167 13.5 16.5s10.167 10.833 13.5 16.5s2.33301 11.167 -3 16.5c11.333 20.667 21.5 41.834 30.5 63.501s13.5 43.167 13.5 64.5c-11.333 5.33301 -22 9.66602 -32 12.999
s-18.333 7.83301 -25 13.5s-11 13 -13 22s-0.333008 21.833 5 38.5h173c20.667 0 36.334 -0.833008 47.001 -2.5s16 -8.16699 16 -19.5z" />
    <glyph glyph-name="z" unicode="z" horiz-adv-x="603" 
d="M349 490c11.333 6 24.002 9.32422 38.002 9.99121s28.167 0.333984 42.5 -0.999023s28.5 -3.16602 42.5 -5.49902s26.667 -3.5 38 -3.5c6 -11.333 6.83301 -21.5 2.5 -30.5s-10 -17 -17 -24s-14 -13.5 -21 -19.5s-10.5 -12 -10.5 -18l-170 -173
c-55.333 -57.333 -106 -115 -152 -173v-23c28.667 0 54.834 1 78.501 3l68 5.5c21.667 1.66699 43 2.16699 64 1.5s43.167 -4 66.5 -10c18.667 0 32.5 3.5 41.5 10.5s15 16 18 27s4.16699 23.5 3.5 37.5s-0.833984 27.833 -0.500977 41.5s2.33301 26.5 6 38.5
s11.167 22 22.5 30c11.333 0 22 -5 32 -15s15 -20.667 15 -32c-6 -11.333 -8.5 -25.166 -7.5 -41.499s1.5 -33.166 1.5 -50.499s-2.5 -34.166 -7.5 -50.499s-16.167 -30.166 -33.5 -41.499h-391c-6 0 -13.167 1.16699 -21.5 3.5s-16.833 5 -25.5 8s-17 5.66699 -25 8
s-15 3.5 -21 3.5c0 11.333 2.33301 20.333 7 27s10 12.167 16 16.5l16 12c4.66699 3.66699 7 8.5 7 14.5c23.333 11.333 45.5 27.333 66.5 48s37.167 42.667 48.5 66l232 231v23h-24c-23.333 0 -45.333 1 -66 3s-41 3 -61 3s-40.333 -2 -61 -6s-42.334 -11.667 -65.001 -23
h-23c0 -11.333 1 -23.833 3 -37.5s3 -27 3 -40s-2 -24.833 -6 -35.5s-12 -19 -24 -25c-6 6 -10.667 9.33301 -14 10s-6.33301 1 -9 1s-5.66699 0.5 -9 1.5s-8 4.5 -14 10.5c7.33301 11.333 12.166 23.833 14.499 37.5s3.5 27.334 3.5 41.001s-0.166992 26.834 -0.5 39.501
s0.833984 23.834 3.50098 33.501s7.66699 17.5 15 23.5s18.666 9 33.999 9h230z" />
    <glyph glyph-name="braceleft" unicode="{" horiz-adv-x="294" 
d="M280 -94c0 -11.333 -7.66797 -18.9971 -23.001 -22.9971c-8.66699 -2 -22.667 -3 -42 -3c-36 0 -65.667 6.33301 -89 19c-28.667 15.333 -43 38 -43 68v221c0 25.333 -5.66699 46 -17 62c-12 16 -30.667 26.333 -56 31c26 8.66699 44.667 19.667 56 33
s17 33.666 17 60.999v223c0 25.333 11.667 46.333 35 63c22.667 16.667 54 25 94 25c22.667 0 39.667 -1.33301 51 -4c11.333 -3.33301 17 -11.333 17 -24c0 -13.333 -18.333 -23 -55 -29s-55 -17.667 -55 -35v-221c0 -18 -5.66699 -36 -17 -54
c-11.333 -18.667 -25.666 -31.334 -42.999 -38.001c16.667 -8.66699 31 -21.334 43 -38.001c11.333 -16.667 17 -34.667 17 -54v-220c0 -17.333 18.333 -29.333 55 -36s55 -15.667 55 -27z" />
    <glyph glyph-name="bar" unicode="|" horiz-adv-x="141" 
d="M58 745c6.66699 4 12.4961 5.67578 17.4961 5.00879s9.83301 -2 14.5 -4l13.5 -6c4.33301 -2 8.83301 -2.33301 13.5 -1c3.33301 -6 5.66602 -11.5 6.99902 -16.5s2.16602 -9.5 2.49902 -13.5s0.5 -7.83301 0.5 -11.5s0.666992 -7.5 2 -11.5
c-4 -6 -9.16699 -10.833 -15.5 -14.5s-8.5 -9.83398 -6.5 -18.501c-1.33301 -15.333 -0.833008 -31.333 1.5 -48s2.5 -32 0.5 -46c-3.33301 -5.33301 -4.83301 -11.833 -4.5 -19.5s-1.16699 -14.167 -4.5 -19.5c6 -8 8.66699 -15.333 8 -22s-2 -13.334 -4 -20.001
s-3.33301 -13.334 -4 -20.001s2.33301 -14 9 -22l-6.5 -10.5c-1 -1.66699 -3.5 -5.5 -7.5 -11.5c0.666992 -4 0.333984 -9.16699 -0.999023 -15.5s-2.83301 -12.833 -4.5 -19.5s-2.66699 -13.334 -3 -20.001s1.5 -13 5.5 -19c-3.33301 -6 -3.83301 -11.167 -1.5 -15.5
s2.16602 -9.16602 -0.500977 -14.499l-11 7c2 -2 2.83301 -3.66699 2.5 -5s-0.833008 -2.66602 -1.5 -3.99902s-1.16699 -2.66602 -1.5 -3.99902s1.16699 -3 4.5 -5c1.33301 2 3 3.66699 5 5c4 2.66699 8 2.66699 12 0l-13 -21c2.66699 -2 3.83398 -3.66699 3.50098 -5
s-0.5 -3 -0.5 -5s0.5 -4.33301 1.5 -7s4.5 -5.66699 10.5 -9c-3.33301 -6 -5.33301 -12 -6 -18l-2 -18.5c-0.666992 -6.33301 -1.66699 -13.166 -3 -20.499s-4.66602 -15 -9.99902 -23l9 -35c-4 -6 -5.5 -12.167 -4.5 -18.5s2.33301 -12.833 4 -19.5
s2.83398 -13.334 3.50098 -20.001s-0.666016 -12.667 -3.99902 -18s-4.33301 -11.666 -3 -18.999s5 -13 11 -17c0.666992 -4.66699 -0.166016 -9 -2.49902 -13s-5.33301 -7.33301 -9 -10s-7.5 -4.33398 -11.5 -5.00098s-7.33301 0 -10 2
c-4 -1.33301 -8.16699 -0.833008 -12.5 1.5s-8.33301 5.16602 -12 8.49902l-10.5 10c-3.33301 3.33301 -6.33301 6 -9 8c2.66699 10 4.16699 20.667 4.5 32l1 33.5c0.333008 11 1.33301 21.833 3 32.5s5.16699 20 10.5 28c-3.33301 13.333 -4.66602 25.666 -3.99902 36.999
s2 22.166 4 32.499s3.83301 20.666 5.5 30.999s2.5 21.166 2.5 32.499c1.33301 14.667 1 30.167 -1 46.5s-2.33301 31.833 -1 46.5c1.33301 38.667 1.33301 80.167 0 124.5s-4.66602 87.166 -9.99902 128.499c5.33301 8 7.66602 16.333 6.99902 25s-1.5 17.667 -2.5 27
s-0.666992 18.666 1 27.999s7.5 18.666 17.5 27.999z" />
    <glyph glyph-name="braceright" unicode="}" horiz-adv-x="294" 
d="M284 281c-48.667 -9.33301 -72.999 -40.3369 -72.999 -93.0039v-221c0 -29.333 -14.333 -51.666 -43 -66.999c-24.667 -13.333 -54.334 -20 -89.001 -20c-21.333 0 -35 0.666992 -41 2c-16 3.33301 -24 11.333 -24 24c0 10.667 18.333 19.334 55 26.001s55 19 55 37v220
c0 20 5.33301 38 16 54s25.334 28.667 44.001 38c-16.667 6.66699 -30.667 19.334 -42 38.001c-12 18 -18 36 -18 54v221c0 17.333 -18.333 29 -55 35s-55 15.667 -55 29c0 12 6 19.667 18 23s28.667 5 50 5c50.667 0 87 -13 109 -39c13.333 -15.333 20 -31.666 20 -48.999
v-223c0 -26 6 -46 18 -60c11.333 -14.667 29.666 -26 54.999 -34z" />
    <glyph glyph-name="asciitilde" unicode="~" horiz-adv-x="378" 
d="M347 326c0 -30 -12.999 -52.667 -38.999 -68c-18.667 -10.667 -38.667 -16 -60 -16c-12.667 0 -37 6 -73 18s-60.667 18 -74 18c-12.667 0 -23.334 -3.33301 -32.001 -10l-22 -22c-10 2.66699 -15 9 -15 19c0 25.333 9.33301 46.333 28 63c18 16 40.333 24 67 24
c8 0 31.667 -6.33301 71 -19c38.667 -13.333 67.667 -20 87 -20c9.33301 0 18 3 26 9l25 22c2.66699 0 5 -1.33301 7 -4c2.66699 -4 4 -8.66699 4 -14z" />
    <glyph glyph-name="exclamdown" unicode="&#xa1;" horiz-adv-x="198" 
d="M41 46c-0.666992 26.667 2.00195 54.3359 8.00195 83.0029s9 60.667 9 96c4.66699 13.333 7.33398 26.666 8.00098 39.999s1.5 26.166 2.5 38.499s3 23.833 6 34.5s9.16699 20.667 18.5 30c8.66699 0 14.667 -2.83301 18 -8.5s5.66602 -12.5 6.99902 -20.5
s2.5 -16 3.5 -24s3.5 -14.333 7.5 -19c4.66699 -22 7.5 -43.333 8.5 -64l3 -61c1 -20 3.16699 -40.167 6.5 -60.5s9.66602 -41.833 18.999 -64.5c-9.33301 -8.66699 -18.333 -14.334 -27 -17.001s-17.334 -8.66699 -26.001 -18c-4.66699 0 -10.167 0.166992 -16.5 0.5
s-12.833 1.66602 -19.5 3.99902s-13.167 5.83301 -19.5 10.5s-11.833 11.334 -16.5 20.001zM39.002 475.002c-4.66699 8.66699 -7.16699 17.5 -7.5 26.5s0.666992 17.333 3 25s5.5 14.667 9.5 21s8 11.833 12 16.5c9.33301 9.33301 21.333 14 36 14
s26.334 -4.66699 35.001 -14c18.667 -18 31 -35.833 37 -53.5s0 -35.5 -18 -53.5c-8.66699 -4.66699 -18.334 -7.16699 -29.001 -7.5s-21 0.666992 -31 3s-19.167 5.5 -27.5 9.5s-14.833 8.33301 -19.5 13z" />
    <glyph glyph-name="cent" unicode="&#xa2;" horiz-adv-x="484" 
d="M245 745c6.66699 3.33301 11.999 5 15.999 5c7.33301 0 14 -2 20 -6s12.333 -6 19 -6h1c0.666992 0.666992 1.66699 1 3 1c3.33301 -6 5.66602 -11.5 6.99902 -16.5s2.16602 -9.5 2.49902 -13.5s0.5 -7.83301 0.5 -11.5s0.666992 -7.5 2 -11.5
c-3.33301 -5.33301 -8 -9.66602 -14 -12.999s-9 -8.33301 -9 -15c0 -2 0.333008 -3.66699 1 -5v-11c0 -10.667 0.5 -21.5 1.5 -32.5s-2.83301 -33.5 -11.5 -67.5c6.66699 -24.667 11.667 -46 15 -64c6.66699 3.33301 16 4 28 2c25.333 -3.33301 48.666 -5 69.999 -5l64 -85
c-0.666992 -18 -3.5 -34.5 -8.5 -49.5s-16.5 -26.833 -34.5 -35.5c-10.667 0 -20.167 0.166992 -28.5 0.5s-15.666 1.83301 -21.999 4.5s-12.333 7 -18 13s-11.167 14.333 -16.5 25c-6 6 -9 14.333 -9 25c0 4.66699 0.333008 9.33398 1 14.001s1.66699 8.66699 3 12
c1.33301 4 3 8 5 12c-7.33301 3.33301 -13.666 6.33301 -18.999 9c-26.667 -48.667 -38.334 -75.334 -35.001 -80.001c-2 -3.33301 -3 -6.33301 -3 -9s0.5 -5 1.5 -7s1.5 -4.33301 1.5 -7c0 -2 -0.666992 -4.33301 -2 -7l-11 7c2 -2 3 -3.66699 3 -5
s-0.666992 -2.66602 -2 -3.99902s-2 -2.66602 -2 -3.99902c0 -2 1.66699 -3.66699 5 -5l3 3c2.66699 2.66699 5.33398 4 8.00098 4c1.33301 0 3.33301 -0.666992 6 -2l-13 -21c2.66699 -2 4 -4 4 -6c0 -1.33301 -0.166992 -2.33301 -0.5 -3s-0.5 -1.66699 -0.5 -3
s0.666992 -3.16602 2 -5.49902s4.66602 -5.16602 9.99902 -8.49902c-3.33301 -6 -5.33301 -12 -6 -18l-2 -18.5c-0.666992 -6.33301 -1.66699 -13.166 -3 -20.499s-4.66602 -15 -9.99902 -23l9 -35c-2.66699 -3.33301 -3 -22 -1 -56l36 6l21 -21
c5.33301 10.667 11.666 20.167 18.999 28.5l21 24.5c6.66699 8 12.334 16.167 17.001 24.5s7 17.833 7 28.5c10.667 11.333 21.334 17.833 32.001 19.5s21.334 2.5 32.001 2.5c4 -12 6 -23.667 6 -35s-1.66699 -22.166 -5 -32.499s-7.5 -20.166 -12.5 -29.499
s-10.333 -18.333 -16 -27s-10.834 -17.334 -15.501 -26.001c-32 -20.667 -63.833 -36.334 -95.5 -47.001s-63.5 -16 -95.5 -16c-42.667 11.333 -79 28.166 -109 50.499s-50.667 55.166 -62 98.499c-15.333 10.667 -26.166 24.667 -32.499 42s-9.5 35.666 -9.5 54.999
c0 18 2.16699 36 6.5 54s9 34.5 14 49.5s9.83301 27.5 14.5 37.5s7 15.667 7 17c22.667 30 49.5 52.667 80.5 68s62.833 25.666 95.5 30.999c0 -9.33301 3.33301 -16.333 10 -21c-12 38 -18.667 94.333 -20 169c4.66699 7.33301 7 16 7 26c0 6 -0.5 12.167 -1.5 18.5
s-1.5 12.833 -1.5 19.5c0 7.33301 1.33301 14.666 4 21.999s7.66699 14.666 15 21.999zM183.999 390c-5.33301 0 -10.6689 -2.33301 -16.002 -7s-10.5 -10.334 -15.5 -17.001l-15.5 -21c-5.33301 -7.33301 -10.666 -13.666 -15.999 -18.999c-8 -28 -12 -58 -12 -90
c0 -30.667 5.5 -60.5 16.5 -89.5s30.5 -54.167 58.5 -75.5l35 6c-0.666992 3.33301 -1 7 -1 11c-2.66699 38.667 0 62 8 70c-2.66699 10.667 -4 21.667 -4 33c0 20.667 2.16699 39.5 6.5 56.5s6.5 36.167 6.5 57.5c0 10.667 -0.666992 21.5 -2 32.5s-2 21.5 -2 31.5
c0 4.66699 0.666992 19.667 2 45c-27.333 -10.667 -43.666 -18.667 -48.999 -24zM250.996 420l16 1l-3 4c-4.66699 -2 -9 -3.66699 -13 -5zM310.996 422l-8 6l-1 -6h9z" />
    <glyph glyph-name="sterling" unicode="&#xa3;" horiz-adv-x="488" 
d="M460 196l-0.00195312 -22.001l-6 -8v-74c-6 -5.33301 -11 -11 -15 -17l-4 -16l-19 -28c-6 -2.66699 -15.5 -10.334 -28.5 -23.001s-24.167 -19 -33.5 -19h-67c-30.667 18.667 -58.334 42.667 -83.001 72v-2c-21.333 -20 -37 -35.333 -47 -46h-18c-6 -4 -23.333 -6 -52 -6
c-8.66699 0 -18.667 2.33301 -30 7c-6 7.33301 -12.333 15.5 -19 24.5s-11 18.5 -13 28.5l-4 10v15l6 8v60c2.66699 0.666992 6 5 10 13l12 18l19 11l6 8h22c2.66699 0 23 -4 61 -12l27 -21h2l1 41l-3 7c-2.66699 8.66699 -6 22.334 -10 41.001l-3 4
c-11.333 0 -30.333 1.16699 -57 3.5s-47 3.5 -61 3.5c1.33301 10 4 24.333 8 43c16 18.667 40.333 25.667 73 21c-4.66699 6.66699 -7.33398 14.334 -8.00098 23.001c-3.33301 6 -5 11.333 -5 16l1 8l-2 6h-53c-5.33301 5.33301 -10.333 12.666 -15 21.999v17
c5.33301 12 12.833 19.833 22.5 23.5s19.834 7.16699 30.501 10.5v45l6 3c0.666992 9.33301 2 19 4 29l3 4c0.666992 5.33301 7.33398 17.333 20.001 36c8 13.333 16.333 26.333 25 39c5.33301 9.33301 16.333 17 33 23s27 13.333 31 22c40 1.33301 59.667 2 59 2
c16 0 31.667 -6.16699 47 -18.5s30 -25.166 44 -38.499l5 -11l15 -12c1.33301 -7.33301 4.33301 -14 9 -20v-72l-14 -21c-4 -0.666992 -7.33301 -2.33398 -10 -5.00098l-27 -6l3 3l-6 4v-7h-5c-3.33301 4 -8.33301 6.66699 -15 8c-1.33301 9.33301 -4.33301 17 -9 23v62
c2 4.66699 5 10.334 9 17.001c-15.333 12.667 -28.333 19 -39 19h-72l-10 -8c-5.33301 -9.33301 -17.666 -17.333 -36.999 -24c-10.667 -29.333 -16.334 -49 -17.001 -59l-6 -14c1.33301 -8.66699 2 -18 2 -28c48 0.666992 72.667 1 74 1c43.333 0 69.333 -6 78 -18v-28
c-4.66699 -12 -10.667 -19.667 -18 -23h-58l-4 5h-50l-4 6h-5l-5 -4l10 -14l2 -9l14 -12l4 -22c4.66699 -6 8.66699 -11.667 12 -17l3 5l9 7c7.33301 0 18.5 1 33.5 3s26.5 3 34.5 3h7l6 -8l15 -9l3 -22l-3 -18c-10 -10.667 -21.667 -17.667 -35 -21
c4.66699 2 -11.666 3 -48.999 3c1.33301 -8.66699 2.33301 -19 3 -31l-2 2l7 -16v-71l5 -6l-6 -9c4.66699 -8 8 -16.667 10 -26c10 -9.33301 26 -22 48 -38h39c12.667 0 27.334 10.333 44.001 31c1.33301 6.66699 4 12.667 8 18c2 11.333 7 22 15 32v51
c-3.33301 6 -5 11.333 -5 16c0 8 2.66699 15.5 8 22.5s11 10.5 17 10.5c8.66699 0 19.667 -6.33301 33 -19l3 -19l11 -15zM162.998 110.999l-8.00098 9c-6.66699 1.33301 -12 5 -16 11c0 -1.33301 -0.666992 -2 -2 -2c-4 0 -9 2.33301 -15 7h-28
c-1.33301 0 -6.66602 -2.66699 -15.999 -8l-7 -11l3 -29c4.66699 -1.33301 9 -2 13 -2h45c10 8.66699 20.333 17 31 25zM351.997 494.999l4 4c-2 0 -3.33301 0.666992 -4 2v-6zM272.997 266.999h3h-3z" />
    <glyph glyph-name="currency" unicode="&#xa4;" horiz-adv-x="579" 
d="M475 90l-8.99902 -10.002l-64 88c-6 -3.33301 -12 -6.16602 -18 -8.49902s-12 -5.16602 -18 -8.49902l-33.5 -11.5c-10.333 -3.66699 -20.5 -6 -30.5 -7s-20.167 -0.166992 -30.5 2.5s-21.5 8 -33.5 16h-16c-11.333 4.66699 -20.333 9 -27 13l13 17l-13 -16
c-14 9.33301 -25.833 20.333 -35.5 33s-17.667 26.334 -24 41.001s-11.5 29.5 -15.5 44.5s-7.66699 29.5 -11 43.5c0 8 1.66699 15.167 5 21.5s7.16602 12.5 11.499 18.5s8.16602 12.167 11.499 18.5s5 13.5 5 21.5c0.666992 2 1 4 1 6s0.666992 3.66699 2 5
c-21.333 20.667 -40.666 41.334 -57.999 62.001s-39.333 38.667 -66 54c2.66699 7.33301 8.16699 15.5 16.5 24.5l27.5 29.5c4.66699 4.66699 8.16699 7.16699 10.5 7.5s4.16602 -0.166992 5.49902 -1.5s2.16602 -3.16602 2.49902 -5.49902s1.16602 -3.83301 2.49902 -4.5
c0 -5.33301 1.5 -9.33301 4.5 -12s6 -5.5 9 -8.5s5.5 -6.66699 7.5 -11s2 -11.166 0 -20.499l11 10l60 -74c13.333 12.667 28.333 23 45 31s32.334 14.667 47.001 20c24.667 0 48.834 -1.33301 72.501 -4s47.834 -12 72.501 -28l40 -40l1 -1v-1l7 -6
c16.667 -40 24.334 -80 23.001 -120s-14 -80 -38 -120c11.333 -10.667 20.5 -20.834 27.5 -30.501l21 -28c7 -9 14.667 -17.833 23 -26.5s19.5 -17.334 33.5 -26.001c-2.66699 -7.33301 -7.66699 -15.5 -15 -24.5l-25 -29.5c-4 -4.66699 -7.16699 -7.33398 -9.5 -8.00098
s-4 -0.166992 -5 1.5s-1.83301 3.66699 -2.5 6s-1.33398 3.83301 -2.00098 4.5c0 5.33301 -1.16699 9.33301 -3.5 12s-5 5.5 -8 8.5s-5.5 6.66699 -7.5 11s-2 11.166 0 20.499zM415.001 390.998c-8 4 -14.333 8.66699 -19 14l-13 15.5c-4 5 -8.33301 9.33301 -13 13
s-11 5.5 -19 5.5c-12 4 -24.167 7.66699 -36.5 11s-24.5 5 -36.5 5s-24 -2.33301 -36 -7s-24 -13 -36 -25c-8 -8 -13.5 -16 -16.5 -24s-4.5 -16.5 -4.5 -25.5s0.666992 -18.667 2 -29s2 -21.5 2 -33.5s1.83301 -23.833 5.5 -35.5s8.66699 -22.5 15 -32.5
s13.333 -18.833 21 -26.5s15.5 -13.5 23.5 -17.5c24 -8 47.5 -11.333 70.5 -10s42.5 10 58.5 26c12 12 21.333 25.667 28 41s11 31 13 47s2 31.667 0 47s-5 29 -9 41zM126.001 97.998l10.002 -9.99805l59 76v1l-6 -7c-0.666992 9.33301 -4.83398 16 -12.501 20
s-13.834 8 -18.501 12c-13.333 -10.667 -23.833 -20 -31.5 -28l-22.5 -22.5c-7.33301 -7 -15.5 -13.833 -24.5 -20.5s-20.833 -14.334 -35.5 -23.001c2.66699 -7.33301 7.83398 -15.5 15.501 -24.5s16.5 -18.5 26.5 -28.5c4.66699 -4.66699 8.16699 -7.33398 10.5 -8.00098
s4 -0.166992 5 1.5s1.66699 3.66699 2 6s1.16602 3.83301 2.49902 4.5c0 5.33301 1.33301 9.33301 4 12s5.5 5.33398 8.5 8.00098s5.5 6.16699 7.5 10.5s2 11.166 0 20.499zM468.003 466l9.99902 -9.99805l72 93l4 4c-0.666992 9.33301 -5 17.666 -13 24.999l-19 17
c-13.333 -10.667 -23 -20.834 -29 -30.501l-17 -27.5c-5.33301 -8.66699 -11.666 -17.167 -18.999 -25.5s-18.333 -16.833 -33 -25.5c1.33301 -3.33301 2.16602 -5.5 2.49902 -6.5s0.833008 -1.83301 1.5 -2.5l4 -4c2 -2 5.66699 -5.33301 11 -10
c4 -4.66699 6.66699 -8.16699 8 -10.5s2.66602 -4.16602 3.99902 -5.49902l1 -1v-1v1c0.666992 0 1.33398 0.333008 2.00098 1c0 5.33301 0.833008 7.66602 2.5 6.99902s3.33398 -1.66699 5.00098 -3s3 -1.5 4 -0.5s0.5 6.16699 -1.5 15.5zM406.002 170.002l4 -1
c4 3.33301 10 6.33301 18 9s13 8 15 16c-8 -7.33301 -20.333 -15.333 -37 -24z" />
    <glyph glyph-name="yen" unicode="&#xa5;" horiz-adv-x="525" 
d="M201 158l-0.00195312 12.999h39l-2 19.5c-0.666992 6.33301 -1.66699 12.5 -3 18.5c-20.667 -0.666992 -41 -1.83398 -61 -3.50098s-40 -4.83398 -60 -9.50098c-2.66699 2.66699 -6.16699 5.66699 -10.5 9s-8.66602 7 -12.999 11s-8.16602 8.5 -11.499 13.5
s-5 10.5 -5 16.5s2.66699 10.5 8 13.5s11.333 5 18 6s13.167 1.5 19.5 1.5h13.5c4.66699 -3.33301 9.83398 -4.66602 15.501 -3.99902s11.834 1.5 18.501 2.5s13.5 1 20.5 0s14.167 -4.5 21.5 -10.5v12h2l-53 132l-53 132c-4.66699 9.33301 -10.334 14.666 -17.001 15.999
s-14.167 1.5 -22.5 0.5l-26 -3c-9 -1 -18.167 0.833008 -27.5 5.5c0 4.66699 1 8.33398 3 11.001s4.16699 5.16699 6.5 7.5s4.5 4.83301 6.5 7.5s3 6.33398 3 11.001c14 -4.66699 28 -7.16699 42 -7.5s27.833 0 41.5 1s27.5 2.33301 41.5 4s28 2.5 42 2.5
c9.33301 0 14.833 -3.83301 16.5 -11.5s2.5 -16.167 2.5 -25.5h-56c4.66699 -9.33301 7.5 -18.5 8.5 -27.5s2 -17.5 3 -25.5s3.16699 -15.5 6.5 -22.5s9.66602 -12.833 18.999 -17.5c-4.66699 -9.33301 -6.33398 -17.833 -5.00098 -25.5s3.83301 -15.5 7.5 -23.5
s7.33398 -17 11.001 -27s5.5 -22 5.5 -36c4.66699 -4.66699 8.33398 -9.5 11.001 -14.5s5.16699 -10.333 7.5 -16l7.5 -19c2.66699 -7 6.33398 -15.167 11.001 -24.5c9.33301 9.33301 16.833 20.5 22.5 33.5s10.834 26.5 15.501 40.5s9.66699 27.667 15 41
s12.666 24.666 21.999 33.999c0 9.33301 2 18.666 6 27.999l12.5 30c4.33301 10.667 8.5 21.834 12.5 33.501s6 24.5 6 38.5c-4.66699 4.66699 -11 6.5 -19 5.5s-15.5 -2 -22.5 -3s-12.333 -0.833008 -16 0.5s-3.16699 6.66602 1.5 15.999
c9.33301 9.33301 21.833 14 37.5 14s28.167 -4.66699 37.5 -14c9.33301 0 19.666 1.66699 30.999 5s22.666 6.16602 33.999 8.49902s22.666 3 33.999 2s21.666 -6.16699 30.999 -15.5c-4.66699 -14 -11.334 -22 -20.001 -24s-18.167 -2.5 -28.5 -1.5
s-21.166 1.5 -32.499 1.5s-21.666 -4.66699 -30.999 -14c-4.66699 -9.33301 -8.33398 -18.5 -11.001 -27.5l-7.5 -25.5c-2.33301 -8 -4.83301 -15.5 -7.5 -22.5s-6.33398 -12.833 -11.001 -17.5c-14.667 -28.667 -27 -57.167 -37 -85.5s-21 -56.833 -33 -85.5h93l45 -9
c4.66699 -3.33301 7 -6.83301 7 -10.5s-0.833008 -7.5 -2.5 -11.5s-3.66699 -7.83301 -6 -11.5s-3.5 -6.83398 -3.5 -9.50098c-26 -3.33301 -51.833 -5 -77.5 -5h-77.5c4 -12 5.33301 -25 4 -39h139c5.33301 -3.33301 9 -7.16602 11 -11.499s3 -8.83301 3 -13.5
s-0.333008 -9.16699 -1 -13.5s-1 -7.83301 -1 -10.5c-28 -3.33301 -54.5 -5.33301 -79.5 -6l-75.5 -2c-0.666992 -13.333 0.166016 -27.166 2.49902 -41.499s7.5 -29.166 15.5 -44.499l65 6c0 -4.66699 1 -7.66699 3 -9s4 -2.33301 6 -3s4 -1.66699 6 -3s3 -4.33301 3 -9
l-24 -19l-167 3c-4 4 -6.83301 7 -8.5 9s-2.66699 3.16699 -3 3.5s-0.166016 0.333008 0.500977 0l1 -0.5c-4.66699 4.66699 -8 7.83398 -10 9.50098s-3 3 -3 4s1.16699 2.5 3.5 4.5s5.83301 5.33301 10.5 10c9.33301 0 16.833 -0.166992 22.5 -0.5s10.5 -0.333008 14.5 0
s7.83301 1.5 11.5 3.5s7.83398 5.33301 12.501 10c0 22 1 44 3 66c-23.333 -1.33301 -47 -3 -71 -5s-49 -5.66699 -75 -11c-5.33301 6 -8.5 14.5 -9.5 25.5s-1.5 22.833 -1.5 35.5c0 6 1.16699 10.167 3.5 12.5s5.33301 3.5 9 3.5s7.33398 -0.5 11.001 -1.5
s6.83398 -1.5 9.50098 -1.5c5.33301 -3.33301 11.333 -4.66602 18 -3.99902l21 2c7.33301 0.666992 15 0.5 23 -0.5s16 -4.5 24 -10.5z" />
    <glyph glyph-name="brokenbar" unicode="&#xa6;" horiz-adv-x="121" 
d="M80 596l11.9971 0.00292969l-7 -180v-10c-3.33301 -4.66699 -7.16602 -7.83398 -11.499 -9.50098s-8.66602 -2.33398 -12.999 -2.00098s-8.5 1 -12.5 2s-7.33301 1.5 -10 1.5c-2 26 -2.83301 51.167 -2.5 75.5s0.5 48.333 0.5 72s-0.666992 47.5 -2 71.5
s-4.33301 49.333 -9 76c6 5.33301 14.333 8.16602 25 8.49902s22 0.166016 34 -0.500977c6 0 10 -1.16699 12 -3.5s2.83301 -5 2.5 -8s-1 -6 -2 -9s-1.5 -5.83301 -1.5 -8.5c-3.33301 -4.66699 -4.83301 -10 -4.5 -16s0.833008 -12.167 1.5 -18.5
s0.333984 -13.166 -0.999023 -20.499s-5 -14.333 -11 -21zM76.9971 221.003l11.9971 0.00292969l-7 -180v-10c-3.33301 -4.66699 -7.16602 -7.83398 -11.499 -9.50098s-8.66602 -2.33398 -12.999 -2.00098s-8.5 1 -12.5 2s-7.33301 1.5 -10 1.5
c-2 26 -2.83301 51.167 -2.5 75.5s0.5 48.333 0.5 72s-0.666992 47.5 -2 71.5s-4.33301 49.333 -9 76c6 5.33301 14.333 8.16602 25 8.49902s22 0.166016 34 -0.500977c6 0 10 -1.16699 12 -3.5s2.83301 -5 2.5 -8s-1 -6 -2 -9s-1.5 -5.83301 -1.5 -8.5
c-3.33301 -4.66699 -4.83301 -10 -4.5 -16s0.833008 -12.167 1.5 -18.5s0.333984 -13.166 -0.999023 -20.499s-5 -14.333 -11 -21z" />
    <glyph glyph-name="section" unicode="&#xa7;" horiz-adv-x="422" 
d="M358 596l0.00195312 -32.0059c-7.33301 -7.33301 -15.5 -13.5 -24.5 -18.5s-21.5 -3.83301 -37.5 3.5c-2.66699 0 -5.33398 0.666992 -8.00098 2c-4.66699 2 -7 6.33301 -7 13c-4 8 -5.5 15 -4.5 21s3 11.5 6 16.5s6 9.5 9 13.5s4.5 8 4.5 12
c-16 16 -34.333 27.167 -55 33.5s-38.667 5.83301 -54 -1.5c-15.333 0 -30.166 -6.66699 -44.499 -20s-25.833 -27.666 -34.5 -42.999c0 -8 -0.666992 -15.333 -2 -22s-5.66602 -10 -12.999 -10c4 -4 7.83301 -9.33301 11.5 -16s7.5 -12.834 11.5 -18.501s8 -10 12 -13
s8 -2.5 12 1.5c31.333 -23.333 62.5 -43.5 93.5 -60.5l94.5 -49.5c15.333 -7.33301 29.5 -15.5 42.5 -24.5s19.5 -21.5 19.5 -37.5c7.33301 -15.333 8.5 -30.666 3.5 -45.999s-11.833 -31.333 -20.5 -48c-4 -8 -10.667 -15 -20 -21s-17.333 -12.333 -24 -19
s-9.83398 -14 -9.50098 -22s8.16602 -18 23.499 -30c-4 -4 -6.33301 -9.66699 -7 -17s-1.5 -15.5 -2.5 -24.5s-3 -18.167 -6 -27.5s-8.5 -18 -16.5 -26c-12 -8 -26.167 -14.667 -42.5 -20s-33.833 -9 -52.5 -11s-37.334 -1.83301 -56.001 0.5s-36 7.5 -52 15.5
c-7.33301 15.333 -15 28.166 -23 38.499s-15.667 23.833 -23 40.5c4 4 7.16699 8.5 9.5 13.5s4.83301 10 7.5 15s6.16699 9.16699 10.5 12.5s10.5 5 18.5 5c8.66699 0 16.834 -3.16699 24.501 -9.5s15.5 -13.5 23.5 -21.5c4 -7.33301 5.16699 -14.166 3.5 -20.499
s-5 -12 -10 -17s-11.167 -9.66699 -18.5 -14s-15 -8.5 -23 -12.5c8 -7.33301 17.5 -12.333 28.5 -15s22.333 -4 34 -4s23 0.666992 34 2s20.5 2 28.5 2s15 1.66699 21 5s12 7.5 18 12.5l18.5 16c6.33301 5.66699 13.166 10.834 20.499 15.501
c0 7.33301 -0.166992 15.5 -0.5 24.5s-1.5 17.833 -3.5 26.5s-5 16.834 -9 24.501s-9.66699 13.5 -17 17.5c-16 12.667 -33.5 23.834 -52.5 33.501s-38.167 18.667 -57.5 27s-38 16.833 -56 25.5s-33.667 18.834 -47 30.501s-23.5 25.5 -30.5 41.5s-9.16699 35.667 -6.5 59
c4 12 8.66699 22.167 14 30.5s11.5 16 18.5 23s14.167 13.667 21.5 20l23 20.5l-13 26c-4.66699 9.33301 -8 18.833 -10 28.5s-1.5 19.167 1.5 28.5s10.167 18 21.5 26c8 12 18.5 21.833 31.5 29.5s27.333 13.5 43 17.5s32 6 49 6s33.5 -2 49.5 -6
c4 -7.33301 9.5 -14.166 16.5 -20.499s14.333 -12.5 22 -18.5l22 -18c7 -6 12.5 -13 16.5 -21zM328.002 377.994c-16 11.333 -31.835 21.168 -47.502 29.501l-47 24.5l-47 25c-15.667 8.66699 -31.167 19 -46.5 31c-7.33301 0 -15.166 -0.666992 -23.499 -2
s-16.166 -6.33301 -23.499 -15c-15.333 -15.333 -24.333 -30.833 -27 -46.5s-4 -31.167 -4 -46.5c4 -12 10.333 -21.333 19 -28s18.5 -12.334 29.5 -17.001l33 -14c11 -4.66699 20.5 -11 28.5 -19c11.333 -8 22.666 -16.5 33.999 -25.5s22.833 -17 34.5 -24
s23.334 -12.167 35.001 -15.5s23.5 -3 35.5 1s21.167 9.66699 27.5 17s11 15.5 14 24.5s4.66699 18.167 5 27.5s0.5 18 0.5 26v15c-7.33301 7.33301 -12.333 14.5 -15 21.5s-7.66699 10.5 -15 10.5z" />
    <glyph glyph-name="dieresis" unicode="&#xa8;" horiz-adv-x="386" 
d="M321 584c-7.33301 -8 -15.001 -12.001 -23.001 -12.001s-19 4 -33 12c-7.33301 8.66699 -11.666 19.334 -12.999 32.001s-1.66602 23.334 -0.999023 32.001c7.33301 7.33301 12 14.5 14 21.5s6.66699 10.5 14 10.5c14 7.33301 26.833 7.66602 38.5 0.999023
s17.5 -18 17.5 -34c6.66699 -4 10.5 -8.83301 11.5 -14.5s0.166992 -11.5 -2.5 -17.5s-6.33398 -11.667 -11.001 -17zM94.999 569.999c-13.333 0 -24.165 3.33301 -32.498 10s-15.833 14 -22.5 22c0 8 -0.666992 15 -2 21s-2 11.5 -2 16.5s1.16699 9.5 3.5 13.5
s7.16602 8 14.499 12c7.33301 8 14.333 14.5 21 19.5s13.667 3.5 21 -4.5c6.66699 0 12 -1.83301 16 -5.5s7.33301 -8.5 10 -14.5s5.16699 -12.667 7.5 -20s5.16602 -15 8.49902 -23c-4 -4 -7.16699 -8 -9.5 -12s-4.83301 -8 -7.5 -12s-6 -7.83301 -10 -11.5
s-9.33301 -7.5 -16 -11.5z" />
    <glyph glyph-name="copyright" unicode="&#xa9;" horiz-adv-x="673" 
d="M646 418l-11.9912 -50.001c-0.666992 -3.33301 0.166016 -7 2.49902 -11s3.5 -8 3.5 -12c0 -3.33301 -0.666992 -7 -2 -11l-5 -23c-1.33301 -7.33301 -2.33301 -13.833 -3 -19.5s-2.33398 -11 -5.00098 -16s-4 -8.5 -4 -10.5c-2.66699 -9.33301 -4 -18 -4 -26
c0 -4 -0.333008 -6.66699 -1 -8c-4 -4.66699 -7 -7.66699 -9 -9c-6 -6.66699 -8.83301 -11.5 -8.5 -14.5s0.166016 -6.16699 -0.500977 -9.5s-2.66699 -8.33301 -6 -15s-6.83301 -11.834 -10.5 -15.501s-8.83398 -8.16699 -15.501 -13.5l-3 -6c-2 -4 -5.33301 -8 -10 -12
c-6.66699 -3.33301 -10.667 -6 -12 -8l-35 -29l-25 -7c-15.333 -6 -25.666 -10.333 -30.999 -13c-11.333 -3.33301 -19.833 -5.66602 -25.5 -6.99902s-9.5 -2 -11.5 -2c-5.33301 0 -9.66602 0.333008 -12.999 1l-7 3c-2 -0.666992 -3.33301 -2 -4 -4
c-2.66699 -3.33301 -5.33398 -5 -8.00098 -5h-23c-8 0 -16.167 0.833008 -24.5 2.5l-33.5 6.5c-11.333 -1.33301 -19.666 -1.33301 -24.999 0c-2 0 -5.33301 1.5 -10 4.5s-8.33398 4.83301 -11.001 5.5l-23 4c-8.66699 2.66699 -18.334 6.16699 -29.001 10.5
s-17.834 7.16602 -21.501 8.49902s-8.83398 5.33301 -15.501 12c-0.666992 1.33301 -2.33398 3 -5.00098 5c-7.33301 4.66699 -13.333 8 -18 10c-7.33301 4 -13.166 7.83301 -17.499 11.5s-7.83301 6.83398 -10.5 9.50098c-6.66699 6 -12.334 13.667 -17.001 23l-5 12
c-2 2 -3.66699 3 -5 3l-10 10c-6.66699 8.66699 -11.667 14.667 -15 18c-4.66699 6 -7.66699 9.33301 -9 10c0 13.333 -1.83301 20.666 -5.5 21.999s-6.5 5 -8.5 11v9c0 10.667 0.166992 19.667 0.5 27s0.166016 11.666 -0.500977 12.999
c-3.33301 6 -5.66602 10.667 -6.99902 14c-4.66699 11.333 -7 20 -7 26c0 1.33301 0.833008 3.5 2.5 6.5s2.5 5.16699 2.5 6.5v74c0 2 2 6 6 12c1.33301 1.33301 3.33301 4.33301 6 9c8 16 15 28.333 21 37c2 1.33301 4.33301 4 7 8c0.666992 4 1.16699 7.5 1.5 10.5
s2.83301 7.83301 7.5 14.5l18 23c5.33301 1.33301 9 3 11 5l42 44l18.5 14c6.33301 4.66699 12.833 9 19.5 13c1.33301 0 4.83301 0.5 10.5 1.5s9.5 1.83301 11.5 2.5l27 12c3.33301 1.33301 8.33301 2.83301 15 4.5s13.334 2.83398 20.001 3.50098s13 1 19 1
c7.33301 0 12 0.5 14 1.5s5.83301 1.66699 11.5 2s10.667 0.833008 15 1.5s7.66602 1.5 9.99902 2.5s5.5 1.5 9.5 1.5c7.33301 0.666992 11.333 1 12 1c0 -1.33301 2.66699 -4.33301 8 -9h55c3.33301 0 7.66602 -1 12.999 -3c2.66699 -1.33301 8.66699 -4.66602 18 -9.99902
c8 -4 14.667 -8 20 -12c2 -0.666992 5 -2.16699 9 -4.5s10.167 -4.66602 18.5 -6.99902l19.5 -5.5l9 -9c5.33301 -3.33301 9.66602 -7.33301 12.999 -12c6 -6 11.667 -13.333 17 -22c2.66699 -1.33301 4.66699 -3 6 -5c4 -3.33301 9 -8 15 -14
c0 -0.666992 3.33301 -4.66699 10 -12c5.33301 -4.66699 9 -8.5 11 -11.5s4.33301 -7.16699 7 -12.5l5 -10c5.33301 -8.66699 9 -15.667 11 -21l7.5 -19.5c3 -7.66699 5.16699 -14.167 6.5 -19.5c0 -5.33301 -0.666992 -8 -2 -8s-2 -2 -2 -6l4 -6
c2.66699 -3.33301 4 -6 4 -8zM587.009 372.999c0 4 -2.00879 10.333 -6.00879 19l-5 13v39c-0.666992 4 -2.5 6.66699 -5.5 8s-4.5 7.33301 -4.5 18c-3.33301 2.66699 -5.83301 5 -7.5 7s-6.16699 7 -13.5 15l-12 11l-3 9c-2.66699 4.66699 -6.16699 9.5 -10.5 14.5
s-8.16602 8.83301 -11.499 11.5s-7 5 -11 7l-18 10c-2.66699 3.33301 -4.66699 5.33301 -6 6c-3.33301 4.66699 -6 7.33398 -8 8.00098c-6.66699 2 -13.167 4.33301 -19.5 7s-13.333 4.83398 -21 6.50098l-20.5 4.5c-4 2 -6.66699 3.66699 -8 5c-4 2 -7.33301 3.33301 -10 4
c-9.33301 -1.33301 -15.666 -1.33301 -18.999 0c-6 1.33301 -13.167 2.66602 -21.5 3.99902s-16.5 2 -24.5 2l-19 1c-2 -0.666992 -3.66699 -2 -5 -4s-2.66602 -3 -3.99902 -3c-2 0 -4.5 0.333008 -7.5 1s-5.83301 1 -8.5 1c-4.66699 0 -8.66699 -0.333008 -12 -1
s-11 -3.33398 -23 -8.00098c-6.66699 -2.66699 -13 -5 -19 -7l-20 -6l-28 -24l-10 -6c-3.33301 -2.66699 -5.66602 -5.16699 -6.99902 -7.5s-2.66602 -4.83301 -3.99902 -7.5c-8.66699 -6.66699 -15.167 -13.5 -19.5 -20.5s-6.5 -12.5 -6.5 -16.5v-9l-14 -15
c-0.666992 -0.666992 -1 -3.66699 -1 -9c0 -6 -0.666992 -12.333 -2 -19c-2.66699 -6 -5 -12 -7 -18l-3 -18l-4 -18c-1.33301 -5.33301 -2 -8.33301 -2 -9c0 -2.66699 1.33301 -6.66699 4 -12c1.33301 -2 1.66602 -4 0.999023 -6l-10 -41c0 -2 0.666992 -4.16699 2 -6.5
s3 -4.16602 5 -5.49902c0 -2.66699 -0.666992 -4 -2 -4s-2 -1.33301 -2 -4l6 -15c3.33301 -11.333 8 -23 14 -35l10 -18l18 -18c2.66699 -4.66699 6.33398 -8.66699 11.001 -12c0.666992 -1.33301 2.33398 -2.66602 5.00098 -3.99902
c4.66699 -8 8.83398 -13.833 12.501 -17.5s7.5 -6.83398 11.5 -9.50098c2 -2.66699 4.33301 -5.33398 7 -8.00098c6.66699 -1.33301 12.167 -2.5 16.5 -3.5s9.16602 -2.83301 14.499 -5.5l22 -14c8.66699 -4.66699 14.334 -7.5 17.001 -8.5s5.33398 -1.5 8.00098 -1.5h45
c1.33301 -2.66699 3 -5 5 -7h15c2.66699 0.666992 5 1.5 7 2.5s6.16699 1.66699 12.5 2s10.666 1 12.999 2s5.83301 1.5 10.5 1.5h14c4.66699 0 11.334 1 20.001 3l32 13c5.33301 1.33301 11 2.66602 17 3.99902c2.66699 2 7.5 5.33301 14.5 10l17.5 12
c4.66699 3.33301 9.66699 8.33301 15 15l16 20l10 3l14 19c2 6 4.66699 12.667 8 20c2.66699 4 5 7.66699 7 11l15 24c0.666992 0.666992 2.33398 3.33398 5.00098 8.00098s4 7.66699 4 9v60c0.666992 2 1.5 3.83301 2.5 5.5s1.5 3.5 1.5 5.5zM460 471.999
c0 -8.66699 -1.66504 -15.666 -4.99805 -20.999s-9.66602 -8 -18.999 -8c-12.667 0 -25 4 -37 12c-15.333 10.667 -25.666 16.667 -30.999 18l-9 1c-2.66699 1.33301 -4.66699 2 -6 2c-6.66699 0.666992 -11.667 1 -15 1l-7 -6c-6.66699 0 -13.334 -1.33301 -20.001 -4
c-1.33301 -1.33301 -3.33301 -3 -6 -5c-14 0 -24.5 -2.5 -31.5 -7.5s-10.5 -14.167 -10.5 -27.5c0 -4.66699 -1.16699 -13 -3.5 -25s-3.5 -22 -3.5 -30c0 -7.33301 0.333008 -13.833 1 -19.5s2 -10.5 4 -14.5s4 -6 6 -6s3 -2.66699 3 -8v-14c0 -3.33301 2 -8 6 -14
s6.66699 -9.66699 8 -11l16 -21c6.66699 -5.33301 16.667 -9.33301 30 -12s26 -4 38 -4c18 0 33.5 3.33301 46.5 10s20.833 17 23.5 31c4.66699 -2 9.66699 -4 15 -6c4 -2.66699 6 -5 6 -7l-2 -3c-1.33301 -3.33301 -2 -5.33301 -2 -6l-8 -32l-49 -42
c-16.667 -10.667 -35.667 -16 -57 -16c-20 0 -38.167 3.83301 -54.5 11.5s-30.833 19.167 -43.5 34.5c-3.33301 4 -6.5 8.83301 -9.5 14.5s-5.83301 10.5 -8.5 14.5c-6.66699 7.33301 -10.667 12.666 -12 15.999c-5.33301 6 -8.83301 11.667 -10.5 17l-5 15.5
c-1.66699 5 -3.83398 9 -6.50098 12s-4 7.16699 -4 12.5c0.666992 4 1 9.33301 1 16l-1 36c0 4.66699 2.66699 10 8 16s8.66602 11 9.99902 15c3.33301 12 9.66602 25.333 18.999 40l24 39c1.33301 1.33301 4.66602 4 9.99902 8s10.333 7.33301 15 10
c6.66699 4 16.334 8.33301 29.001 13l31 11.5c2.66699 1 6.33398 1.5 11.001 1.5c2.66699 0 8 -0.333008 16 -1s14.333 -1 19 -1c23.333 0 41.666 -4 54.999 -12c17.333 -9.33301 26 -24.333 26 -45z" />
    </font>
</defs>
</svg>
